<svg xmlns="http://www.w3.org/2000/svg" width="200" height="200"><path d="M26 22c4.47.497 8.298 2.357 12.316 4.254l2.169 1.006c1.548.72 3.096 1.44 4.643 2.164 4.187 1.958 8.383 3.898 12.579 5.838l2.613 1.209c7.714 3.562 15.474 7.016 23.249 10.443 15.873 6.996 31.636 14.216 47.366 21.529l2.477 1.151a1266.3 1266.3 0 014.78 2.241c3.74 1.76 7.489 3.469 11.302 5.067l2.123.915c1.886.81 3.782 1.596 5.679 2.38C160 82 160 82 161.072 84.972c-.082 3.46-.498 4.342-2.853 6.79l-1.801 1.95-1.918 1.975a396.203 396.203 0 00-3.719 3.95l-1.685 1.74L148 103c1.12 3.359 1.507 3.59 4.387 5.312 8.898 5.56 14.388 9.794 18.613 19.688a69.105 69.105 0 002.375 3.25c2.03 3.434 1.939 5.829 1.625 9.75-3.138-1.085-5.855-2.47-8.645-4.242-9.404-5.97-18.217-10.274-29.355-11.758l-3 1c4.414 5.334 8.058 7.838 14.863 9.297C151 136 151 136 153 139c.39 1.99.732 3.99 1 6-3.973-.568-6.645-1.824-10-4l-2-1v3c-4.75-.875-4.75-.875-7-2l-.277-2.355c-.488-2.874-.488-2.874-3.227-4.446l-3.058-1.512-3.067-1.55L123 130c.347 2.769.591 4.535 2.46 6.66 5.482 4.016 11.07 6.318 17.54 8.34l1 10c-3.483-1.258-6.074-2.757-9-5l-3-1v5c-3.375-.547-5.082-1.055-8-3-.408-2.712-.133-5.244 0-8l-2.437-.625c-5.293-2.043-11.186-4.642-13.829-9.887C107 130 107 130 107 127l-1.848.475c-2.777.707-5.558 1.397-8.34 2.088l-2.908.748-2.822.693c-.854.215-1.707.43-2.587.65-3.926.544-6.57.035-9.749-2.334l-2.308-2.195-2.59-2.426L71 122a1432.76 1432.76 0 00-4.984-4.565c-2.344-2.14-4.68-4.287-7.016-6.435l1-3h3l-1.879-.164c-9.972-1.713-15.605-8.314-22.447-15.196-2.655-2.601-5.531-4.916-8.451-7.21C29 84 29 84 29 80c17.823 3.678 35.395 8.413 53 13l-1.566-1.61c-.66-.706-1.318-1.412-1.996-2.14l-2.004-2.11L75 85l1-4 15 4-4.715-1.363C65.543 77.279 65.543 77.279 59 66a275.158 275.158 0 00-3.062-4.188L54 59l3-2a63.1 63.1 0 017.188 2.375l1.982.75c1.615.613 3.223 1.242 4.83 1.875-25.432-9.176-25.432-9.176-33-21-2.375-2.903-4.887-5.69-7.374-8.497-2.597-3.017-4.4-5.705-5.626-9.503l1-1zm50 42l2 2 3-1-5-1zm-4 46l4 1z" fill="#0F1431"/><path d="M56 57c14.652 5.027 29.17 10.373 43.658 15.853 3.561 1.347 7.124 2.687 10.688 4.028l6.884 2.6 3.183 1.196c5.317 2.016 10.557 4.127 15.733 6.483 2.443 1.106 4.922 2.106 7.417 3.09l2.566 1.016L148 92c0 5.59-2.524 8.034-5.875 12.313l-1.625 2.283c-2.353 3-4.055 5.123-7.896 5.87-5.815-.253-9.102-2.276-13.451-5.933-4.088-2.91-8.924-3.924-13.716-5.22C87.525 96.278 87.525 96.278 82.126 90c-1.14-1.3-1.14-1.3-2.305-2.625C78 85 78 85 77 82c1.584.311 3.167.624 4.75.937l2.672.528c2.21.459 4.39.98 6.578 1.535l-1.969-.56C65.745 77.628 65.745 77.628 59 66a275.158 275.158 0 00-3.062-4.188L54 59l2-2z" fill="#FB001D"/><path d="M77 82c8.814 1.506 17.222 4.052 25.75 6.686a1873.5 1873.5 0 007.326 2.238l4.717 1.447 2.182.663c4.486 1.393 8.731 3.06 13.025 4.966l2.18.809c4.59 1.702 4.59 1.702 5.699 4.054.121 2.137.121 2.137-1.094 4.059l-1.722 1.828-1.715 1.86L132 112c-1.379-.205-2.753-.44-4.125-.688-1.149-.19-1.149-.19-2.32-.386C123 110 123 110 120.41 107.645c-4.251-3.748-9.486-4.8-14.847-6.27C87.516 96.268 87.516 96.268 82.124 90l-2.305-2.625C78 85 78 85 77 82z" fill="#FBA600"/><path d="M95 159h6c-1.927 10.558-1.927 10.558-4 15h4l.688-2.438c1.648-4.475 3.917-8.45 6.312-12.562h9c.103 6.417-.255 12.627-1 19h-7l1-4h-4l-1 4H90c1.201-6.562 2.728-12.729 5-19zm15 7l-2 5h2l1-5h-1zm22.723-7.098l3.34.036 3.347.027L142 159c1.11 1.586 1.11 1.586 2 4-.61 3.164-.61 3.164-1.75 6.625l-1.11 3.477C140 176 140 176 138 178c-3.258.195-3.258.195-7.125.125l-3.883-.055L124 178c.807-2.98 1.622-5.96 2.438-8.938l.697-2.576.674-2.45.618-2.27c.925-2.85 1.165-2.751 4.296-2.864zM134 163l-2 11h2l3-11h-3zm-69-4c1.958-.027 3.917-.046 5.875-.063l3.305-.035C77 159 77 159 79 160c-1.3 14.3-1.3 14.3-5 18-2.353.073-4.708.084-7.063.063l-3.91-.028L60 178c1.353-6.45 3.03-12.711 5-19zm5 4l-3 11h3l3-11h-3zm-19-4h9c.107 6.44-.038 12.626-1 19h-6v-4h-4l-1 4h-6c1.392-4.627 3.295-8.647 5.625-12.875l1.914-3.492L51 159zm2 8l-1 4 2-1-1-3z" fill="#0E1331"/><path d="M81 159h12l1 2-1 2h-7v3h4v4h-6v3l5 1-1 4H76c1.354-6.458 3.047-12.696 5-19zm67.723-.098l3.34.036 3.347.027L158 159l-1 4h-7v3l5 1-1 3h-6v4h5v4h-13c.808-2.98 1.622-5.96 2.438-8.938l.697-2.576.674-2.45.618-2.27c.925-2.85 1.165-2.751 4.296-2.864z" fill="#0E1331"/><path d="M56 57l1.715 2.18c2.209 2.726 4.495 5.342 6.847 7.945l2.317 2.57L69 72l1.398 1.545c1.752 1.591 3.13 2.241 5.348 3.033.745.27 1.49.54 2.258.82l2.434.852 2.529.91c7.03 2.518 14.088 4.957 21.14 7.414C120.683 92.368 120.683 92.368 122 95c-10.053-2.505-19.891-5.734-29.707-9.03a427.477 427.477 0 00-5.847-1.896C74.3 80.224 65.788 77.344 59 66c-1.011-1.403-2.03-2.8-3.063-4.188L54 59l2-2z" fill="#1D1230"/><path d="M122 159h6c-1.162 6.548-2.734 12.745-5 19h-6c1.162-6.548 2.734-12.745 5-19z" fill="#0E1331"/></svg>