<svg xmlns="http://www.w3.org/2000/svg" xmlns:xlink="http://www.w3.org/1999/xlink" width="80" height="80"><defs><path id="a" d="M0 .072h56.236v69.829H0z"/></defs><g fill="none" fill-rule="evenodd"><g transform="translate(12 5.026)"><mask id="b" fill="#fff"><use xlink:href="#a"/></mask><path fill="#FFF" d="M52.749 35.529c1.283-2.814 1.916-8.452 1.916-8.452l-1.633-3.035s-6.12-2.049-12.13-3.224c0 0-1.917-2.398-2.767-3.506l1.034-1.871s-1.786-1.786-2.293-2.198c.135-.172.273-.356.414-.552 1.815-2.53 2.435-5.694 1.745-8.909l-.02-.085-.007-.024C38.618 2.315 37.91-.44 35.924.156c-.893.268-1.7 1.29-2.336 1.94-.74.755-1.44 1.55-2.11 2.365-.704.853-1.314 1.784-2.015 2.635a17.934 17.934 0 00-2.175 3.292l-1.154-.257a18.924 18.924 0 00-2.267-1.802c-1.416-.957-3.003-2.082-4.677-2.51-1.252-.32-2.619-.382-3.905-.475-1.627-.118-3.303-.2-4.93-.017l-.04.005-.37.032c-.772.084-1.886.3-2.815.844l-.08.047-.071.057c-.388.314-.618.677-.675 1.064-.212 1.01.406 1.544 1.325 2.337.445.384 1.123.93 1.859 1.382l.228.184.76.614c.187.259.277.422.296.463.802 1.77 2.48 4.338 7.782 6.845l-.128.718-.913.182c-4.955.988-10.063 2.29-14.013 3.571l-.448.146-1.627 3.004s.448 3.959 1.606 7.621l.343 1.086H0V62.24l1.77-.86a55.405 55.405 0 013.811-1.673l.778-.308v-.005l1.09-.386a58.015 58.015 0 013.712-1.176l-.003 5.312 8.032-.002 7.376 6.756 2.625.002 7.625-6.748 8.202.005s.002-5.34.004-5.34c1.39.388 2.777.832 4.123 1.319l.599.216.664.259a55.04 55.04 0 014.058 1.77l1.77.858v-26.71h-3.487z" mask="url(#b)"/></g><path fill="#C3D0E4" d="M27.59 35.689c-.722.425-2.798 1.625-4.123 2.379 2.513-.723 5.004-1.451 7.455-2.17.071-.644.175-1.38.3-2.156-1.1.678-2.21 1.361-3.335 2.048.024-.773-.298-.1-.296-.101m19.684-20.138c1.36-1.98 1.803-4.097 1.32-6.293l-.004-.017c-.053-.188-.095-.263-.117-.291-.068.04-.158.12-.255.22.026.074.083.227.085.245l.006.032c.476 2.219-.208 4.302-1.594 6.236-.813 1.136-1.69 1.987-2.067 2.28.068.03.138.062.21.097a10.784 10.784 0 002.416-2.51m-.904 7.235c1.526 2.007 3.278 3.905 4.913 5.956.513.607.935 1.213 1.455 1.824l.1-.03.063-.189a363.108 363.108 0 01-5.514-7.455l-.292-.408.467-1.473c-2.369-2.14-4.369-2.586-4.389-2.59a5.646 5.646 0 00-1.28-.138h-.018a6.73 6.73 0 00-.817.054l-.035.006-.08.015c-.74.171-1.68.344-2.423.514.512.33.707.38 1.222.71l-.003.008a.708.708 0 00.02.012c.123.053.222.11.287.17.154.095.193.113.326.21l.167.017c-.334-.493-1.175-1.358 1.01-1.678.005 0-.007 0 0 0 .669-.153 4.493 1.437 5.09 2.932l-.269 1.533zM23.827 13.53c1.672.158 6.661.44 10.293 2.996.307.187 2.227 1.436 3.427 2.638l.047.002c-1.544-1.92-5.464-5.73-12.245-5.73-.597 0-1.213.031-1.828.09l.306.004zm10.295 16.593c.049.1.12.224.173.317l.053-.024c.017.027.017.028.041.062l.084.12c.101.145.172.226.182.236l.007.008.01.011c.508.62 1.584 1.664 3.143 1.774.158.021.312.032.463.032.36 0 .697-.076 1.008-.197-1.203-.092-1.683-2.733-1.829-3.81l-.072-.02c-.276 2.924-3.218 2.138-2.503-5.038-.847 1.42-1.274 2.798-1.268 4.103v.007l-.16.723a2.813 2.813 0 01-.017.082l-.076-.001c.037.434.123.826.251 1.18 0 0 .36.944.684 1.243-.076-.121-.11-.196-.11-.195l-.087-.595.023-.018zm12.363-18.715c-.053.06-.12.13-.209.214-.318.26-.64.548-.959.856-1.094 1.053-2.583 2.747-3.51 4.87h.076c.067 0 .137.001.21.004l.034.001.127-.218c.614-1.044 2.02-3.36 2.926-3.993 0 .009-2.116 3.211-2.21 4.29h.006a4.59 4.59 0 00.76.179c-.095-1.012 2.42-5.62 2.703-6.139a.81.81 0 00.046-.064m4.441 24.501a10.5 10.5 0 01-.73.386c1.522.699 3.062 1.4 4.606 2.093l.558.251.08.036a555.987 555.987 0 01-4.514-2.766m-3.857-8.128l-.004.002c-.314-.438-.615-.856-.922-1.287.669 1.486 2.248 4.164 2.962 5.527l.947.252-1.184-1.99c-.453-.657-1.377-1.883-1.8-2.504"/><path fill="#C3D0E4" d="M54.195 34.872l-.028.306-.285.11c-.361.14-.722.28-1.081.422a875.9 875.9 0 01-.692-.562l.15-.108c.436-.175.874-.348 1.312-.521l.037-.014.003-.04c.098-1.257.205-2.592.327-4.08l.018-.252-.023-.027a368.898 368.898 0 01-6.164-7.55l.94-1.679.024-.043-.269-.252c-1.212-1.145-1.767-1.452-2.526-1.854.4-.343 1.563-1.459 2.304-2.86 1.208-2.286 1.363-4.307.842-6.718-.19-.813-.377-1.298-.495-1.284 0 0-.026-.007-.064.028-.384.485-.768.968-1.156 1.455a432.8 432.8 0 01-1.138 1.65c-.324.243-1.235.93-2.304 2.104l.08-.504-1.135 1.768c-.663.872-1.294 1.885-1.757 3.01l-.322.06-.024.004-.478.11.276.236-1.198-.024-.148.391c-.42-.02-1.2-.219-1.2-.219l-.099.29c-.628-.725-1.704-1.91-3.206-2.914a14.654 14.654 0 00-.894-.548l-2.55-1.493.037.366c-1.924-.66-4-.955-6.197-.955-.96 0-1.838.01-2.846.147-.194.026-.454.059-.505.251a.47.47 0 00.18.503c.746.525 1.492 1.048 2.24 1.568.167.215.562.744.763 1.178.776 1.7 2.456 4.478 9.076 7.016a10.343 10.343 0 00-.763 2.89c-.167-.277-.341-.564-.445-.745.016-.013-.626 2.876-1.185 5.909l-9.756 7.22 2.387-1.98 5.953-4.933c-.226.177-.194.146.56-.464l1.247-6.993.05-.21.528.549.138-.82c-6.07-2.533-7.816-5.124-8.602-6.858-.088-.191-.281-.494-.519-.812l-.88-.71-.293-.236a13.526 13.526 0 01-1.759-1.3c-.91-.787-.986-.887-.906-1.195-.008-.11.228-.3.228-.3.764-.448 1.74-.617 2.318-.68l.362-.031a22.665 22.665 0 012.99-.17c1.845.025 3.602.3 5.26.817l-.03-.278s1.62.657 3.15 1.609c.452.248.896.516 1.329.807a17.447 17.447 0 012.894 2.455l.366.469.343-.742 1.19.265.214-.486c.63-1.344 1.447-2.518 2.237-3.472l1.194-1.754-.017.456a17.416 17.416 0 011.446-1.316l.854-1.102c.673-.847 1.363-1.72 2.05-2.598.194-.207.384-.19.384-.19.352 0 .762.327 1.44 2.69l.006.028c.576 2.684.144 5.56-1.536 7.9-.406.567-.798 1.042-1.218 1.445 0 0 1.423.979 2.578 2.206l-.186.337-.798 1.447c1.614 2.142 3.54 4.482 5.646 7.14l.177.221-.451 5.043z"/><path fill="#C3D0E4" d="M35.126 38.508c.497-.867 2.813-4.635 6.29-4.706 1.26.483 1.695 2.148 1.805 2.694l.07.003c.243-1.105.342-1.842.382-2.277a4.063 4.063 0 00-.072-.032 5.487 5.487 0 00-1.792-.613 4.153 4.153 0 00-.48-.054l.015-.035.195-.444-1.296.3-1.637.38.1-.406c-1.584-.265-1.677-.308-2.708-.783l-.007-.003-.072-.037-.008-.004c-.049-.025-.095-.052-.142-.079-.231 1.991-.471 4.016-.723 6.099l.08-.003z"/><path fill="#003CA0" d="M26.835 62.227c-.11.838-.22 1.662-.33 2.473a883.37 883.37 0 00-.38-2.311c-.5.119-.999.246-1.496.384 0 1.346 0 2.692-.002 4.037h1.103l-.012-2.265c.125.74.25 1.495.377 2.265h.847c.113-.806.226-1.624.338-2.457l.027 2.456h1.103l-.064-4.888c-.505.093-1.01.195-1.511.306m3.784 3.728l-.022-1.5c.222-.014.445-.028.667-.04l-.012-.87c-.223.017-.445.036-.668.055l-.017-1.178c.245-.029.491-.057.737-.083l-.012-.872a57.04 57.04 0 00-1.898.277l.072 5.065h1.903l-.013-.87-.737.016m3.683-.066l-.746.01-.06-4.683c-.387.036-.775.075-1.162.118l.076 5.476h1.903l-.011-.92m2.434-.025c-.08 0-.16 0-.24.002l-.014-1.659.243-.005.11.13.01 1.44-.109.092m-.271-3.912l.243-.01.11.137.008 1.081-.108.095-.243.007-.01-1.31m1.527-.545l-.474-.446a75.94 75.94 0 00-2.237.113l.057 5.736 2.213.001.464-.46-.011-2.397-.259-.272.257-.273-.01-2.002m2.597 4.353l-.109.092h-.124l-.117-.093v-3.792l.119-.093h.125l.11.094-.004 3.792m-1.065-4.843l-.463.468.011 4.964.46.463 1.755.001.468-.461.018-4.96-.47-.47a82.397 82.397 0 00-1.78-.005m3.32.041l-.031 5.397.456.46 1.755.001.47-.45.06-5.266a73.4 73.4 0 00-1.177-.074l-.043 4.756-.11.09c-.041 0-.082 0-.124-.002l-.116-.092.04-4.77c-.393-.02-.786-.037-1.18-.05m5.265 2.508l-.11.078-.242-.015.02-1.333.241.021.107.097-.016 1.152m-1.491-2.282l-.072 5.633h1.165l.034-2.39.24.013c.037.03.073.06.108.091-.01.763-.021 1.525-.033 2.287h1.166l.037-2.48c-.1-.092-.2-.186-.299-.28l.307-.231.03-1.932a69.966 69.966 0 01-.46-.48 66.14 66.14 0 00-2.223-.231m5.297 2.739a255.71 255.71 0 01-.487-2.13c-.355-.06-.71-.117-1.067-.17l-.08 5.196c.363 0 .726 0 1.088.002l.031-2.074c.165.703.33 1.395.497 2.074h1.064l.059-4.73a49.654 49.654 0 00-1.076-.207l-.029 2.039m2.102 2.899h1.903v-.657l-.735-.032.006-1.208c.22.025.441.052.66.079l.002-.661a94.35 94.35 0 00-.659-.106l.005-.949c.241.052.482.106.723.161v-.658a41.868 41.868 0 00-1.862-.468l-.043 4.499M43.936 25.67c-1.814 1.104-3.288.688-3.629.566l-.018.027c.787.81 1.016 1.929 1.075 2.338l.053.006c.126-.32.572-.868 1.06-1.407l-.707-.003 1.567-.907c.285-.29.515-.515.61-.61l-.01-.01zm10.965 2.425c3.454 1.056 5.344 1.855 8.123 3.01-.097 1.102-.313 3.77-1.366 6.667a59.129 59.129 0 002.2 1.854c1.485-4.402 1.499-7.214 1.522-7.538a45.397 45.397 0 00-1.072-1.992c-3.367-1.09-5.836-1.798-10.046-2.715l.64.714z"/><path fill="#003CA0" d="M48.157 35.826c-1.488 0-2.895-.44-3.046-.542-.053-.166-.041-.556-.048-.88l.023.005h.002c.226.05.443.102.648.155 1.573.408 2.453.902 2.919 1.182l.061.037c-.2.06-.56.043-.56.043zm4.263-1.739l.298-.606.033-.068.042-.086.223-.455.353-.747-.186 1.846-.862.319.1-.203zm-7.77-16.124a8.995 8.995 0 00-.913-.352c-.239-.075-.372-.104-.372-.104a5.53 5.53 0 00-.395-.075c.094-1.079 2.21-4.281 2.21-4.29-.906.633-2.313 2.95-2.926 3.993l-.127.218-.035-.001a6.658 6.658 0 00-.21-.004h-.075c.927-2.123 2.416-3.817 3.51-4.87.32-.308.641-.595.96-.856a3.597 3.597 0 00.251-.264c.374-.502.747-1.008 1.119-1.515l.126-.16a6.72 6.72 0 01.446-.513c.097-.1.187-.18.255-.22.022.028.064.103.117.291a.097.097 0 00.003.017c.484 2.196.04 4.314-1.32 6.293a10.781 10.781 0 01-2.415 2.509 10.433 10.433 0 00-.21-.097zm-13.701 18.77c.147-.43.433-1.401.682-2.318.155-.566.32-1.184.484-1.816.42-1.613.843-3.312 1.136-4.455.017.123.038.244.062.363h.048l.076.002.017-.082.16-.723v-.007c-.006-1.305.421-2.684 1.268-4.103.074-.124.15-.248.23-.373l.012-.019-.082-.737-.037-.013c-7.51-2.78-8.79-5.604-9.21-6.532-.274-.592-.815-1.287-.925-1.424a.442.442 0 00-.094-.089l-.926-.65-.33-.23c.616-.06 1.232-.09 1.83-.09 6.78 0 10.7 3.81 12.244 5.73l.048.002.028.002.014.001c.544.041 1.513.194 2.054.42l.002-.003.003-.009c-.515-.33-.71-.378-1.222-.71.742-.169 1.684-.342 2.423-.513l.08-.015.035-.006a6.732 6.732 0 01.817-.053h.017c.46 0 .89.045 1.281.137.02.004 2.02.45 4.39 2.59l-.468 1.473.293.408c1.63 2.272 3.434 4.71 5.513 7.455l-.063.188-.1.031c-.454.14-1.178.346-1.607.377h-.021c-.24 0-.248-.04-.66-.27a15.53 15.53 0 00-.428-.235l-.342-.192-3.679-4.152.016.227.125.176c.307.431.608.849.922 1.287l.004-.002c.422.62 1.346 1.847 1.8 2.505l1.183 1.989 1.939.745c-.174.523-.26.864-.433 1.39l-1.158.736a4.246 4.246 0 01-.434.253c-.752.322-.782.297-.782.297-.119.03-.187.04-.309.06l-.046-.036-2.406-1.787-.89-.682-.177-.136a11.046 11.046 0 01-.437.436 4.184 4.184 0 00-.01.346v.009c0 .034.002.056.002.056-1.248-.817-3.662-1.954-3.662-1.954-.108-.435.098-.86.183-1.01l-.05-.062-.062-.132c-.077.112-.863 1.205-2.034 1.658a2.78 2.78 0 01-1.008.197c-.15 0-.305-.01-.463-.032-1.559-.11-2.635-1.153-3.143-1.774l-.01-.011-.007-.008a2.51 2.51 0 01-.182-.237 3.084 3.084 0 01-.084-.119c-.024-.034-.024-.035-.041-.062l-.053.024a6.171 6.171 0 01-.172-.319l-.025.019c.029.199.06.396.088.596 0 0 .034.074.11.195.057.091.138.208.251.343.345.437.7.845 1.222 1.138.047.027.093.054.142.079l.008.004.072.037.007.003c1.03.475 1.124.518 2.708.783l-.1.406 1.637-.38 1.296-.3-.195.444-.016.035a4.116 4.116 0 00.607.076c.437.08 1.055.248 1.666.591.025.01.048.021.072.032.197.088.367.183.51.284.13.405.273.87.28.894l.117.536.196.096c.022.011 2.16.753 3.661.753a2.762 2.762 0 00.74-.101 5.88 5.88 0 001.02-.389c.231-.11.475-.239.73-.386a552.492 552.492 0 006.613 4.03l.027.017.343-.137-.085-.069a544.707 544.707 0 01-2.281-1.83c-.9-.72-1.819-1.461-2.743-2.21l-.692-.562.15-.108c.436-.175.874-.348 1.313-.521l.036-.014.003-.04c.098-1.257.205-2.592.327-4.08l.018-.252-.023-.027a369.404 369.404 0 01-6.164-7.55l.94-1.678.024-.044-.269-.252c-1.212-1.145-1.767-1.452-2.526-1.854.4-.343 1.563-1.459 2.304-2.86 1.208-2.286 1.363-4.307.842-6.718-.19-.813-.377-1.298-.495-1.284 0 0-.026-.007-.064.028-.384.485-.768.968-1.156 1.455a432.8 432.8 0 01-1.138 1.65c-.324.243-1.235.93-2.304 2.104l.08-.504-1.135 1.768c-.663.873-1.294 1.885-1.757 3.01l-.321.06-.025.004-.478.11.276.236-1.198-.024-.148.391c-.42-.02-1.2-.219-1.2-.219l-.099.29c-.628-.725-1.704-1.91-3.206-2.914-.22-.146-.444-.283-.67-.416h.002l-.226-.132-2.55-1.493.037.366c-1.924-.66-4-.955-6.197-.955-.961 0-1.838.01-2.847.147-.193.026-.453.059-.504.251a.47.47 0 00.18.503c.746.525 1.492 1.048 2.24 1.568.166.215.562.744.763 1.178.776 1.7 2.456 4.478 9.076 7.016a10.338 10.338 0 00-.763 2.89c-.167-.277-.341-.564-.445-.745.016-.013-.626 2.875-1.185 5.909l-9.756 7.22.627-.005c.2-.11.547-.305.97-.545a484.7 484.7 0 004.123-2.379c-.002 0 .32-.672.296.1a751.773 751.773 0 003.334-2.047 46.11 46.11 0 00-.299 2.156c-.026.237-.079.653-.095.863l.122-.027z"/><path fill="#003CA0" d="M42.166 24.142c-.075.123-.16.254-.4.234.139-.088.119-.291.161-.449.22.103.239.215.239.215zm-.748-2.188l.277.795-.485-.422a8.659 8.659 0 00-2.482-1.386c-.285.021-.53.052-.696.076.469.216.9.485 1.275.825.272.247.86.85.485 1.185-.153.078-.255.037-.352-.013l-.045.046c.043.044.166.116.214.151.267.195.56.475.792.722-.034-.331.179-.486.44-.608-.11-.222-.28-.361-.439-.516.284.103.618.381.88.606-.158.092-.271.112-.357.218-.7.867 1.26 1.71 1.542.6.151.043.306.083.47.11-.042.068-.263.126-.346.09.081.83-.87 1.207-1.72 1.15l.02.043c.74.32 2.057-.284 2.585-.814.084-.085.163-.254.269-.3.065-.029.25.062.38.107.304-.16 1.285-.681 1.932-1.045l-.285.011c-.867.226-1.884.316-2.519.138-.707-.243-1.674-1.558-1.824-1.767l-.01-.002zm-22.146 28.48a797.797 797.797 0 01-1.854-8.684h-3.913v23.427a56.075 56.075 0 013.884-1.706l.035-8.97c.625 2.844 1.247 5.59 1.868 8.258a58.788 58.788 0 013.86-1.22l.136-19.789h-3.97l-.046 8.683m11.04 6.305l-.401.34-.457.064-.426-.228.08-11.869.427-.302.455-.012.395.277-.073 11.73zM26.549 41.75a105.83 105.83 0 00-1.684 1.521l-.117 16.326c.554.38 1.11.755 1.665 1.128a63.677 63.677 0 016.454-1.075 102.34 102.34 0 011.726-1.567l.06-14.94c-.565-.461-1.13-.925-1.695-1.393h-6.41zm14.836 7.065c-.294-.002-.59-.002-.884-.002v-4.218h.88l.399.277.004 3.67c-.133.092-.266.183-.4.273m4.684 2.423c-.372-.304-.744-.605-1.115-.903l1.108-.793-.025-6.4c-.57-.468-1.139-.931-1.707-1.392h-8.082l-.053 17.603a66.866 66.866 0 014.308-.133v-7.562l.885.003.4.279.008 7.294c1.436.029 2.872.104 4.306.227l-.033-8.223m.695-9.488l.013 2.898c.9.014 1.798.032 2.698.054l.09 15.177c1.43.204 2.858.457 4.28.76l-.112-15.814c.899.031 1.797.066 2.695.104l-.023-3.179h-9.641zm16.113 0c.01 2.8.023 5.6.034 8.4a109.36 109.36 0 00-1.297-.188l-.042-8.212h-4.225l.137 19.797c1.405.393 2.804.839 4.196 1.342l-.049-9.485c.433.086.864.176 1.295.267l.04 9.702c1.387.54 2.767 1.14 4.136 1.804V41.75h-4.225zm-44.232-4.549c-.893-2.662-1.08-4.804-1.189-5.992l-.674-.057c.214-.085.65-.268.649-.273 3.48-1.378 7.8-2.81 12.119-3.965.139-.194.28-.383.423-.565-4.87.97-9.893 2.246-13.83 3.523a42.3 42.3 0 00-1.078 1.994s.004 2.766 1.405 7.197a64.998 64.998 0 002.175-1.862m8.163-20.766c4.727 4.83 7.347 5.155 8.507 4.947-.294-.196-.993-.502-1.286-.7l.884.002-.438-.49 1.16.31c-.66-.772-1.56-1.418-2.535-1.953l-2.912-1.038.341-.1a25.154 25.154 0 00-3.603-1.007l-.118.03zm14.149 55.5l-.54.38-4.226-3.907-2.667-.001c3.103 3.066 5.495 5.017 5.65 5.137l1.735.002 5.81-5.142h-.975l-4.787 3.531z"/></g></svg>