<svg width="250" height="250" fill="none" xmlns="http://www.w3.org/2000/svg"><path d="M76.342 110.287H31.717c.993 2.529 2.294 4.987 3.87 7.373h43.304a48.942 48.942 0 01-2.539-7.373h-.01zm3.961 10.332H37.705c1.761 2.273 3.789 4.455 6.042 6.553h40.61a49.807 49.807 0 01-4.054-6.553zm6.761 9.934H47.69a80.808 80.808 0 008.305 5.733H92.95a50.344 50.344 0 01-5.887-5.733zm78.721-3.381h40.611c2.253-2.098 4.28-4.28 6.042-6.553H169.84a49.66 49.66 0 01-4.055 6.553zm-24.154 17.829h33.925c4.085-1.474 7.976-3.113 11.621-4.915h-35.275a50.143 50.143 0 01-10.271 4.915zm29.623-27.341h43.305c1.566-2.386 2.866-4.844 3.87-7.373h-44.625a50.055 50.055 0 01-2.539 7.373h-.011zm49.521-18.104c.03-.543.052-1.096.052-1.648a34.55 34.55 0 00-.215-3.697H74.92c1.904-25.814 23.633-46.171 50.154-46.171 23.47 0 43.181 15.943 48.731 37.498h44.625C208.713 60.89 170.61 42.5 125.084 42.5c-50.738 0-92.25 22.835-95.537 51.711-.051.492-.102.993-.133 1.495l-.03.492c0 .174-.021.358-.021.532-.01.39-.031.788-.031 1.188 0 1.239.082 2.468.215 3.696h145.671a50.337 50.337 0 01-.829 6.144h44.943a33.393 33.393 0 001.422-7.608l.031-.502v-.071l-.01-.02zm-63.589 36.73h36.955a79.485 79.485 0 008.303-5.733h-39.371a50.454 50.454 0 01-5.887 5.733zm-58.941 3.8H62.969c3.645 1.802 7.536 3.441 11.622 4.915h33.924a50.141 50.141 0 01-10.27-4.915zm26.829 13.239c12.799 0 25.015-1.453 36.177-4.095H88.896c11.162 2.642 23.378 4.095 36.178 4.095zM47.23 207.831c-20.347 0-23.378-2.385-23.48-11.785h11.571v.276c0 2.59 1.802 3.912 11.643 3.912 9.215 0 10.905-1.249 10.905-3.707v-.266c0-2.007-1.198-2.765-14.622-3.41-16.63-.83-19.282-3.461-19.282-11.459 0-7.997 3.4-11.458 21.954-11.458 20.807 0 22.21 3.952 22.261 11.52H56.61v-.174c0-2.744-3.072-3.86-10.588-3.86-7.517 0-10.476.982-10.476 3.389 0 1.986 1.075 2.396 14.51 3.092 16.547.87 19.343 4.353 19.343 11.828 0 8.355-3.195 12.092-22.159 12.092l-.01.01zm50.533.001c-20.193 0-23.429-3.973-23.429-16.732v-20.418h11.571v19.783c0 6.595 2.386 7.475 11.847 7.475 9.462 0 11.848-.88 11.848-7.475v-19.783h11.571V191.1c0 12.759-3.236 16.732-23.429 16.732h.02zm57.888-.321l-15.81-26.572h-.931v26.572h-11.08v-36.413h19.476l15.759 26.582h.994v-26.582h11.017v36.413h-19.425zm48.587.32c-20.348 0-23.378-2.385-23.48-11.785h11.571v.276c0 2.59 1.801 3.912 11.643 3.912 9.215 0 10.905-1.249 10.905-3.707v-.266c0-2.007-1.199-2.765-14.623-3.41-16.63-.83-19.281-3.461-19.281-11.459 0-7.997 3.399-11.458 21.954-11.458 20.807 0 22.21 3.952 22.261 11.52h-11.571v-.174c0-2.744-3.072-3.86-10.588-3.86-7.516 0-10.475.982-10.475 3.389 0 1.986 1.075 2.396 14.51 3.092 16.548.87 19.343 4.353 19.343 11.828 0 8.355-3.195 12.092-22.159 12.092l-.01.01z" fill="#B00"/></svg>