<svg xmlns="http://www.w3.org/2000/svg" width="80" height="80"><path d="M39.43 32.707l-.783 1.087a2.36 2.36 0 01-1.932 1.005h-7.076l3.66-5.112a2.371 2.371 0 011.907-.97h16.751l9.737-13.605H36.557c-9.7 0-17.562 7.863-17.562 17.561 0 9.7 7.862 17.563 17.562 17.563l12.548-17.533-9.674.004zM14.275 62.705h2.02v2.042c0 .13-.087.214-.215.214H12.9c-.13 0-.215-.085-.215-.214v-8.208c0-.13.086-.216.214-.216h3.158c.13 0 .216.086.216.216v1.46h3.05v-2.148a2.356 2.356 0 00-2.363-2.363h-5.028a2.356 2.356 0 00-2.363 2.363v9.583a2.357 2.357 0 002.363 2.364h5.05a2.357 2.357 0 002.363-2.364v-5.436h-5.07v2.707zm6.73 5.093h3.115v-14.31h-3.115v14.31zm11.723-14.31H29.59l-4.684 14.31h3.18l.86-2.837h4.404l.903 2.837h3.18l-4.706-14.31zm-1.569 3.953l1.29 4.77H29.87l1.29-4.77zm17.844-3.953h-3.009v8.38l-4.77-8.38h-3.009v14.31h3.01V59.46l4.77 8.337h3.008v-14.31zm1.091 2.835h3.696v11.475h3.116V56.323H60.6v-2.835H50.093v2.835zm20.862 5.78c0-1.31-.71-1.89-1.933-2.234a777.777 777.777 0 01-4.277-1.203c-.129-.043-.236-.108-.236-.279V56.54c0-.13.086-.216.216-.216h2.878c.129 0 .215.086.215.216v1.203h3.05V55.85a2.356 2.356 0 00-2.362-2.363h-4.728a2.356 2.356 0 00-2.363 2.363v3.201c0 1.311.73 1.87 1.998 2.235 2.665.753 3.803 1.075 4.169 1.183.171.042.279.128.279.278v1.999c0 .13-.085.214-.215.214h-3.008c-.129 0-.215-.085-.215-.214v-1.225h-3.051v1.912a2.357 2.357 0 002.363 2.364h4.857a2.357 2.357 0 002.363-2.364v-3.33z" fill="#FF7900" fill-rule="evenodd"/></svg>