<svg width="80" height="80" fill="none" xmlns="http://www.w3.org/2000/svg"><path d="M18 10v39.31a7.75 7.75 0 003.055 6.148L40.243 70 59.43 55.458a7.757 7.757 0 003.055-6.148V10H18z" fill="#008AAB"/><path d="M19.28 11.28v38.03a6.47 6.47 0 002.547 5.129l18.416 13.957 18.416-13.957a6.47 6.47 0 002.547-5.129V11.28H19.28z" fill="#fff"/><path d="M21.337 13.337h37.811v35.884h-37.81V13.337zM53.28 55.932l-3.834 2.905v-7.894h3.834v4.989zm-5.558 4.214l-3.836 2.905V50.944h3.836v9.203zM36.603 63.05l-3.836-2.905v-9.203h3.836V63.05zm-5.56-4.214l-3.834-2.905v-4.989h3.834v7.895zm-9.385-7.894h3.827v3.68l-2.415-1.826a4.359 4.359 0 01-1.412-1.854zM40.243 65.81l-1.916-1.452V50.943h3.834v13.415l-1.918 1.452zm17.172-13.013l-2.412 1.829v-3.68h3.827a4.354 4.354 0 01-1.415 1.85z" fill="#000105"/><path d="M39.282 41.459l-.254.055c-.027.007-.056-.011-.058-.038l-.018-.142c-.002-.022.003-.04.014-.051l.416-.35h.202c.029 0 .051.027.051.056v1.858c0 .029-.022.055-.05.055h-.25a.056.056 0 01-.056-.055v-1.389h.003zm1.052.431v-.009c-.118-.064-.298-.222-.298-.45 0-.32.278-.529.627-.529.36 0 .639.21.639.53 0 .22-.18.376-.298.445v.01c.129.068.349.234.349.484 0 .316-.267.556-.692.556-.414 0-.68-.24-.68-.556.002-.25.27-.44.353-.48zm.336.743c.16 0 .3-.107.3-.267 0-.129-.106-.262-.3-.307-.194.042-.3.176-.3.307-.003.16.142.267.3.267zm.262-1.186c0-.138-.117-.244-.269-.244-.138 0-.258.106-.258.244 0 .13.08.232.263.276.18-.042.264-.151.264-.276zm.721 1.364l.752-1.568h-.763a.058.058 0 01-.055-.056v-.203c0-.028.026-.055.055-.055h1.204c.029 0 .056.027.056.055v.02l-.862 1.814c-.02.047-.048.078-.097.078h-.214c-.036 0-.073-.01-.073-.056v-.029h-.003zm1.295-.897c0-.634.267-1.012.73-1.012.463 0 .73.379.73 1.012 0 .635-.267 1.013-.73 1.013-.463 0-.73-.378-.73-1.013zm1.08 0c0-.427-.127-.671-.35-.671-.222 0-.35.242-.35.671 0 .432.128.672.35.672.223 0 .35-.24.35-.672zm-1.97-22.95H30.956v2.394h1.51v13.68h-1.51v2.391h3.015l.89-2.392v-3.393h7.253l-.89-2.391h-6.363v-7.895h7.197a3.954 3.954 0 013.95 3.95c0 .667-.167 1.294-.461 1.846l.984 2.643a6.322 6.322 0 001.868-4.49 6.35 6.35 0 00-6.34-6.343z" fill="#fff"/><path d="M49.318 40.718l-6.526-17.54H40.55l-1.816 4.88h2.552l.385-1.033 3.262 8.764h-6.524l1.097-2.948h-2.552l-2.93 7.877h-1.537v2.391h5.638v-2.391h-1.549l.944-2.537h8.303l.943 2.537h-1.548v2.391h5.638v-2.391h-1.538z" fill="#fff"/></svg>