<svg xmlns="http://www.w3.org/2000/svg" width="80" height="80"><g fill="none" fill-rule="evenodd"><path fill="#000" d="M60.953 17.473s-2.523-1.262-8.966-2.077c.655-.733 1.306-1.9 1.58-3.98.122-.91-.434-1.272-1.418-1.272-2.406-.004-3.853-.131-5.766-.407-3.204-1.965-6.36-.798-6.36-.798-3.863-1.034-7.321.738-7.321.738-1.804.015-3.852-.086-5.241-.29-.634-.1-1.03-.192-1.56-.116-.89.13-.955 2.95.124 4.612.234.397.75 1.023 1.292 1.573-6.098.817-8.498 2.017-8.498 2.017-3.71 15.589 2.271 29.02 12.97 36.635a88.2 88.2 0 008.097 5.405 88.204 88.204 0 008.098-5.405c10.696-7.615 16.678-21.046 12.97-36.635M48.407 33.2s.003 0 0 0"/><path fill="#FFD300" d="M36.686 35.486a8.146 8.146 0 011.6-1.501 3.872 3.872 0 01-.696-.7c-.58.272-1.117.478-1.735.966.46-.667.798-.878 1.501-1.346-.018-.03-.064-.092-.089-.132-.965.346-1.751.767-2.278 1.231l-.02-.02-.012.01c-.282-.28-.62-.729-.92-1.19-.188.413-.373.872-.522 1.357-.108.401-.19.737-.217.89a.162.162 0 01-.007.022 8.665 8.665 0 00-.034.199 4.403 4.403 0 01-.63-.157c.035.835.22 1.694.509 2.63-.032-.528-.069-.828-.004-1.226.192.881.308 1.207.874 2.017 1.865-1.735 3.791-2.722 6.05-3.294a7.321 7.321 0 01-.219-.342c-.503-.227-.926-.455-1.24-.692-.573.304-1.185.71-1.91 1.278"/><path fill="#FFF" d="M35.489 56.739c-1.332-3.902-.774-6.291 1.446-11.627-1.638 1.626-2.908 2.312-3.683 4.933.04-.644.16-1.25.292-1.565-.898-1.066-1.517-2.342-1.841-4.181a5.61 5.61 0 00-.55 1.153c.022-.768.14-1.14.445-1.847a7.101 7.101 0 01-.027-.222c-.194.32-.377.625-.447.89-.762-2.225-1.113-5.714-.384-8.277.188 3.806 1.29 6.15 3.152 8.127a3.77 3.77 0 01.567-.687 5.295 5.295 0 00-.404.805c-.148.317-.227.58-.387 1.14.359-.583.55-.897.767-1.213 1.84-2.548 4.444-3.387 6.186-5.119 0 0-.994.389-1.813 1.006 1.244-1.182 2.603-1.545 3.717-3.214.095-.142.21-.31.332-.506a.627.627 0 01-.213.01c-.223.349-.663.906-1.084 1.238.357-.495.54-.915.65-1.248-.486-.082-1.447-.188-1.784-.599-.363.176-.86.365-1.34.62-.9.475-1.525.893-2.449 1.568.763-.34 1.173-.486 1.86-.675-1.682.8-3.646 2.385-4.619 3.827-.655-.684-1-1.499-1.305-2.81-.05.465-.044.792.026 1.402-.643-1.734-.823-3.465-.661-4.807a5.102 5.102 0 01-1.1-.707c-1.118 2.167-2.244 5.758-2.194 8.164.19-.756.444-1.31.444-1.31-.316 3.45.232 7.823 2.451 11.418 1.016 1.642 2.287 2.93 3.95 4.313"/><path fill="#FFF" d="M43.722 49.06c4.207-4.407 5.136-8.15 3.52-12.38.037 3.455-7.591 8.568-8.766 10.46.406-.303 1.797-1.164 2.086-1.356-1.056.841-1.63 1.378-2.362 2.457.72-.708 1.385-1.07 1.956-1.457-2.902 2.521-3.715 6.713-2.782 11.187a96.92 96.92 0 002.493 1.53c-.516-4.318 1.503-7.98 3.855-10.441M26.63 28.245c.146.956.422 1.853.837 2.613.331-.705.926-1.26 1.358-1.552.021.074.035.123.058.195-.38.385-.687.833-.97 1.339.37-.434.726-.709 1.094-.99.56 1.43 1.592 2.339 2.719 2.953.267-1.364.75-2.542 1.346-3.12.029.047.065.116.093.16-.433.684-.563 1.04-.74 1.746.362-.612.647-.997.989-1.37.316.439.623.744.904 1.024 1.014-1.007 3.142-1.05 4.296-1.163-1.349-1.074-6.365-.129-8.384-2.988.12-.232.28-.44.526-.703-.508.304-1.384 1.084-1.916 1.715.12-.33.249-.595.395-.822-.828-1.575-.694-3.575-.526-5.072a4.71 4.71 0 01.76-.46c-.742.172-1.288.427-1.982.909-.26-1.964.566-4.097 1.238-5.554-.307.056-.53.163-.802.336.34-1.623.943-3 2.13-4.292a10.13 10.13 0 00-3.146 4.885 3.28 3.28 0 01.716-.282c-.025.043-.068.11-.092.152-.472.257-.753.463-1.177.935.42-.27.664-.397.94-.506-1.057 1.879-2.018 3.875-1.559 6.809.288-.356.741-.703.975-.813l-.027.165a4.683 4.683 0 00-1.069 1.52c.287-.378.583-.684.983-.93a11.814 11.814 0 00.033 3.16"/><path fill="#FFD300" d="M48.156 25.704a4.044 4.044 0 00-.05.878c.593.157 1.283-.75 1.582-2.105.267.228.521.464.807.794-.22-.537-.407-.826-.736-1.193.011-.065.049-.156.056-.222 0 0 .25.175.434.436.146-.417.258-1.359.328-2.656-.225.435-.623.765-1.022.961-.337 1.774-.934 2.791-1.399 3.107m2.527-7.93c0-.406-.028-.702-.13-1.05.097.028.242.098.319.136-.066-.846-.002-1.29-.338-2.058-.012.437-.029 1.002-.305 1.246-.226.202-.46.358-.696.465.405.276.86.713 1.15 1.26m-20.45 7.37c.258-.223.525-.356.828-.455l.048.09c-.502.331-.809.61-1.232 1.172a7.503 7.503 0 011.443-.83c.934 1.338 2.937 2.405 5.165 2.687-.302-.63-1.447-1.423-1.857-2.048-.779-1.182-.32-2.58.352-3.422-1.615.71-2.039 1.207-2.248 2.301-1.946-1.893-2.186-6.657-1.845-9.288-1.081 1.952-1.946 3.36-1.946 6.114.313-.134.659-.265 1.036-.314-.204 1.045-.155 2.725.256 3.992"/><path fill="#FFF" d="M35.69 14.013c.639.532.95.92 2.257 1.192.224.047.533.046.787.026-.52.381-1.233.537-1.972.624-.967.116-2.469-.626-3.556-.836-.406-.422-.48-.856-.29-1.142.078-.12.184-.4.445-.635a1.1 1.1 0 01.162.004c.346.03.692.072 1.032.15.393.091.828.37 1.134.617m1.041 4.09c1.015.06 1.881.32 2.634.502.118.028.234.06.353.091 1.338.37 2.602.778 3.71 1.188.41.27-1.562-.225-3.7-.803.041.187.14.367.322.527.2.175.342.34.447.498a15.55 15.55 0 00-1.76-.391c-.737-.116-1.46-.159-2.117-.086.84.056 1.895.189 2.984.46l.067.015.073.014a47.02 47.02 0 013.827.932c.383.21-1.021.002-2.805-.33.143.556.065.974 1.05 1.275 1.214.37 3.109.173 3.864-.153.502-.217 1.027-.68 1.12-.884.035-.074.064-.138.089-.2-.686-.22-.45-1.027-1.227-1.506-.558-.344-.562-.675-.854-1.226a5.043 5.043 0 00-.483-.71c-.805-.946-1.135-1.086-1.92-1.01-.522.05-1.352.237-1.983 1.026a18.256 18.256 0 00-.584-.225c-1.028-.375-2.08-.645-3.114-.664 1.073.144 1.793.366 3.12.838 1.386.458 2.679.948 3.8 1.433.368.277-1.481-.261-3.546-.933-.146.226-.28.487-.347.753a13.135 13.135 0 00-.879-.227c-.725-.16-1.444-.247-2.14-.204m4.092-4.373a1.974 1.974 0 01-.176-.105.829.829 0 01-.047.179c-.608.04-1.413-.808-1.792-1.15-.567-.512-1.17-.642-2.01-.722-.392.028-.458-.103.022-.226a3.766 3.766 0 011.46.054c-.296-.252-.61-.477-.992-.61-.289-.102-.607-.225-.913-.242-.187-.009-.427.046-.632.11-.358.11-.785.305-1.053.455.01.387-.134.772-.081 1.162.027.206-.018.337.158.449.104.067.21.176.311.231.107.059.348.024.525.015.43-.076.772-.225 1.133-.248.964-.063 1.89.073 2.514.52.613.47 1.373.937 1.562 1.038.07.037.163.12.275.112.07-.042.14-.082.21-.122a.865.865 0 00.006-.106c0-.187-.101-.6-.48-.794m8.48-.766c-.042-.212-.121-.56-.206-.699a3.738 3.738 0 00-.52-.684c-.347-.22-.79-.378-1.4-.547-.286-.078-.867-.134-.974-.112-.178.034-.262.153-.322.272-.09.178.29.617.563 1.035.22-.3.509-.438 1.053-.484.394.013.398.13.1.18-.178.026-.488.225-.704.745-.144.347-.146.89-.708 1.041a.755.755 0 01-.115-.171c-.074.12-.213.35-.1.575l.14.12c.051.027.103.055.157.086-.043-.417.535-.773.762-.993.491-.478 1.176-.309 1.49-.197.23.082.415.289.622.383.19.04.194-.178.223-.264.03-.091-.043-.194-.061-.286m-8.408 18.649c-.017.283.107.613.291.929.183.311.446.574.744.672.06.23.08.442.06.683.414.099.71 0 1.074-.18.09.18.111.421.08.743.345-.03.567-.09.835-.284.016.154.005.386-.046.576.173-.252.254-.433.295-.659.034-.014.07-.028.104-.044.037.27.047.502-.024.944.264-.473.354-.744.405-1.186.032-.022.043-.012.074-.035.066.234.12.456.109.793.719-.14 1.082-.507 1.344-1.105.114.11.269.296.365.477.608-.287.845-1.005.952-1.477.058-.255.113-.717.058-.894.061.025.12.056.179.087.242-.503.117-1.206.421-1.63.242-.339.059-.676-.051-1.066-.103 2.06-.878 1.159-1.068 1.06-.687-.356-3.11-.327-4.088-.065-.406.109-.71.17-.936.388-.7.672-.935.406-1.061-.196a4.037 4.037 0 00-.098-.654c-.006-.039-.01-.08-.015-.12.004.026.003.05.003.075.01.53-.574.541-.608 1.031a.884.884 0 00.021.234c.055.206.605.602.581.903"/><path fill="#FFF" d="M38.54 14.051c-.19-.032-.33-.14-.314-.238.018-.1.186-.153.376-.12.19.032.329.139.312.238-.017.098-.186.153-.375.12m9.564-.428c.025.086-.09.197-.257.246-.166.048-.322.017-.349-.07-.025-.087.089-.197.255-.246.169-.049.324-.017.35.07m1.55 1.892c.066-.22.23-.464.25-.671.02-.21-.074-.567-.173-.929h-.004c-.492-.113-.613.027-.798.253-.355.436-.42.546-.823.748-.291.147-.563.14-.835.084.344.285.761.482 1.166.522.429.043.86.192 1.218-.007"/><path fill="#FFD300" d="M49.923 13.306c.001.243.232.512.143.626-.078.028-.21.013-.337-.017.099.362.192.718.173.929-.02.207-.184.45-.25.671l.017-.008a.697.697 0 00.15-.12c.443-.474.628-.717.572-1.244-.04-.14.332.033.588.48-.235-.497-.48-.945-.709-1.303l-.22-.338c-.087-.082-.129.143-.127.324"/><path fill="#D52B1E" d="M42.522 29.156c-.436.256-.317-.113-.42-.366-.174-.434-.518-.817-.588-1.783-.053-.417-.077-1.11.356-1.24.674-.202 1.675.453 2.246.453.572 0 1.133-.587 1.695-.483.384.07.535.553.657 1.018.135.51.086.883.14 1.226.033.232.06.298.134.404l-.148.192c-.006-.008-.013-.014 0 .001a.294.294 0 00-.204-.081.318.318 0 00-.217.088.585.585 0 00-.118.157.261.261 0 00-.121-.028.29.29 0 00-.193.076v.001a.262.262 0 00-.16-.052.285.285 0 00-.178.064.261.261 0 00-.174-.064.279.279 0 00-.163.053c-.001-.001-.004-.002-.004-.004a.263.263 0 00-.186-.074.29.29 0 00-.135.035 1.022 1.022 0 00-.14-.17.288.288 0 00-.202-.082.322.322 0 00-.218.088.433.433 0 00-.064.073c-.148-.46-.23-.8-.31-1.128a15.377 15.377 0 00-.084-.341c-.069-.274-.166-.527-.409-.527-.283 0-.388.342-.451.541-.157.527-.303 1.415-.34 1.953"/><path fill="#FFF" d="M46.325 28.727c.039-.037.081-.04.11-.01.16.156.208.317.21.43-.002.06-.156.111-.254.111-.097 0-.243-.055-.241-.105-.002-.097.073-.334.175-.426m-1.671.42c-.002.06-.157.111-.254.111-.098 0-.244-.055-.243-.105 0-.097.074-.334.176-.426.039-.037.082-.04.111-.01a.63.63 0 01.21.43m.38.045c-.001.039-.096.07-.157.07-.06 0-.15-.035-.15-.066a.466.466 0 01.109-.263c.024-.023.05-.025.07-.007a.39.39 0 01.128.266m.223-.24c.1.097.129.196.13.267-.001.037-.096.068-.157.068s-.151-.034-.15-.065a.47.47 0 01.108-.264c.025-.022.051-.024.07-.006m.482.267c-.002.037-.097.068-.158.068s-.15-.034-.15-.065c0-.06.046-.206.11-.264.023-.022.05-.024.067-.006.1.097.13.196.13.267m.354-.027c-.002.039-.098.07-.159.07-.06 0-.15-.035-.15-.066a.469.469 0 01.109-.263c.025-.023.051-.025.07-.007a.398.398 0 01.13.266m.501-6.725c0-.036.105-.078.176-.078.07 0 .182.038.183.083a.458.458 0 01-.15.311c-.022.02-.052.019-.082-.008a.542.542 0 01-.127-.308m.71-.072c.114 0 .294.06.296.13-.003.131-.057.32-.245.503-.034.035-.084.03-.13-.012-.118-.108-.205-.384-.205-.499-.001-.058.17-.122.284-.122m-.587 6.636c.483-.825.64-1.313.833-1.79.14-.359.28-.455.32.13.033.454.05.966-.127 1.663-.057.163-.384.26-.568.26-.184 0-.528-.118-.458-.263m-2.703-.001c.042.181-.31.276-.482.276s-.566-.07-.586-.227c-.018-.9.091-1.403.183-1.837.104-.492.254-.518.384-.008.135.529.22.982.5 1.796m5.091-6.227a6.941 6.941 0 01-.797 1.98c-.419.697-.537.581-.498.155.05-.57.149-1.15.035-2.132 0-.174.386-.341.631-.341s.657.143.629.338m-2.922-.367c0-.036.104-.075.175-.076.071 0 .182.037.183.082a.453.453 0 01-.15.31c-.022.022-.053.02-.08-.007a.545.545 0 01-.128-.309m-.413 0c-.001-.036.104-.075.175-.076.071 0 .183.037.185.082a.46.46 0 01-.151.31c-.023.022-.053.02-.082-.007a.551.551 0 01-.127-.309m-.412.03c0-.035.105-.077.175-.077.071 0 .183.038.185.083a.468.468 0 01-.152.311c-.022.02-.053.019-.081-.008a.549.549 0 01-.127-.308m-.666.05c-.002-.058.169-.122.283-.122.116 0 .295.06.297.13-.003.131-.057.32-.244.503-.034.035-.083.03-.13-.012-.119-.108-.207-.384-.206-.499m-1.78.244c0-.193.51-.312.738-.312.23 0 .695.152.67.37-.222.987-.256 1.537-.337 2.178-.08.618-.296.586-.523-.01-.202-.525-.407-1.135-.547-2.226"/><path fill="#FFD300" d="M53.99 36.732c.652.587 1.967 1.723 2.385 2.449.088.153.05.083.05.085.154-.64.244-1.404.367-2.05-.789-.84-1.642-1.93-2.03-2.608-.745-1.298-1.079-2.374-2.156-3.446-.191-.19-.501-.472-.804-.834a6.53 6.53 0 01-.736.893c.012.137.047.568.058.81.082 2.07 1.355 3.336 2.867 4.7m3.104-1.264c.065-.433.142-.887.191-1.32-.9-.458-2.1-1.434-3.051-2.278.481.924 1.842 2.646 2.86 3.598"/><path fill="#FFF" d="M52.27 29.488c.896-1.346.815-3.771.557-5.645.188.1.372.23.569.406a2.626 2.626 0 00-.636-.834c-.01-.061-.02-.156-.034-.221.168.117.293.214.408.339.136-1.63.085-2.91-.435-4.37 0 0 .167-.025.32.036-.036-.106-.091-.26-.157-.443a5.95 5.95 0 01-.754.337c.054.277.1.562.135.847-.464 0-.97.118-1.49.294l.005-.059a6.35 6.35 0 00-.005-.64c-.993.309-1.869.53-1.645.326.403-.195.842-.38 1.299-.547.03-.011.06-.024.092-.034.071-.026.145-.05.216-.075a13.27 13.27 0 012.393-.59c-.1-.02-.205-.03-.31-.036-.11-.299-.244-.654-.382-1.009a11.39 11.39 0 01-.6.329c.069.226.135.479.197.747a6.822 6.822 0 00-1.32.44 2.482 2.482 0 00-.2-.602c-.735.285-1.269.45-1.103.275 1.13-.657 2.067-1.145 3.418-1.495.031-.008.061-.014.087-.022a2.659 2.659 0 00-.596.028l-.137-.34c-.017-.042-.113-.28-.131-.321l.131.016c-.597-1.642-1.502-3.313-2.765-4.585.435.595.568.814.873 1.28.613.958 1.34 2.568 1.714 4.022-.554.158-1.085.467-1.66.829a6.508 6.508 0 00-.132-.212c-.1-.16-.461-.471-.743-.622.096.206.135.504.031.847-.186.616-.48.962-.828 1.382-.298.36-.658 1.184-1.325 1.245-.005.067-.006.13-.006.167 0 .402.455.943.704 1.062.481.228.569.244 1.138.116.57-.128.887-.505 1.077-.743.154-.188.288-.408.382-.641-1.016.258-1.94.437-1.703.24a13.216 13.216 0 011.433-.512c.82-.243 1.687-.417 2.517-.478a3.389 3.389 0 01-.587.264c.053.561.056 1.1-.015 1.54.196.175.358.393.538.71a6.361 6.361 0 00-.413-.314c-.48-.348-.822-.517-1.36-.61.302.142.568.326.81.524-.032 1.432-.227 3.475-.695 4.501a2.257 2.257 0 00-.575-.57c-.004.02-.041.088-.047.108.356.416.542.713.754 1.292a11 11 0 00-.87-.913c-.5 1.415-1.164 1.708-1.723 1.75 0 0 .534 1.095.053 2.157a1.056 1.056 0 00-.069.32c.142.287.103.459.21.801.888-.369 1.93-1.44 2.538-2.296.268.244.526.506.872.89-.204-.521-.382-.811-.684-1.166.033-.05.057-.066.09-.118.239.174.38.304.574.596"/><path fill="#FFD300" d="M43.256 12.663c-.61-.632-1.373-1.05-2.856-1.295.807-.142 1.927.039 2.465.366.576-.451 1.174-.562 1.874-.463-.678.2-1.622.748-1.483 1.392M37.729 9.9c1.301-.251 3.075-.068 3.72.425.506-.356 1.392-.586 2.896-.338-1.25.085-1.595.159-1.884.379.37-.083.77-.105 1.472.06-.825.058-1.854.292-1.852.755-.552-.4-1.738-.742-2.809-.742.542-.16.948-.154 1.27-.073-.667-.31-1.247-.438-2.813-.466m9.962 7.963c.332.018.833.006 1.13-.142.016.217-.788.577-.96.588-.19.01-.4-.135-.579-.18a11.987 11.987 0 00-.63-.136c-.12-.018-.283-.074-.3-.24.45.023.888.087 1.339.11m-10.742-.439c-.515.375-1.303.686-2.065.543-.099.314-.057.868.18 1.509-1.285-.571-2.06-1.532-2.144-2.254.827-.393 2.575.186 4.03.202m15.706-5.932c-.86.103-1.81.01-2.57-.402.642.02 1.114-.094 2.282-.444-.358.03-3.892.133-5.955-.393-.903-.4-3.829-1.558-5.59-.598-2.883-.94-6.519.034-7.58.834-1.933 0-3.974-.139-5.126-.512.938.654 1.68.763 2.243.885-1.417.057-2.434-.15-3.957-.48.507.492.873.696 1.629.92-.447.04-.908.017-1.398-.07.582.476 2.057 1.268 3.31.717.364-.159 1.518-.772 2.496-.88-.54.288-1.4 1.061-1.888 1.617a5.016 5.016 0 01-.05.084c.45-.317.973-.568 1.496-.664-.783.579-1.125 1.177-1.156 1.812.274-.291.483-.592.796-.688.073-.023.134.056.195.19.111.16.193.53.345.872.165.343.395.645.758.684.085.01.176.025.27.042-.406-.422-.48-.857-.291-1.142.079-.12.186-.4.446-.635-.164.001-.317.005-.42-.138a1.358 1.358 0 01-.18-.405c-.04-.137-.178-.387-.14-.516.337.003.665.1.998.006.514-.146.38-.666.998-1.097.05.127.069.255.073.381.268-.15.696-.345 1.053-.455.205-.064.444-.12.632-.11.306.017.624.14.913.241.382.133.696.36.993.611.883.22 1.528.777 2.168 1.392.146.152.227.276.198.474.06.037.117.073.176.104.378.194.48.608.48.794a.88.88 0 01-.006.106c.968-.547 1.777-.874 2.763-.437-.918-.07-1.815.401-2.56 1.035-.5.423-1.53 1.355-2.306 1.393-.077-.335.046-.508.294-.742.323-.25.65-.497.98-.724a1.959 1.959 0 00-.59-.014c-.277.379-.687.593-.949.718-.907.41-1.37.598-3.087.467-1.092-.084-1.893.087-2.47.087-.578 0-.867-.13-1.197-.415-.33-.287-.48-.708-.645-1.198-.034 1.464.373 5.094 1.878 5.922.239-.169.698-.293 1.1-.288-.59.282-1.22.845-1.57 1.533 1.364-1.18 2.398-1.478 4.098-1.484-.704 1.203-.86 2.236-.831 3.258.017.64.103 1.13.24 1.53.268.848.722 1.713 1.284 2.35-.135-.31-.255-.62-.355-.927.403.425.88.87 1.386 1.558.644.877 1.077 1.007 1.533 2.225.035-.49.619-.502.608-1.032-.087-.339-.231-.675-.475-1.158-.461-.916-2.048-4.083-2.114-6.018-.023-.67.413-1.052.562-1.346a.839.839 0 00.064-.572c-.815-.194-1.738-.471-2.32-.722.66-.073 1.38-.03 2.118.085-.082-.261-.136-.549-.06-.892l.01-.042a24.206 24.206 0 01-1.956-.678c.697-.042 1.416.045 2.142.206.133-.254.318-.507.537-.755-1.223-.422-2.13-.825-2.685-1.11 1.034.02 2.084.289 3.113.664.231-.221.508-.456.8-.677.265-.209.554-.5.826-.691.834-.573 1.964-1.305 2.94-.691-.162.008-.331.02-.504.043-.575.06-.234.897.417 1.563.352.361.694.875 1.1 1.455.27.382.297.5.595.59.507.154 1.054.4.936.708-.086.224-.455.13-.38.402.161.58.582.694.936.627l.171-.048a.95.95 0 00.155-.072c.17-.112.243-.288.426-.575.073-.178-.055-.168-.055-.32 0-.104.196-.348.46-.57.327-.275.532-.825.532-1.062 0-.298.009-.497-.12-.708-.507-.712-1.843-1.52-2.008-1.644-.454-.343-.886-.391-1.373-.424.252-.229.462-.211.658-.146-.148-.145-.225-.225-.34-.305-.412-.282-.879-.38-1.462-.416.644-.296 1.011-.277 1.563.09l-.14-.12c-.113-.227.026-.455.1-.576a.617.617 0 01-.021-.477c.135-.365.25-.635.395-.834-.274-.417-.653-.857-.563-1.036.06-.117.145-.237.322-.27.107-.023.688.033.974.111.61.17 1.053.326 1.4.547-.04-.04-.083-.08-.127-.119a8.69 8.69 0 00-1.263-.82c.624.276 1.372.614 1.798.828.824.412 1.47 1.05 2.907.967-.373-.077-.965-.353-1.534-.757.259.009.991.224 2.298-.187M30.08 33.44a8.535 8.535 0 01-.927-1.203c-.704 1.23-1.67 2.986-2.179 4.85.353-.63.777-1.292.777-1.292-.373 1.2-.777 2.75-1.026 4.608-.245 1.832-.315 4.22-.073 6.635.04.322.089.769.166 1.315a26.006 26.006 0 01-2.246-4.227c-1.2-2.856-3.138-8.363-3.138-12.958-.347-5.756.27-10.524 1.054-14.845-.391.092-.751.183-1.076.27-2.724 12.175-.938 23.19 4.785 31.389.938 1.358 2.42 3.102 3.393 3.951-2.486-5.497-2.491-13.228.49-18.493"/><path fill="#FFF" d="M51.987 15.395c.655-.732 1.306-1.9 1.58-3.98.122-.91-.434-1.271-1.417-1.272-2.407-.002-3.854-.13-5.767-.407-3.204-1.964-6.36-.797-6.36-.797-3.863-1.034-7.321.738-7.321.738-1.804.015-3.852-.086-5.241-.29-.634-.1-1.03-.193-1.56-.117-.89.13-.955 2.95.125 4.613.232.397.75 1.022 1.29 1.573a54.937 54.937 0 00-3.725.623c-1.019 5.036-1.32 9.365-1.32 12.963 0 6.511 1.463 13.568 4.546 19.31a25.399 25.399 0 01-2.246-4.225c-1.2-2.857-3.138-8.364-3.138-12.96v.001c-.347-5.756.27-10.524 1.054-14.846-2.577.606-3.668 1.15-3.668 1.15-2.022 8.495-1.165 16.348 1.763 22.97-3.425-6.626-4.529-14.662-2.337-23.632 0 0 2.358-1.147 8.315-1.961a9.694 9.694 0 01-1.133-1.461c-1.206-1.833-.925-4.643-.005-4.773.549-.075.959-.023 1.614.078 1.437.203 3.127.442 4.99.428 0 0 3.396-1.948 7.8-.851 0 0 3.364-1.322 6.795.963 1.978.276 3.46.186 5.95.188 1.016.001 1.655.47 1.592 1.386-.106 1.589-.715 2.878-1.542 3.964 6.393.817 8.906 2.04 8.906 2.04 2.192 8.97 1.089 17.006-2.338 23.63 2.929-6.62 3.785-14.474 1.764-22.968 0 0-1.091-.545-3.669-1.15.785 4.32 1.402 9.089 1.054 14.845 0 4.595-1.937 10.102-3.137 12.959a25.36 25.36 0 01-2.246 4.226c3.083-5.743 4.545-12.8 4.545-19.311 0-3.598-.301-7.927-1.32-12.963"/><path fill="#FFD300" d="M58.36 16.593a35.8 35.8 0 00-1.075-.27c.784 4.32 1.4 9.088 1.053 14.845v-.001c0 4.512-1.867 9.9-3.07 12.799l-.067.16c-.862 2.054-.74 1.321.084-1.078-.018-.401-.177-.909-.27-1.182a9.674 9.674 0 00-2.147-3.568 13.97 13.97 0 00-1.055-.994c-1.474-1.258-2.262-1.947-2.095-4.139l.013-.146c.027-.281.089-.518.172-.72-.47.357-.979.67-1.495.901-.054.226-.246.93-.67 1.422.469 1.57 1.644 3.227 2.26 3.978-.327-.65-.42-1.044-.677-1.762.951 1.228 2.071 2.963 2.173 4.763-.601-.632-1.23-1.163-1.672-1.38.836 1.874.747 3.077.232 4.875-1.027 3.598-2.817 4.16-5.052 8.014.52-.564.977-.996 1.503-1.324-1.058 1.17-2.044 3.059-2.047 4.835a88.545 88.545 0 002.675-1.882 39.061 39.061 0 003.599-3.325 27.638 27.638 0 002.843-3.432c5.723-8.199 7.51-19.214 4.785-31.39"/><path fill="#FFF" d="M57.284 16.322c.785 4.322 1.402 9.09 1.054 14.846 0 4.595-1.937 10.102-3.137 12.958a25.34 25.34 0 01-2.246 4.226c3.083-5.743 4.545-12.799 4.545-19.31 0-3.598-.301-7.927-1.32-12.963l1.104.243z"/><path fill="#000" d="M32.69 68.798c.102 0 .296.009.445.009h.588c.116 0 .28 0 .381-.016.004 0 .01.007.01.01a3.34 3.34 0 00-.05.448c-.016.012-.072.015-.088.01a.7.7 0 00-.063-.24c-.028-.055-.074-.07-.116-.076a3.858 3.858 0 00-.418-.003c-.016.003-.031.04-.031.051-.003.198 0 .415 0 .622 0 .01.013.023.018.023.08 0 .312.003.406-.002.064-.004.095-.036.12-.122a.655.655 0 00.02-.096c.013-.007.08-.007.091.002-.002.076-.015.185-.015.288 0 .079.006.206.01.294-.013.01-.08.012-.092.003-.02-.09-.019-.079-.03-.119-.016-.044-.043-.087-.11-.093-.052-.006-.308-.006-.4-.006-.008 0-.018.018-.018.024v.576c0 .045.024.09.064.1.058.01.198.017.35.017.166 0 .202-.014.26-.08a.981.981 0 00.167-.292.17.17 0 01.086.028 2.32 2.32 0 01-.129.438c-.014.032-.032.049-.163.049-.266 0-.555-.015-.84-.015-.16 0-.362.01-.523.01a.176.176 0 010-.082c.097-.013.17-.022.213-.035.058-.018.086-.053.086-.153.009-.17.009-.428.009-.755 0-.23 0-.472-.01-.582-.006-.084-.018-.109-.082-.13a.993.993 0 00-.149-.023c-.01-.016-.003-.073.003-.082m2.519 1.707c.08.055.187.08.281.08.149 0 .259-.094.259-.252 0-.155-.066-.252-.332-.414-.287-.186-.47-.328-.47-.625 0-.352.293-.542.638-.542.223 0 .349.04.485.049a3.63 3.63 0 00-.053.44.146.146 0 01-.083.002c-.027-.182-.06-.273-.14-.33a.378.378 0 00-.234-.067.255.255 0 00-.269.264c0 .126.061.218.183.303.13.087.202.13.334.21.219.144.322.28.322.49 0 .326-.26.572-.716.572a1.1 1.1 0 01-.455-.095c-.03-.046-.082-.37-.088-.469.01-.016.07-.03.083-.021.067.215.142.32.255.405m2.801.137c-.118 0-.268-.009-.46-.009-.284 0-.427.01-.522.01-.012-.016-.012-.074 0-.082.067-.007.147-.017.19-.028.073-.018.097-.051.105-.194.013-.3.011-.914.011-1.378 0-.006-.007-.02-.016-.02a2.26 2.26 0 00-.305 0c-.07.004-.113.035-.152.102a1.47 1.47 0 00-.113.258c-.009.008-.082-.004-.088-.021.024-.122.048-.377.055-.495 0-.005.018-.02.024-.018.097.033.2.04.274.04h1.083c.155 0 .24-.013.325-.036.01 0 .016.012.02.017a2.874 2.874 0 00-.07.513c-.01.008-.084.012-.089.003a1.293 1.293 0 00-.064-.264c-.031-.07-.061-.091-.122-.097a4.494 4.494 0 00-.333-.002c-.006.002-.014.011-.014.023 0 .424 0 1.218.008 1.42.003.076.019.121.083.147.052.013.073.013.173.03.013.008.009.072-.003.081m2.966 0c-.113 0-.308-.012-.488-.012-.219 0-.341.012-.432.012-.01-.012-.013-.076 0-.085l.155-.021c.09-.02.097-.103.1-.197.007-.124.007-.303.01-.59 0-.246 0-.473-.01-.554-.003-.052-.021-.104-.076-.112a1.805 1.805 0 00-.14-.025c-.01-.015-.003-.075.007-.084.246-.013.472-.092.603-.146.009-.004.037.009.037.018-.01.124-.013.23-.013.48 0 .244 0 .753.01 1 .006.11.018.192.097.21.063.011.11.015.15.021.005.009.005.073-.01.085m1.035-1.484c0 .158.086.246.397.43.002 0 .008 0 .014-.003a.462.462 0 00.102-.296c0-.195-.104-.37-.29-.37-.134 0-.223.118-.223.239m.516 1.175c0-.16-.105-.276-.443-.479-.003-.006-.011 0-.016.004a.456.456 0 00-.134.308c0 .194.147.4.352.4.143 0 .24-.09.24-.233m.266-1.066c0 .112-.068.221-.3.36-.002.007-.002.012 0 .016.238.15.375.276.375.493 0 .267-.252.527-.655.527-.43 0-.585-.248-.585-.457 0-.127.083-.24.369-.4.004 0 .006-.009 0-.012-.165-.115-.305-.254-.305-.46 0-.149.07-.294.187-.376a.65.65 0 01.404-.13c.296 0 .51.172.51.44m1.098-.11c0 .158.085.246.396.43.003 0 .01 0 .016-.003a.462.462 0 00.1-.296c0-.195-.104-.37-.29-.37-.134 0-.222.118-.222.239m.515 1.175c0-.16-.103-.276-.442-.479-.003-.006-.012 0-.016.004a.453.453 0 00-.133.308c0 .194.146.4.35.4.144 0 .241-.09.241-.233m.265-1.066c0 .112-.067.221-.299.36-.002.007-.002.012 0 .016.237.15.375.276.375.493 0 .267-.253.527-.655.527-.43 0-.585-.248-.585-.457 0-.127.082-.24.37-.4.002 0 .004-.009 0-.012-.166-.115-.306-.254-.306-.46 0-.149.07-.294.185-.376a.657.657 0 01.406-.13c.296 0 .509.172.509.44m1.736-.42a.782.782 0 01-.146.295.224.224 0 01-.15.072c-.198 0-.332-.02-.377-.02-.006 0-.024.005-.028.014a1.599 1.599 0 00-.058.143c0 .003.01.027.02.03.09.043.425.182.557.257.192.104.316.23.316.47 0 .4-.43.648-.792.648a.544.544 0 01-.393-.143.157.157 0 01-.048-.102c0-.049.055-.148.088-.194.007-.007.028-.015.037-.019.122.18.304.319.52.319.157 0 .25-.115.25-.261 0-.13-.05-.258-.235-.375-.158-.106-.454-.227-.523-.27a.331.331 0 01-.003-.1c.054-.182.22-.59.3-.709.032-.039.059-.054.083-.054.05 0 .198.015.36.015.104 0 .13-.008.18-.048.012 0 .042.019.042.033m-16.323-3.235c-.231.361-.524.734-.746.91-.267.211-.525.238-.747.238-1.476 0-1.957-1.37-1.957-2.359 0-1.52.605-2.235 1.54-2.235.363 0 .692.062.976.221.356.203.41.486.534 1.052.018.061.4.026.445-.045 0-.477.071-1.228.116-1.537-.338-.008-1.024-.158-1.876-.158-.73 0-1.299.131-1.787.362-.997.468-1.504 1.404-1.504 2.42 0 1.926 1.236 2.889 3.254 2.889.659 0 1.032-.133 1.317-.23.267-.15.667-.875.8-1.263a.74.74 0 00-.365-.265"/><path fill="#000" d="M19.769 64.386c-.142.079-.578.106-.942.106-.045 0-.062-.053-.062-.088 0-.645 0-1.626.017-1.9 0-.036.036-.105.062-.133.036-.026.196-.042.285-.042.64 0 1.085.431 1.085 1.165 0 .539-.195.768-.445.892m4.757 2.314c-.231-.07-.249-.247-.258-.406-.018-.344-.008-1.228-.008-2.04 0-.76-.01-1.211.008-1.502.009-.16.009-.335.214-.397a3.33 3.33 0 01.524-.098c.045-.054.037-.37 0-.425-.231 0-.524.027-1.476.027-.649 0-1.094-.027-1.396-.027-.053.064-.053.364-.018.425.187.026.338.044.543.106.152.045.222.168.231.354.019.353.019.653.019 1.607 0 .433 0 1.749-.019 1.96-.027.337-.079.408-.338.46a.52.52 0 01-.197-.004c-.2-.055-.279-.133-.478-.331-.391-.389-1.17-1.389-1.36-1.75-.014-.026-.016-.057.008-.07.596-.256 1.042-.645 1.042-1.342 0-.779-.642-1.415-1.78-1.415-.302 0-.835.027-1.751.027-.357 0-1.112-.027-1.334-.027-.062.036-.1.346-.036.425.196.035.4.072.507.106.16.036.231.141.248.335.019.319.019.936.019 1.803 0 .548-.01 1.546-.027 1.828-.009.239-.07.363-.267.407a6.175 6.175 0 01-.462.078c-.071.045-.036.39.008.425.259 0 .73-.027 1.441-.027.739 0 1.236.027 1.387.027.063 0 .081-.415.026-.425-.24-.035-.329-.044-.532-.105-.17-.053-.223-.186-.232-.38-.01-.282-.017-.689-.017-1.228 0-.017.026-.062.044-.062.027 0 .17 0 .258.01.124.008.187.027.258.132.293.46.613 1.007.987 1.466.053.089.219.27.471.399.442.223 1.335.217 1.833.181.236-.007.538-.015.985-.015.782 0 1.174.018 1.45.027.063-.044.108-.353.071-.425-.204-.035-.488-.078-.596-.114m19.827-.009c-.23-.061-.294-.256-.302-.468a60.97 60.97 0 01-.115-3.419c0-.193.026-.353.23-.424.125-.044.338-.07.596-.122.063-.045.045-.407 0-.425-.444 0-.836.026-2.134.026-.017.169-.088.354-.169.557a42.54 42.54 0 01-1.227 2.579c-.018.018-.044.027-.07 0a63.855 63.855 0 01-1.21-2.525 2.008 2.008 0 01-.196-.61c-.666 0-1.627-.027-2.312-.027-.027.026-.062.37-.035.425.293.052.551.105.71.158.18.071.233.256.223.406-.026.636-.213 2.686-.293 3.366-.036.327-.133.468-.391.538-.091.028-.248.05-.394.071a.962.962 0 01-.258 0c-.257-.044-.402-.068-.512-.115-.16-.07-.187-.247-.196-.406-.017-.398-.017-1.113-.017-1.714 0-.733-.01-1.166.008-1.74.01-.283.036-.397.205-.46.098-.052.302-.088.49-.104.061-.063.061-.363 0-.425-.33 0-.588.026-1.37.026-.73 0-.961-.026-1.414-.026-.063.045-.071.38-.018.425.284.035.454.052.578.113.124.045.15.204.16.318.01.504.01.964.01 1.396 0 .018-.037.044-.063.054-.089.017-.32.017-.96.017-.872 0-1.006 0-1.086-.017-.017-.019-.026-.026-.045-.07 0-.496 0-.938.01-1.31 0-.21.027-.343.205-.414a2.24 2.24 0 01.462-.087c.054-.045.054-.372.008-.425-.195 0-.648.026-1.404.026-.845 0-1.13-.026-1.36-.026-.045.036-.063.39-.019.425.16.016.338.043.516.096.187.053.213.16.222.442.01.265.01.777.01 1.652 0 .795 0 1.616-.01 1.749-.017.309-.08.46-.32.52-.132.036-.24.063-.444.098-.062.062-.036.38 0 .424.151 0 .605-.027 1.343-.027.95 0 1.377.027 1.538.027.053-.044.098-.354.044-.424a4.168 4.168 0 01-.56-.124c-.204-.07-.23-.23-.23-.441-.01-.318-.01-.777-.01-1.343 0-.008.01-.044.018-.053.036-.018.124-.027 1.076-.027.4 0 .844 0 1.013.009.027 0 .045.036.045.054 0 .574.008 1.042-.009 1.465-.01.195-.07.319-.205.363a2.891 2.891 0 01-.507.097c-.062.07-.052.37.01.424.178 0 .649-.027 1.405-.027.791 0 1.236.027 1.44.027h.08c.337 0 .746-.027 1.102-.027.738 0 1.2.027 1.414.027.053-.054.08-.38.026-.424a4.116 4.116 0 01-.614-.124c-.284-.088-.311-.22-.311-.476 0-.62.054-1.855.116-2.774.009-.018.053-.027.062-.018.561 1.263 1.298 2.968 1.539 3.71.035.018.435.027.47 0 .259-.68 1.264-2.862 1.654-3.764.01-.008.036-.008.045 0-.018 1.044 0 2.165-.018 2.88-.008.336-.053.407-.196.46-.123.044-.284.061-.506.106-.036.062-.044.37 0 .424.489 0 .853-.027 1.352-.027.862 0 1.307.027 1.627.027.062-.054.08-.354.035-.424a8.082 8.082 0 01-.587-.124"/><path fill="#000" d="M48.683 66.603a.97.97 0 01-.641.238c-.364 0-.613-.122-.862-.317-.605-.512-.827-1.502-.827-2.253 0-.813.15-1.555.65-1.89.168-.124.408-.177.63-.177.338 0 .56.097.81.3.533.45.773 1.334.773 2.262 0 .759-.125 1.467-.533 1.837m-.774-4.902c-.828 0-1.512.247-2.019.6-.835.592-1.075 1.502-1.075 2.235 0 .68.187 1.457.756 2.031.488.487 1.138.805 2.222.805.89 0 1.787-.345 2.41-1.122.374-.487.55-1.14.55-1.802 0-1.467-.977-2.747-2.844-2.747"/><path fill="#000" d="M61.086 66.25c-.295.362-.587.52-1.005.52-.16 0-.533-.061-.694-.22a.539.539 0 01-.151-.291c-.027-.257-.019-.857-.019-1.697 0-.794 0-1.828.009-2.128 0-.018.037-.088.071-.097a.969.969 0 01.267-.036c.365 0 .82.079 1.138.318.58.406.88 1.15.88 1.908 0 .865-.203 1.343-.496 1.723m1.004-3.86c-.489-.39-1.112-.558-1.93-.558-.711 0-.897.019-1.654.027-.257 0-1.186-.027-1.382-.027-.213 0-.511.027-1.16.027-.676 0-1.076-.027-1.271-.027-.028.019-.044.39 0 .425.203.026.373.053.578.097.302.062.39.22.41.513.042.68.042 1.368.052 2.498-.017 0-.036.01-.053.01-.551-.609-1.725-2.085-2.473-3.003-.186-.23-.284-.372-.355-.53-.178.009-.516.017-.809.017-.695 0-1.04-.027-1.343-.027-.027.036-.036.398 0 .442.266.027.453.089.613.15.231.08.303.345.303.54 0 .935-.027 2.72-.08 3.207-.018.238-.098.432-.302.512a3.08 3.08 0 01-.56.132c-.028.035-.045.37 0 .424.38 0 .898-.027 1.27-.027.41 0 .829.027 1.237.027.053-.08.062-.38.017-.424-.248-.045-.41-.071-.56-.106-.24-.061-.391-.203-.408-.601a74.7 74.7 0 01-.028-2.773c0-.01.019-.045.054-.01.79.972 2.41 3.102 3.086 3.967.132-.019.845-.035.987-.01a53.072 53.072 0 01-.017-1.253c-.01-1.166.017-2.439.07-3.136.044-.442.177-.485.418-.556.046-.014.113-.025.15-.034.079-.018.275-.015.362.002.092.02.203.036.253.05.238.07.257.176.284.423.016.415.007.83.007 1.802 0 .698-.007 1.572-.016 1.73-.018.24-.124.373-.339.417-.194.035-.284.062-.523.088-.055.009-.055.336 0 .424h.416c.8.009 1.619.034 2.109.034.925 0 1.795-.14 2.524-.714.552-.432.996-1.122.996-2.174 0-.821-.355-1.536-.933-1.996"/><path fill="#7E5300" d="M48.307 13.625a.868.868 0 00-.027-.077 3.638 3.638 0 00-.107-.004.703.703 0 01-.506.819c-.382.111-.78-.093-.887-.458l-.004-.018a1.006 1.006 0 00-.192.241.899.899 0 001.723-.503m-9.092.237c-.089.466-.554.774-1.046.689-.494-.086-.83-.538-.748-1.012.004-.021.01-.042.015-.062a4.343 4.343 0 00-.314.023 1.13 1.13 0 00.876 1.487 1.135 1.135 0 001.328-1.05 2.266 2.266 0 00-.11-.075"/><path d="M0 0h80v80H0z"/></g></svg>