<svg width="200" height="200" fill="none" xmlns="http://www.w3.org/2000/svg"><path d="M96.054 169.307a216.46 216.46 0 01-15.928-13.528c-2.896.188-5.777.419-8.566.689l-1.165.114-.961-.668c-5.712-3.969-11.156-8.915-16.644-15.123l-1.723-1.95 7.528-7.098c-6.843-9.234-12.528-18.953-16.9-28.893-3.86-8.772-6.731-17.778-8.538-26.77a123.656 123.656 0 01-2.277-18.17c-.239-4.85-.175-9.653.187-14.276.633-8.032 1.967-12.893 2.117-13.42l1.338-4.696H165.48l1.337 4.696c.151.53 1.484 5.388 2.117 13.42.365 4.623.427 9.426.187 14.275a123.271 123.271 0 01-2.279 18.17c-1.806 8.99-4.677 17.999-8.537 26.771-4.372 9.942-10.059 19.661-16.9 28.893l7.528 7.098-1.725 1.95c-5.486 6.208-10.93 11.154-16.642 15.123l-.961.668-1.166-.114c-2.788-.27-5.669-.501-8.566-.689a215.875 215.875 0 01-15.927 13.528L100 172.348l-3.947-3.041z" fill="#000"/><path d="M165.257 25.813l.598 2.102.678 2.38c.148.526 1.476 5.356 2.107 13.362.363 4.61.427 9.402.187 14.237a123.265 123.265 0 01-2.273 18.128c-1.802 8.971-4.668 17.958-8.518 26.709-4.401 10.006-10.123 19.768-17.023 29.048l7.51 7.082-1.534 1.737c-5.471 6.19-10.897 11.12-16.59 15.076l-.872.606-1.057-.102c-2.839-.274-5.761-.51-8.703-.699a215.945 215.945 0 01-15.999 13.597l-2 1.542-1.765 1.36-1.766-1.36-2-1.542a215.466 215.466 0 01-15.999-13.597c-2.943.189-5.864.423-8.703.699l-1.057.102-.872-.606c-5.693-3.956-11.12-8.886-16.59-15.076l-1.534-1.737 7.51-7.082c-6.9-9.28-12.622-19.042-17.023-29.048-3.85-8.753-6.718-17.74-8.518-26.709a123.32 123.32 0 01-2.273-18.128c-.24-4.835-.176-9.627.187-14.237.63-8.006 1.957-12.836 2.107-13.361l.677-2.381.599-2.102H165.26m.442-.59H34.298l-.122.428-.598 2.102-.677 2.38c-.15.532-1.492 5.414-2.127 13.478a112.625 112.625 0 00-.189 14.312 123.938 123.938 0 002.283 18.215c1.81 9.011 4.69 18.039 8.556 26.83 4.35 9.886 9.992 19.552 16.779 28.741l-7.128 6.721-.417.392.378.429 1.534 1.736c5.502 6.226 10.963 11.189 16.696 15.172l.872.606.178.123.216-.021 1.057-.102c2.746-.267 5.581-.494 8.43-.682a216.663 216.663 0 0015.854 13.458l1.999 1.542 1.766 1.36.36.278.362-.278 1.765-1.36 2-1.542a216.462 216.462 0 0015.856-13.458c2.848.186 5.683.415 8.429.682l1.057.102.216.021.178-.123.872-.606c5.733-3.983 11.194-8.945 16.696-15.172l1.534-1.736.378-.429-.417-.392-7.128-6.721c6.785-9.187 12.429-18.853 16.779-28.741 3.867-8.791 6.746-17.819 8.556-26.83a123.602 123.602 0 002.283-18.215 112.44 112.44 0 00-.189-14.312c-.635-8.064-1.976-12.946-2.127-13.477l-.677-2.381-.598-2.102-.122-.428h.002z" fill="#fff"/><path d="M100.001 173l-4.26-3.284a217.208 217.208 0 01-15.803-13.406c-2.812.183-5.614.411-8.327.674l-1.354.131-1.118-.776c-5.746-3.993-11.22-8.967-16.734-15.206l-2.055-2.325 7.558-7.127c-6.742-9.152-12.355-18.781-16.686-28.625-3.875-8.807-6.757-17.85-8.571-26.877a123.823 123.823 0 01-2.287-18.247c-.241-4.87-.178-9.697.19-14.341.636-8.084 1.983-12.99 2.133-13.52L34.131 25H165.87l1.442 5.071c.151.533 1.499 5.434 2.135 13.52.367 4.645.43 9.469.188 14.341a124.174 124.174 0 01-2.285 18.247c-1.814 9.028-4.698 18.07-8.573 26.877-4.33 9.842-9.943 19.473-16.685 28.625l7.558 7.127-2.056 2.325c-5.513 6.239-10.986 11.212-16.733 15.206l-1.118.776-1.354-.131a264.947 264.947 0 00-8.327-.674 216.513 216.513 0 01-15.802 13.406L99.999 173h.002zM80.1 155.855l.07.065a215.91 215.91 0 0015.838 13.444L100 172.44l3.991-3.076a216.708 216.708 0 0015.839-13.444l.07-.065.096.005c2.848.186 5.687.415 8.437.682l1.192.115.983-.683c5.718-3.973 11.167-8.923 16.657-15.134l1.771-2.005-7.532-7.102.115-.158c6.775-9.174 12.412-18.83 16.754-28.698 3.861-8.778 6.734-17.79 8.543-26.786a123.695 123.695 0 002.28-18.182c.239-4.853.175-9.658-.188-14.284-.633-8.042-1.97-12.905-2.118-13.434l-1.353-4.75H34.466l-1.352 4.75c-.15.529-1.486 5.393-2.119 13.434a111.824 111.824 0 00-.187 14.284 123.747 123.747 0 002.279 18.182c1.806 8.996 4.681 18.008 8.542 26.786 4.342 9.868 9.979 19.524 16.754 28.698l.116.158-7.532 7.102 1.772 2.005c5.49 6.211 10.937 11.163 16.655 15.134l.984.683 1.193-.115c2.748-.267 5.586-.496 8.436-.682l.097-.005H80.1zm19.901 16.4l-3.902-3.006a215.807 215.807 0 01-15.945-13.545c-2.904.187-5.797.421-8.6.691l-1.14.11-.939-.652c-5.708-3.966-11.148-8.91-16.63-15.112l-1.677-1.897 7.524-7.093c-6.856-9.243-12.553-18.977-16.931-28.932-3.858-8.767-6.727-17.769-8.533-26.755a123.427 123.427 0 01-2.277-18.16c-.24-4.846-.176-9.647.187-14.267.633-8.026 1.964-12.879 2.115-13.406l1.322-4.642h130.847l1.321 4.642c.15.527 1.483 5.382 2.116 13.406.364 4.62.426 9.419.187 14.266a123.407 123.407 0 01-2.277 18.16c-1.804 8.987-4.676 17.99-8.533 26.756-4.381 9.955-10.075 19.689-16.931 28.932l7.524 7.093-1.677 1.897c-5.483 6.202-10.922 11.146-16.631 15.112l-.94.652-1.138-.11a267.56 267.56 0 00-8.6-.691 215.948 215.948 0 01-15.946 13.545l-3.902 3.006h.006zm-19.683-17.006l.07.065a215.922 215.922 0 0015.981 13.582l3.63 2.798 3.63-2.798a215.784 215.784 0 0015.982-13.582l.069-.065.097.006c2.941.189 5.87.424 8.711.698l.976.095.805-.56c5.679-3.944 11.092-8.865 16.551-15.042l1.393-1.577-7.499-7.068.117-.158c6.889-9.265 12.609-19.023 17-29.006 3.844-8.737 6.705-17.708 8.504-26.664a123.056 123.056 0 002.269-18.095c.239-4.828.176-9.608-.187-14.208-.629-7.98-1.952-12.796-2.101-13.319l-1.23-4.32H34.912l-1.23 4.32c-.15.523-1.471 5.336-2.1 13.319a111.71 111.71 0 00-.188 14.208 122.841 122.841 0 002.27 18.095c1.798 8.956 4.66 17.927 8.504 26.664 4.392 9.983 10.11 19.741 16.999 29.006l.117.158-7.498 7.068 1.393 1.577c5.457 6.175 10.872 11.096 16.55 15.042l.805.56.977-.095c2.84-.276 5.77-.509 8.71-.698l.097-.006z" fill="#fff"/><path d="M56.252 139.123c2.16-1.557 6.495-5.237 11.188-10.746 4.647-5.452 11.05-14.334 16.808-27.072l-14.067 50.103-13.929-12.285z" fill="#ED1B2E"/><path d="M82.42 106.179l-12.474 44.428-12.989-11.457c1.793-1.349 5.896-4.704 10.822-10.488 4.072-4.778 9.487-12.178 14.64-22.483zm4.17-11.573c-6.295 16.075-13.944 26.978-19.486 33.483-5.073 5.953-9.637 9.689-11.567 10.994l14.88 13.122 16.173-57.6z" fill="#fff"/><path d="M85.339 98.259L70.3 151.814l-14.41-12.711c2.055-1.44 6.484-5.129 11.38-10.874 3.891-4.567 7.529-9.745 10.813-15.391 2.656-4.564 5.083-9.444 7.256-14.581m2.91-8.757c-12.738 36.454-33.067 49.559-33.067 49.559l15.35 13.538L88.25 89.5z" fill="#fff"/><path d="M115.752 101.305c5.759 12.738 12.161 21.62 16.808 27.072 4.693 5.507 9.029 9.189 11.188 10.746l-13.928 12.285-14.068-50.103z" fill="#000"/><path d="M117.582 106.179c5.154 10.305 10.569 17.705 14.64 22.483 4.929 5.784 9.029 9.139 10.822 10.488l-12.989 11.457-12.473-44.428zm-4.17-11.573l16.172 57.599 14.88-13.122c-1.927-1.305-6.493-5.041-11.566-10.994-5.542-6.503-13.192-17.406-19.486-33.483z" fill="#fff"/><path d="M114.664 98.259c2.173 5.137 4.601 10.015 7.256 14.581 3.284 5.644 6.922 10.823 10.814 15.391 4.896 5.745 9.324 9.434 11.379 10.874l-14.41 12.711-15.039-53.555m-2.91-8.761l17.717 63.097 15.351-13.538s-20.33-13.107-33.068-49.559z" fill="#fff"/><path d="M160.598 32.361H39.402S19.452 102.487 100 164.565c80.55-62.078 60.598-132.204 60.598-132.204z" fill="#fff"/><path d="M100 168.704l-1.999-1.542c-42.41-32.685-56.972-67.708-61.717-91.331-5.178-25.773-.245-43.617-.033-44.364l.677-2.38h126.144l.677 2.38c.212.747 5.145 18.59-.033 44.364-4.745 23.623-19.304 58.646-61.717 91.331L100 168.704zM42.015 35.639c-.394 1.982-.913 5.143-1.231 9.24-.52 6.69-.595 17.33 1.997 30.024 4.504 22.056 18.112 54.641 57.219 85.509 39.107-30.868 52.715-63.453 57.219-85.51 2.592-12.693 2.516-23.331 1.997-30.023-.316-4.097-.835-7.256-1.231-9.24H42.015z" fill="#fff"/><path d="M160.598 32.361H39.402S19.452 102.487 100 164.565c80.55-62.078 60.598-132.204 60.598-132.204z" fill="#fff"/><mask id="a" style="mask-type:luminance" maskUnits="userSpaceOnUse" x="37" y="32" width="126" height="133"><path d="M160.599 32.361H39.402s-19.95 70.126 60.599 132.204c80.55-62.078 60.598-132.204 60.598-132.204z" fill="#fff"/></mask><g mask="url(#a)"><path d="M193.998 74.928h-80.867V-16.23h-26.26v91.158H6.005v26.259h80.868v91.159h26.259v-91.159h80.867V74.928z" fill="#000"/></g><path d="M162.63 58.387c.835-15.922-2.032-26.026-2.032-26.026H39.401s-2.868 10.102-2.034 26.026H162.63z" fill="#ED1B2E"/><path d="M55.182 139.059c4.733 5.356 10.057 10.437 16.072 14.615 19.087-1.632 38.407-1.849 57.494 0 6.013-4.178 11.339-9.259 16.072-14.615H55.182z" fill="#fff"/><path d="M71.254 153.674c19.087-1.632 38.407-1.849 57.494 0H71.254z" fill="#000"/><path d="M44.926 47.218h3.76c0 1.026 1.722 1.678 4.02 1.678 1.793 0 3.038-.341 3.038-.963 0-1.696-10.602-.407-10.602-5.233 0-2.723 3.514-4.108 7.275-4.108 4.28 0 6.796 2.038 6.796 4.76h-3.76c0-.847-1.504-1.37-3.501-1.37-1.735 0-2.935.294-2.935.847 0 1.517 10.601.114 10.601 5.023 0 2.642-3.137 4.306-7.056 4.306-4.483 0-7.636-2.12-7.636-4.94zm55.84-8.366h3.732v13.044h-3.732V38.852zM70.205 49.594h-3.732v2.302h3.732v-2.302zm60.615-10.758l-4.801.015h-3.037v13.045h7.694c3.876 0 6.769-2.788 6.769-6.522 0-3.734-2.835-6.538-6.623-6.538h-.002zm-.144 9.359l-3.864-.03h-.808l.71-.215v-5.363c.232-.033 1.808-.048 3.674-.048 1.866 0 3.24 1.142 3.24 2.837 0 1.694-1.214 2.82-2.95 2.82l-.002-.001zm-39.795-3.668l6.61-5.675h-5.207l-5.048 4.386v-4.386h-3.73v13.044h3.73v-4.044l-.579.256 1.608-1.383.05.058 4.75 5.113h5.033l-7.217-7.37zm58.293-5.675h-5.351l-5.901 13.044h4.006l1.06-2.358-.51-.152h8.04l-.508.152 1.059 2.358h4.006l-5.901-13.044zm-4.527 6.995l1.851-4.109 1.851 4.109h-3.704.002zM61.7 38.852v3.539h5.808l-1.035.312v5.162h3.73v-5.162l-1.036-.312h5.808v-3.54H61.7zm51.618 9.503v.004h-1.816l.77-.234.031-9.28-3.732-.013-.042 13.045 11.684.038.012-3.537-6.907-.023z" fill="#fff"/><path d="M73.816 148.182h5.19v-1.304h-3.644v-.776h3.344v-1.25h-3.344v-.77h3.643v-1.303h-5.189v5.403zm9.238-3.754c0-.23.498-.351 1.215-.351.826 0 1.45.216 1.45.567h1.557c0-1.127-1.042-1.972-2.816-1.972-1.557 0-3.014.575-3.014 1.702 0 1.999 4.392 1.467 4.392 2.169 0 .257-.515.397-1.258.397-.953 0-1.665-.27-1.665-.696h-1.558c0 1.169 1.307 2.047 3.163 2.047 1.623 0 2.924-.689 2.924-1.783 0-2.034-4.392-1.453-4.392-2.08h.002zm27.948.986c.521-.181.886-.627.886-1.142 0-.913-1.014-1.602-2.36-1.602-1.347 0-2.36.683-2.36 1.594 0 .506.37.953.893 1.148-.569.257-.971.737-.971 1.229 0 .946 1.048 1.648 2.439 1.648 1.392 0 2.44-.702 2.44-1.648 0-.499-.396-.972-.965-1.229l-.002.002zm-1.474-1.513c.455 0 .802.203.802.467 0 .265-.347.452-.802.452-.456 0-.803-.195-.803-.46 0-.264.347-.459.803-.459zm0 3.161c-.504 0-.88-.224-.88-.521 0-.297.378-.513.88-.508.503.006.88.217.88.508 0 .291-.379.521-.88.521zm15.749-1.615c.498-.183.845-.649.845-1.175 0-.913-1.084-1.602-2.527-1.602-1.444 0-2.552.783-2.552 1.837h1.569c0-.332.425-.588.994-.588s.959.202.959.465c0 .297-.515.486-1.204.486v1.148c.726 0 1.264.195 1.264.521 0 .276-.407.492-.959.492-.592 0-1.054-.235-1.054-.548h-1.569c0 1.027 1.122 1.804 2.613 1.804 1.492 0 2.528-.756 2.528-1.763 0-.494-.372-.913-.905-1.081l-.002.004zm-35.781-1.203h2.406l-.43.129v3.809h1.546v-3.809l-.429-.129h2.407v-1.465h-5.5v1.465zm7.61 2.985h-1.545v.953h1.545v-.953zm4.755-3.707v1.688l1.227-.729.243-.145-.243.267v3.579h1.54v-5.403h-1.54l-1.227.743zm12.131.864h3.4l-.556.166-2.25 3.63h2.03l2.349-3.796v-1.607h-4.973v1.607zm15.853-5.327l.43-.006-1.893-.114-1.893-.085c-12.288-.556-25.538-.644-37.844-.461-5.82.11-13.13.303-18.92.66l.43.006h59.69z" fill="#000"/></svg>