<svg width="80" height="80" fill="none" xmlns="http://www.w3.org/2000/svg"><path d="M40.05 3.703a38.9 38.9 0 01-16.94 3.853c-10.167 0-17.378-3.853-17.378-3.853v18.58c.067 5.041.902 10.305 2.361 15.637 5.1 18.628 17.755 33.119 31.957 38.637 14.202-5.52 26.857-20.011 31.957-38.637 1.46-5.332 2.294-10.596 2.36-15.637V3.703s-7.21 3.853-17.378 3.853A38.87 38.87 0 0140.05 3.703zM71.083 8.57v10.428l-.105 3.241a53.765 53.765 0 01-.209 4.012H50.646c.366.304.578.612.703.798l.112.162.156.057c.53.184 1.175.456 2.519 1.473.348.265.652.529.92.793h15.348a61.138 61.138 0 01-2.059 9.218H58.35c.104.222.204.437.29.65.119.281.202.541.267.789h8.982a62.678 62.678 0 01-3.88 9.217H59.23c.196.192.384.472.515.915.361 1.237-.081 1.67-.654 2.074a2.81 2.81 0 00-.517.435c-.405.456-.796.834-1.468.834-.25 0-.541-.05-.878-.104a1.924 1.924 0 00-.321-.029c-.192 0-.367.03-.553.063-.198.035-.405.07-.635.07a2 2 0 01-.582-.083l-.148-.045-.13.087c-.619.419-1.381.717-2.269.888-1.13.218-1.71.815-2.325 1.447-.197.201-.387.399-.599.583l-.176.156.09.217c.495 1.184.006 1.79-.731 2.709l-.234.292c-.63.797-1.382.898-1.97.898-.138 0-.275-.006-.41-.012-.145-.005-.247-.01-.346-.01-.26 0-.426.03-.551.1-.202.11-.415.166-.632.166-.513 0-.931-.3-1.302-.566-.311-.224-.484-.336-.629-.361-1.224-.006-1.639-.654-1.781-1.198-.12-.452-.01-.925.333-1.444l.487-.738-.85.241a17.142 17.142 0 01-4.674.624c-2.012 0-3.962-.325-5.218-.867l-.251-.108-.152.226c-.489.725-1.278 1.148-1.909 1.435-.593.27-1.41.419-2.306.419-1.192 0-2.3-.257-3.045-.705-.534-.322-.863-.73-.98-1.215-.195-.797.271-1.551.446-1.837.126-.203.32-.424.523-.656.586-.667.897-1.09.863-1.427-.032-.325-.121-.635-.209-.933-.131-.453-.28-.964-.25-1.574.018-.388.113-.694.206-.964h-6.92a62.77 62.77 0 01-3.88-9.218h11.466c.218-.433.41-.978.496-1.439H11.752a61.507 61.507 0 01-2.059-9.218H27.32a9.243 9.243 0 00-.161-1.083c-.18-.873-.097-1.52-.042-1.945l.01-.072a3.48 3.48 0 00.02-.183H9.329a54.964 54.964 0 01-.21-4.011L9.016 19V8.57a45.44 45.44 0 0014.094 2.272 42.36 42.36 0 0016.939-3.526 42.127 42.127 0 0016.94 3.526 45.095 45.095 0 0014.091-2.27l.002-.002z" fill="#0058A9"/><path d="M74.096 3.193c-.086.045-7.226 3.784-17.105 3.784a38.342 38.342 0 01-16.69-3.796l-.251-.12-.25.12a38.336 38.336 0 01-16.691 3.796c-9.893 0-17.035-3.746-17.105-3.784l-.852-.455v19.546c.065 4.946.867 10.255 2.382 15.79 2.487 9.078 6.87 17.534 12.681 24.453 5.663 6.743 12.45 11.782 19.626 14.57l.21.083.209-.082c7.175-2.789 13.964-7.828 19.625-14.57 5.81-6.92 10.195-15.376 12.681-24.455 1.516-5.534 2.317-10.845 2.382-15.782V2.738l-.851.457v-.002h-.001zm.272 19.09c-.066 5.04-.901 10.304-2.36 15.636-5.101 18.628-17.756 33.119-31.958 38.637-14.202-5.52-26.856-20.01-31.956-38.636-1.46-5.333-2.295-10.597-2.361-15.638V3.702s7.21 3.853 17.378 3.853a38.9 38.9 0 0016.94-3.853 38.907 38.907 0 0016.938 3.853c10.169 0 17.379-3.853 17.379-3.853v18.58z" fill="#fff"/><path d="M13.924 16.755c.416-.074.735-.245.735-.662 0-.502-.416-.611-.71-.65a1.355 1.355 0 00-.453.012v1.287c.184.036.32.025.43.013h-.002zm27.443 3.101c.662-.124 1.36-.71 1.36-2.18 0-1.569-.748-2.095-1.41-2.17-.134-.01-.256 0-.38.014v4.36c.135.014.282.014.428-.024h.002zm8.687.27c.907 0 1.52-.98 1.52-2.365 0-1.384-.588-2.364-1.508-2.364s-1.521.931-1.521 2.364c0 1.434.6 2.365 1.508 2.365h.002zm-36.119-1.741c-.17-.011-.33 0-.44.025v1.532c.11.013.294.025.49.013.416-.036.771-.234.771-.771 0-.502-.356-.76-.821-.797v-.002z" fill="#fff"/><path d="M23.111 10.84A45.45 45.45 0 019.018 8.57v10.428l.104 3.241a54.86 54.86 0 00.21 4.011h17.817a1.51 1.51 0 01-.021.183l-.01.072c-.055.426-.138 1.07.042 1.945a9.92 9.92 0 01.2 1.658c.006.11.012.21.02.302l.008.07-.022.067c-.162.483-.158 1.01-.135 1.414l.01.194-.166.103c-.192.12-.378.272-.566.466-.477.49-.842 1.169-1.175 1.785-.179.33-.348.646-.502.857-.475.656-1.192 1.648-.65 2.644.059.167.05.434-.01.741a5.782 5.782 0 01-.496 1.44H12.21a62.678 62.678 0 003.88 9.217h6.921a3.285 3.285 0 00-.207.964c-.028.61.12 1.121.25 1.574.088.298.178.608.21.933.034.336-.278.76-.863 1.428-.204.231-.397.452-.523.655-.175.286-.639 1.04-.447 1.837.118.485.447.894.981 1.215.745.448 1.854.705 3.045.705.894 0 1.713-.148 2.306-.419.633-.288 1.42-.712 1.909-1.435l.152-.226.25.108c1.257.544 3.207.867 5.218.867 1.64 0 3.213-.21 4.675-.623l.85-.242-.487.737c-.342.52-.453.993-.333 1.445.142.546.557 1.194 1.781 1.198.144.025.318.135.63.361.37.266.788.566 1.301.566.219 0 .432-.055.631-.167.128-.07.293-.099.552-.099.098 0 .201.004.346.01.134.006.273.012.41.012.588 0 1.342-.103 1.97-.898l.234-.292c.737-.918 1.226-1.525.732-2.71l-.092-.216.177-.156c.211-.184.403-.382.599-.584.614-.63 1.194-1.23 2.325-1.446.886-.171 1.65-.47 2.27-.888l.129-.087.148.045c.19.057.38.084.582.084.23 0 .437-.035.634-.07.187-.033.362-.063.554-.063a1.9 1.9 0 01.32.028c.337.057.628.104.88.104.67 0 1.062-.378 1.467-.834.163-.184.34-.31.517-.435.57-.404 1.015-.839.654-2.074-.13-.443-.318-.72-.515-.915h4.779a62.77 62.77 0 003.88-9.217H58.91a6.029 6.029 0 00-.266-.79c-.09-.212-.187-.427-.291-.65-.095-.2-.198-.41-.304-.63-.609-1.24-1.236-2.523-1.192-3.776.055-1.543-.15-3.181-1.797-4.813a9.226 9.226 0 00-.92-.793c-1.344-1.017-1.988-1.288-2.518-1.473l-.156-.057-.112-.162a3.563 3.563 0 00-.704-.798h20.124c.116-1.342.192-2.682.21-4.011l.104-3.241V8.565a45.45 45.45 0 01-14.094 2.272 42.354 42.354 0 01-16.94-3.526 42.127 42.127 0 01-16.938 3.526l-.004.004zm9.228 2.56h2.61v6.432h2.745v1.96c-.493.027-.972.076-1.432.154-.002 0-.11.014-.274.03h-3.65V13.4zm-18.894 8.662c-1.003 0-1.69-.036-2.536-.085v-8.578a57.37 57.37 0 012.635-.06c3.002 0 3.602 1.273 3.602 2.254 0 .796-.391 1.445-1.138 1.777.808.22 1.532.907 1.532 2.095 0 1.74-1.532 2.597-4.093 2.597h-.002zm11.97-3.467c0 2.425-1.665 3.638-3.541 3.638-1.69 0-3.639-.992-3.639-3.566V13.4h2.61v5.354c0 .723.417 1.14.981 1.14.564 0 .979-.43.979-1.153V13.4h2.61v5.195zm.932-5.195h2.61v6.432h2.745v2.069l-.09-.04c-.262-.122-.88-.253-1.507-.253-.628 0-1.156.127-1.576.369h-2.183V13.4zm24.687 14.059c.348.456.565-.02 2.804 1.675 2.24 1.695 2.588 3.347 2.523 5.195-.065 1.847 1.175 3.696 1.827 5.262.652 1.564.326 2.479.043 3.174-.283.696-.369 1.348-.76 1.783-.392.436-.913.87-.717 1.304.196.436.367.554.717 1.936.456 2.175 1.391 1.26 1.804 2.675.412 1.412-.369 1.26-1.065 2.043-.695.783-.891.74-1.935.565-.95-.158-1.433.384-2.35-.11-.368.315-1.125.815-2.425 1.068-1.979.381-2.511 1.83-3.66 2.52.87 1.435.37 1.827-.608 3.067-.977 1.24-2.26.368-3.13.848-.871.479-1.588-.827-2.37-.827-.784 0-1.132-.327-1.261-.827-.13-.5.173-1.044.804-1.696.583-.604 1.055-1.003 1.07-1.592-2.14 1.167-4.735 1.602-7.054 1.602-2.32 0-4.543-.475-5.524-1.086a9.553 9.553 0 01-.198-.125c-.27 1.015-1.165 1.555-2.011 1.94-1.24.565-3.63.5-4.891-.26-1.26-.76-.717-1.804-.369-2.37.348-.566 1.544-1.523 1.456-2.391-.088-.87-.5-1.523-.456-2.435.043-.913.63-1.392.26-2.108-.37-.717-.52-1.456-.5-1.936.02-.479-.196-1.479-.283-2.63-.088-1.152.391-1.98.979-2.719.587-.74 1.216-2.587.848-3.262-.37-.675.172-1.456.63-2.087.46-.631.936-1.87 1.632-2.587.696-.717.912-.348.869-.98-.044-.63-.021-1.151.173-1.564-.088-.216 0-.912-.26-2.174-.261-1.263.087-2-.022-2.327-.108-.327-.24-.5 0-1.108.24-.609-.087-1.196.74-2.175.827-.98 2.718-.587 3.044-.435.325.151.716.348 1.174.24.458-.11 1.456 0 2.152 0 .696 0 1.588-.11 1.588-.11 2.718-.456 4.522.153 6.305-.151 1.783-.304 3.152.52 3.587 1.195.436.675.304 1.109-.02 1.304-.325.196-.956.609-.87 1.284 4.567-.913 5.37.935 5.719 1.391l-.008.002v-.001zm13.883-8.803c-.893-.306-1.777-1.103-1.777-2.585 0-2.046 1.703-2.793 3.198-2.793.992 0 1.752.33 2.266.626l-.32 2.023c-.49-.282-1.078-.502-1.642-.502-.49 0-.846.17-.846.55 0 .516.675.466 1.422.687.907.27 1.973.943 1.973 2.524 0 1.974-1.667 2.928-3.343 2.928-1.067 0-2.021-.392-2.782-.846l.576-2.059c.612.417 1.337.76 2.01.747.54-.013.882-.256.882-.6 0-.516-.822-.43-1.618-.698l.002-.002zm-5.758-5.477c.956 0 1.776.32 2.376.662l-.771 2.045a1.842 1.842 0 00-1.41-.612c-1.113.025-1.972 1.028-1.972 2.462 0 1.433.882 2.353 1.91 2.353.43 0 .747-.146.968-.295v-.882h-1.312v-1.948l3.382.013v4.165c-.736.526-1.715 1.089-3.137 1.089-2.524 0-4.423-1.814-4.423-4.46s1.996-4.594 4.385-4.594l.004.002zm-9.103.05c2.205 0 4.128 1.714 4.128 4.52 0 2.806-1.75 4.558-4.104 4.558-2.353 0-4.153-1.764-4.153-4.533 0-2.77 1.874-4.546 4.129-4.546zm-9.214.134c2.866.036 4.495 1.434 4.495 4.35 0 2.292-1.102 3.699-3.482 4.157-.131.005-.266.011-.413.011-.404 0-.834-.024-1.286-.05-.49-.03-1.048-.064-1.648-.064-.06 0-.118.002-.177.004V13.4a49.43 49.43 0 012.511-.036z" fill="#fff"/><path d="M65.65 19.954c-.673.011-1.398-.331-2.01-.747l-.575 2.058c.76.453 1.714.846 2.78.846 1.68 0 3.344-.956 3.344-2.927 0-1.58-1.066-2.255-1.973-2.525-.747-.22-1.422-.17-1.422-.686 0-.38.356-.551.846-.551.563 0 1.152.22 1.642.502l.32-2.023a4.493 4.493 0 00-2.266-.626c-1.494 0-3.198.748-3.198 2.793 0 1.483.882 2.279 1.777 2.585.797.27 1.618.184 1.618.698 0 .342-.342.587-.882.6l-.002.002zm-6.455 2.28c1.42 0 2.4-.563 3.136-1.09V16.98l-3.381-.014v1.949h1.311v.882c-.22.146-.538.295-.967.295-1.029 0-1.91-.871-1.91-2.354 0-1.482.857-2.438 1.973-2.461a1.85 1.85 0 011.408.612l.772-2.046c-.6-.344-1.422-.661-2.376-.661-2.39 0-4.386 1.935-4.386 4.594 0 2.66 1.9 4.46 4.424 4.46l-.004-.002zM38.33 21.77c.06 0 .119-.004.177-.004.601 0 1.158.033 1.648.063a22.2 22.2 0 001.287.051c.147 0 .281-.004.413-.011 2.38-.458 3.482-1.865 3.482-4.157 0-2.916-1.63-4.314-4.496-4.35a54.594 54.594 0 00-2.51.036v8.372zm2.61-6.252c.122-.013.246-.025.38-.013.662.074 1.41.6 1.41 2.169 0 1.471-.698 2.059-1.36 2.18a1.327 1.327 0 01-.427.025v-4.36h-.002zM16.005 17.37c.747-.331 1.138-.981 1.138-1.778 0-.98-.6-2.254-3.602-2.254-.673 0-1.508.013-2.635.06v8.578c.846.05 1.532.085 2.536.085 2.56 0 4.093-.857 4.093-2.596 0-1.188-.722-1.875-1.532-2.095h.002zm-2.512-1.913c.122-.024.295-.036.453-.011.295.036.71.146.71.65 0 .416-.319.587-.735.662-.11.011-.245.024-.43-.014v-1.287h.002zm.49 4.496c-.195.012-.38 0-.49-.013v-1.532c.11-.025.27-.036.442-.025.465.036.82.295.82.797 0 .54-.355.735-.77.771v.002h-.001zm36.097 2.354c2.351 0 4.103-1.862 4.103-4.558 0-2.696-1.923-4.52-4.128-4.52-2.206 0-4.13 1.764-4.13 4.545 0 2.78 1.864 4.533 4.154 4.533zm-.014-6.91c.918 0 1.508.943 1.508 2.365 0 1.422-.612 2.365-1.519 2.365-.907 0-1.508-.968-1.508-2.365 0-1.397.601-2.365 1.521-2.365h-.002zM22.804 18.74c0 .722-.416 1.152-.979 1.152-.562 0-.98-.416-.98-1.139v-5.355h-2.61v5.268c0 2.572 1.948 3.566 3.638 3.566 1.874 0 3.541-1.213 3.541-3.638v-5.196h-2.61v5.342zm7.3 2.867c.627 0 1.243.129 1.507.253.03.015.06.026.09.04v-2.07h-2.745v-6.433h-2.61v8.578h2.182c.42-.242.953-.37 1.576-.37zm6.156.338c.46-.078.938-.127 1.43-.154v-1.96h-2.744v-6.433h-2.61v8.578h3.65l.274-.03z" fill="#0058A9"/><path d="M56.855 34.345c-.044 1.253.584 2.536 1.192 3.775.108.22.21.428.304.631h9.995a61.511 61.511 0 002.059-9.218H55.057c1.646 1.631 1.851 3.268 1.796 4.813l.002-.002zm-32.676 3.667c-.544-.996.174-1.989.65-2.645.154-.211.323-.525.502-.857.33-.616.697-1.293 1.174-1.785a2.86 2.86 0 01.567-.465l.165-.103-.01-.194c-.022-.405-.026-.932.135-1.415l.023-.066-.008-.07c-.01-.092-.013-.192-.02-.303a15.31 15.31 0 00-.038-.574H9.693a61.068 61.068 0 002.06 9.218h12.416c.058-.306.069-.574.01-.741z" fill="#E3173E"/><path d="M47.837 56.548l-.169-.298c.055.103.11.204.17.298zM34.802 46.135c1.504-.338 3.07-.28 4.465-.06-.095-.375.234-.756-.287-1.527-.357-.652-.905-.696-1.905-.283-1 .412-1.956.435-2.739.13-.783-.303-1.435-.651-3.391-1.37-1.956-.718-2.196.74-2.675 1.805-.48 1.064.02 1.674.217 2.978.059.388.108.913.169 1.511 1.264-1.602 3.03-2.478 6.144-3.184h.002zm15.714.611c.701-.637.604-.289 1.541-.295.937-.006.673-.513.673-.513-.869-1.37-.369-2.131-.804-2.652-.435-.521-.48-.869-.5-1.479-.02-.61-.369-.696-1.283-.044-.915.652-1.26.696-.979 2.652.104.726.032 1.572-.148 2.441.34.149 1.001.34 1.501-.112l-.002.002z" fill="#fff"/><path d="M45.316 26.066c-.087-.674.544-1.087.87-1.283.324-.196.456-.631.02-1.304-.435-.673-1.804-1.5-3.587-1.195-1.783.303-3.587-.304-6.306.152 0 0-.891.108-1.587.108s-1.696-.108-2.152 0c-.456.108-.848-.088-1.175-.24-.327-.152-2.218-.543-3.043.436-.826.978-.5 1.564-.74 2.174-.24.61-.108.784 0 1.109.108.325-.24 1.064.02 2.326.261 1.263.174 1.956.261 2.175-.195.413-.217.935-.173 1.565.044.629-.172.26-.868.979-.696.718-1.175 1.956-1.632 2.587-.456.63-1 1.412-.63 2.087.368.675-.261 2.522-.849 3.262-.587.74-1.064 1.564-.979 2.718.086 1.154.304 2.152.284 2.631-.021.48.13 1.217.5 1.935.368.719-.217 1.196-.26 2.108-.044.913.368 1.565.456 2.435.087.871-1.109 1.827-1.456 2.392-.348.564-.892 1.608.368 2.37 1.26.76 3.652.827 4.892.26.846-.386 1.743-.925 2.01-1.94a10.796 10.796 0 01-.497-.342c-.046.235-.11.346-.217.41l.012-.007s-.47.144-.498-.184c-.027-.33-.297-.787-.405-.597-.109.188.517.948-.025 1.418a.858.858 0 01-.38.157c-.468.091-.726.065-.948-.017 0 0-.533-.317-.56-.722-.026-.405-.298-.215-.31 0-.012.214-.044 1.161-.7 1.102a11.027 11.027 0 01-.352-.015 1.316 1.316 0 01-.563-.15c-.005-.004-.633-.32-.365-.776.27-.458.272-.646-.066-.54-.232.074-.137.569-.401.81a.844.844 0 00-.126-.019c-.608-.044-.631-.48-.348-.956.283-.48 1-1.304 1.392-1.608.391-.304.369-.413.26-.76-.108-.349.021-.828-.195-1.805-.217-.978.02-1.478.108-1.718s.196-.587 0-.935c-.196-.348-.196-.87-.652-2.783-.456-1.912-.173-3.391.652-4.587.827-1.196.956-2.283 1.131-2.783.173-.5.327-1.13.044-1.478-.283-.348-.609-.132.087-1.456.696-1.327 1.175-1.436 1.48-1.913.303-.48.543-.827.76-.695.216.13.172.26-.217.848-.392.587-.283 1.303-.392 1.912-.108.608.348 1.24.848 1.412.5.175.848.565 1.26 1.217.413.652 1.023.869 1.805.76.783-.108 1.783.088 2.478.24.696.152 1.196.196 1.675.173.48-.02.913.02 1.892.175.979.152 1.956.02 2.391.26.435.24.935-.369 1.456-.378.52-.01 1.175-.339 1.456-.6.15-.138.314-.301.422-.442a1.77 1.77 0 00.388-.81s.256-1.167.743-1.336c.749-.26.709-2.234.709-2.234s.006-.12-.11-.123c-.116-.005-.116.123-.116.123s-.03 1.823-.65 2.05c-.272.098-.458.37-.574.608-.046-.3-.116-.561-.137-.734-.061-.485.302-.834.253-1.025-.05-.188-.03-.243-.253 0s-.397 1.24-.17 1.886c.229.646-.307 1.448-.307 1.448-.109.196-.675.652-1.284.784-.608.13-.608.043-1.283.326-.675.284-.456-.283-.869-.479-.412-.196-.63-.327-.652-.76a1.869 1.869 0 00-.178-.68c.292.105.614.123.762.145.202.029 1.011-.028.99-.205-.019-.177-.357-.091-.357-.091-1.005.285-1.536-.171-1.722-.39-.027-.036-.051-.07-.08-.106-.348-.435-.021-1.023-.217-1.565-.196-.543-.608-1.522-1.24-1.718-.63-.196-.564-.717-1.043-.827-.48-.108-.283-.717-.392-1.108a1.896 1.896 0 01-.042-.211v-.004c-.043-.213-.253-.207-.253-.207-.564.007-.743-.278-.786-.525-.054-.297-.097-.964.323-.782.31.135-.109.647.243.89s.464-.241.464-.241c.02-.204.051-.415.1-.622.153-.637-.63-.559-1.608-.646-.977-.088-.674-.76.565-.784 1.24-.02 1.652.74 1.847 1.101.196.361.413.487.37.057-.044-.43-.588-.982-1.088-1.31-.5-.326-.456-.674-.327-.978.131-.304-.108-.827.044-1.108.152-.282.283-.521.152-.5-.131.02-.392.326-.5.891-.109.564-.979.304-.827.652.044.152-.196.369-.912.608-.717.24-1.044-.152-.956-1.174.087-1.023-.717-1.044-.717-1.044s.456.152.283.956c-.173.804-1.217.696-1.283.5-.065-.195-.521-.24-.521-.24s.217.065.24.349c.022.283-.327.412-.848.868-.521.457-1.132.457-1.284-.175-.152-.63.848-2.456 1.632-3.37.783-.912 1.391-.76 1.5-1.087.108-.327-.565-.587-1.132-.616-.564-.029-.978-.124-.368-.276.608-.152 1.24-.02 1.652.152.412.173 1 .348 2.5.196 1.499-.152 1.174.587 2.195.108 1.023-.479 2.827-.456 2.827-.456.78-.029 1.731.157 2.144.437.413.28.854.059 1.382-.264.53-.323 1.015-.31 1.486-.24.472.07.53.416.854.445.323.028.456.146.825.471.369.324.751.736.59.87-.162.133-.28-.03-.913-.662-.633-.633-1.25-.53-1.692-.074-.441.456-.72.192-1.059.338-.338.146-.177.559.177.456.354-.102.648.016.794.53.147.516.442.619.5 1.208.06.59.28.603.56.869.279.264.176.485.146 1-.029.515.294.825.471.766.177-.059.205-.264.485.059s.5 1.074.72 1.84c.22.766.457.927.37 1.294-.088.369-.162.839-.075 1.163.088.324.22 1-.205 1.546-.428.544-.472.103-.31-.648.162-.751-.177-1.118-.162-1.561.016-.441.016-.928-.161-.913-.177.015-.044.516-.177.825-.133.31.044.398.146.677.103.28.088 1.354-.074 1.59-.161.235-.146.574-.31.81-.163.235-.28.264-.118.353.162.088.28-.028.398-.295.118-.264.31-.294.471-.102.162.192.397-.22.825-1.06.428-.838.295-1.796.134-2.089-.162-.294-.074-.956-.192-1.927-.118-.971-.603-1.678-.87-1.781-.264-.103-.543-.56-.735-1.015-.192-.457.133-.795.59-.81.455-.016.617-.324 1.84-.354a3.89 3.89 0 012.693.956c.574.5.441.603 1.325.956.884.353 2.427 1.207 3.311 2.486.884 1.282.339 2.369.442 2.884.102.515.146 1.34.368 1.854.22.515.472.825.736 1.663.264.838.456.94 1 2.296.544 1.354.485 2.002.515 2.899.029.897-.338.825-.633 1.412-.295.59-.72 1.354-1.046 1.648-.323.295-.31.472-.028.485.28.015.472.265.574.81.103.544.382 1.605.662 2.178.28.575.676.826 1.117 1.177.441.354.559 1.074.133 1.428a.853.853 0 01-.41.179c-.5-.07-.626-.694-.867-.835-.243-.14-.243.086 0 .331.243.245.129.84.129.84-.167.445-.597.365-.979.18a.269.269 0 00-.066-.032 1.577 1.577 0 01-.084-.045c-.334-.23-.443-.968-.591-.943-.162.029-.135.08-.154.62a.596.596 0 01-.236.471c-.019.016-.04.029-.06.042a.881.881 0 01-.188.084c-.569.154-1.282-.395-1.584-.698-.354-.353-.044-1.294.162-2.811.205-1.516-.826-3.517-1.046-3.827-.22-.31-.205-.574-.059-.648.147-.075.295-.044.441.146.147.192.265.235.37.161.104-.073.146-.28-.147-.5-.295-.22-.53-.765-.941-1.25-.412-.485-.177-1.413-.22-1.81-.044-.397.043-.897-.442-.986-.484-.088-.884.456-1.207.783-.323.327-1.26.988-1.424 1.247-.163.26-.253.179-.289.008-.038-.172-.222-.609-.348-.943-.125-.335-.214-.335-.334-.207-.118.125-.082.112.192.8.787 2.374.361 3.998-.051 5.91-.413 1.912-1.587 3.391-1.74 5.522-.151 2.131 1.132 3.48 1.24 4.066.086.459-.081.597-.293.617h-.032c-.376.022-.283-.387-.432-.44-.148-.053-.095.135 0 .35.046.106.067.215.076.3a1.6 1.6 0 01.008.15c0 .283-.52.675-1.217.913-.695.24-.848.043-1-.24 0 0-.129-.262-.156-.45-.027-.188-.081-.162-.148-.109-.067.053-.038.45-.133.643l-.002.01c-.065.106-.253.16-1.105.233-.437.038-.673-.019-.81-.108 0 0-.308-.224-.093-.63.215-.404.01-.43-.076-.349-.068.065-.13.48-.403.587-.033.01-.063.02-.093.023a.478.478 0 01-.16-.013 1.13 1.13 0 01-.278-.14c-.435-.284.044-.957.652-1.658.609-.702 1.044-.755.892-2.257-.152-1.5.74-3.914 1.108-5.13.37-1.217.37-1.413 0-2.871-.368-1.456-1.152-2.348-1.87-2.87-.717-.521-.804-.784-.804-1.196 0-.413.088-.5-.217-.544-.304-.043-.369-.108-.74-.369-.368-.26-.326-.13-.347.304-.022.436-.327.457-.74.392-.412-.065-1.196-.087-1.608-.065-.413.021-.936.26-1.304.131-.37-.13-.24.217-.696.217-.456 0-.435-.195-.587-.391-.152-.196-.217-.152-.196-.021.021.131.152.369-.412.392-.565.02-1.131 0-1.648-.284-.519-.283-.764-.26-1.156-.087-.391.175-.695.043-1.26-.065-.565-.108-.783 0-1.109.087-.326.088-.52.109-1.24-.172-.716-.283-.868-.021-.847.26.02.283-.021.544-.173.956-.152.413-.044.76-.152 1.327-.108.564.131.52.173.348.043-.173.195-.26.24-.565.043-.303.043-.826.479-1.24.435-.411.868-.107.695.153-.175.26-.087.52-.456.956-.369.435-.348.979-.283 1.283.064.304.152 1.108.087 1.74-.065.63-.631.5-.74.868-.108.369-.303.869-.108 1 .196.131.348-.02.392-.435.043-.413.043-.631.348-.631.304 0 .369.283.412 1.478.002.067 0 .134-.002.196.158-.25.323-.485.498-.707-.06-.599-.11-1.124-.169-1.511-.196-1.304-.696-1.913-.217-2.98.479-1.066.717-2.522 2.675-1.803 1.958.718 2.608 1.064 3.391 1.37.783.306 1.74.283 2.74-.13 1-.415 1.547-.37 1.904.282.521.774.192 1.152.287 1.527.39.06.768.133 1.128.215-.24-.32-.506-.733-.55-1.021-.08-.538.096-1.26.94-1.078.844.182 1.952 1.212 1.967 2.44 0 .122 0 .236-.003.346l.182.067c-.048-.066-.053-.16-.06-.23-.016-.12-.073-.222.08-.245.15-.025.252.095.252.095s.15.197.15.285c0 .088-.023.165-.219.173.379.146.614.253.654.272a.217.217 0 01-.103.414l-.011.145a9.325 9.325 0 01-.236 1.46c.044.024.09.045.133.07.082.046.008.177-.074.126l-.098-.05-.046.156c-.048.167-.1.34-.162.513-.61 1.743-.825 4.243-.866 4.806.042-.023.083-.046.123-.07a.218.218 0 01.222.374 9.151 9.151 0 01-.33.186c-.015.591-.487.99-1.07 1.593-.632.652-.936 1.196-.805 1.696.132.5.48.826 1.26.826.782 0 1.5 1.304 2.371.827.871-.477 2.152.392 3.131-.848.979-1.24 1.479-1.63.608-3.066a5.702 5.702 0 01-.169-.298l.17.298c1.147-.692 1.68-2.139 3.659-2.52 1.3-.252 2.056-.754 2.425-1.07.917.493 1.4-.047 2.35.111 1.043.173 1.24.217 1.935-.564.696-.783 1.479-.632 1.064-2.044-.412-1.412-1.347-.5-1.804-2.675-.35-1.382-.52-1.5-.716-1.935-.196-.435.326-.869.716-1.304.392-.435.48-1.087.76-1.783.282-.696.61-1.608-.043-3.175-.652-1.564-1.891-3.414-1.827-5.262.065-1.847-.283-3.5-2.522-5.195-2.24-1.695-2.456-1.216-2.804-1.674-.348-.459-1.152-2.305-5.718-1.392l-.012.006v.002zM32.284 37.911c.005-.116.15-.184.313-.182.164.002.27.118.223.215-.048.095-.263.104-.263.104-.089.011-.28-.02-.273-.137zm3.262-3.673c.427-.19.792-.055 1.078.603.285.658.23 1.893.387 2.258.158.365.428.476.253.626-.175.15-.475.08-.76-.19-.286-.27-.634-.365-.728-.237-.095.127.032.387.522.578.49.19 1.023.76.776.935-.245.175-.918.095-1.355-.135-.435-.23-1.791-.586-1.996-.523-.205.063-.69.032-.443-.348.245-.38.665-.508 1.006-.53.34-.025.357-.27-.063-.61a.774.774 0 01-.263-.928c.073-.183.103-.49-.205-.468-.308.023-.365.325-.262.768.103.443-.073.69-.395.705-.326.016-.728.23-1.133.61-.405.381.015.911-.11 1.094-.126.183-.46.025-.864-.31-.405-.333-.38-.863-.262-1.046.117-.182.333-.595.015-.99-.318-.396.325-.563.87-1.013.546-.45.769-.405.919-.31.15.094.245.157.68-.206.435-.364.776-.31.935-.262.158.048.388.063.388.063s.578.055 1.006-.135l.004.002zm-.485-.652c-.392.173-1.462-.163-1.462-.163s-.511-.135-1.415.235c-.353.145-.448-.376.38-.787.076-.038.18-.068.297-.09-.257-.067-.038-.31.05-.324.102-.015.325-.005.313.154a.19.19 0 01-.06.13c.092-.008.19-.014.286-.016-.134-.091.046-.283.122-.295.103-.015.325-.005.314.152a.182.182 0 01-.086.147c.084.004.165.011.245.019-.04-.097.099-.236.164-.245.103-.016.325-.006.313.154a.185.185 0 01-.104.157c.449.149.861.672.642.77v.002zm-.857-1.986c.51.09.296.277 0 .25-.297-.026-.594-.227-.797-.421-.325-.31.036-.624.12-.426 0 0 .163.507.675.596h.002zm-5.624-2.614c.443-.135 1.118.072 1.278.483.158.412.538.332.833.157.293-.175.142-.697-.073-.887-.214-.19-.292-.428 0-.46.293-.033.556.222.614.515.06.293.18.405.41.405.23 0-.04-.373.545-.666.585-.292.61.143.507.223a2.2 2.2 0 00-.57.728c-.213.418.318.833.318.833s.357.201.471-.042c.112-.242.036-.54.36-.405.235.097.148.783-.175.945-.061.03-.118.05-.172.07 0 0-.201.06-.268.156a.477.477 0 01-.064.093c-.223.253-.073.49.102.776.176.285-.197.238-.57.475-.373.238-.412.523-.903.895-.49.373-1.14 1.64-1.268 2.123-.127.483-.12 1.061-.595 1.269-.475.207-1.14-.056-1.568-.358-.428-.3-.135-.887-.103-1.347.033-.46.468-1.64.848-2.211.38-.57.555-1.363.263-1.67-.293-.31-.286-.824-.15-.984.134-.157.08-.27-.23-.467-.31-.198-.278-.516.167-.65l-.006.002v-.001zm20.584 15.43c-.283-1.956.065-2 .979-2.652.914-.652 1.26-.565 1.283.043.023.609.065.956.5 1.48.435.522-.065 1.282.804 2.651 0 0 .264.508-.673.514-.937.005-.84-.343-1.541.294-.5.455-1.162.26-1.502.112.182-.87.255-1.716.148-2.44l.002-.002z" fill="#0058A9"/><path d="M38.153 24.078c.753-.14 1.719.314 1.907.434.188.12.428.068.434-.11.005-.177-.21-.225-.365-.251-.156-.027-.23-.073-.71-.356-.482-.281-1.008-.182-1.72-.173-.71.012-.97.24-.92.428.052.188.622.167 1.375.027v.002zm-1.035.585s-.048-.104-.147-.104c-.098 0-.156.07-.104.165.051.095.302.08.25-.061zm-.798-.063c-.078-.125-.302-.089-.589-.03-.287.057-.962-.015-1.097-.12a4.778 4.778 0 00-1.154-.663c-.559-.215-1.165.005-1.29.24-.126.235-.335.256-.365.46-.03.203.24.193.564.178.323-.015.365-.262.428-.407.062-.146.36-.197.543 0 .183.198.517-.036.81.084.293.12.34.355.329.475-.01.12-.356.386-.356.386-.292.167-.308.403-.28.487.026.083.277.12.469-.131.194-.251.851-.46 1.336-.554.487-.093.732-.277.652-.403V24.6zm5.222 8.26c.137-.323.05-.538-.108-.557-.156-.02-.165.097-.215.245-.05.147-.323.255-.47.196-.146-.06-.332-.323-.46-.821-.127-.498-.4-1.253-.568-1.546-.165-.293-.04-.606-.127-.852-.088-.245.245-.4.46-.323.215.078.45.088.519-.097.068-.186-.215-.465-.411-.625 0 0-.548-.42-.597-.637-.05-.215.127-.498-.196-.684-.323-.187-.488-.725-1.076-.52-.587.206-1.087.48-1.306.53-.22.049-.308.04-.473-.168-.167-.205-.205-.205-.323-.137-.118.069-.342.069-.108.361.235.293.156.43.351.725.196.293.2.437.356.633.156.196.485.35.694.088.264-.331.473-.536.897-.41.424.128.36.318.046.356-.314.04-.464.134-.561.506-.097.372.407.525.817.72.411.196.715.907.94 1.28.224.372.096 1.134.05 1.477-.05.342-.01.821.146 1.116.156.293.205.656.028.842-.177.186-.361.195-.342.51.02.313.01.429.165.429.156 0 .069-.177.177-.46.108-.283.283-.323.314-.665.028-.342-.206-.675 0-.831.205-.156.43-.05.646-.274.215-.224.597-.078.734-.4l.002-.006v-.001zm1.355-.286c.152.088.21-.224.211-.43 0 0 .01-.92-.04-1.33-.05-.41-.4-.47-.382-.304.02.165.166 1.213.156 1.486-.01.274-.096.489.053.578h.002zm-1.591 4.892c-.078-.096-.255.029-.264.274-.01.245.05.606.46.548.41-.06.342-.236.195-.392 0 0-.313-.333-.391-.43z" fill="#0058A9"/><path d="M44.468 29.69c-.489.007-.51-.423-.529-.824-.018-.401-.087-.948-.264-1.144-.177-.196-.361-.05-.293.137.069.186.34.245.38.568.04.323.084.962.059 1.184 0 0-.059.706-.186 1.008-.128.304-.196.578 0 .97.195.391.4 1.085-.246 1.408-.646.324-.86.607-.665 1.095.196.489.846.342 1.103-.323.256-.665.344-.948.667-1.135.323-.186.224-.46.195-.92-.028-.46.137-.625.156-1.144.02-.519.109-.888-.382-.879l.004-.002zm-3.718 5.213c-.06.108-.236.44-.343.518-.108.078-.273.293-.146.411.127.118.333-.137.333-.137s.323-.43.313-.587c-.01-.156-.096-.313-.156-.205h-.002zm1.106-.863c-.012-.028-.187-.509-.245-.606-.06-.096-.25.01-.183.362.067.351.187.783.386.86.2.079.227-.142.044-.615h-.002zm5.334 7.294c-.257-.072-.303.27-.527.526-.224.257-.302.64-.086 1.094.217.454.291.718.278.975-.013.257.202.574.264-.053 0 0 .145-1.523.217-1.846.073-.324.11-.626-.146-.698v.002zm-21.5 3.896c-.058-.471-.058-1.448-.437-1.01-.378.437-.176 1.195-.093 1.583.084.388.035.665.101.977.066.312-.076.776.202.884.277.11.27-.32.27-.32s.017-1.642-.042-2.113zm28.85 1.315s-.094-.449-.39-.599c-.297-.152-.39.212-.192.422.198.212.692.626.58.18l.002-.003zm-7.323 1.042c.179-.019.131-.277.145-.467l.098-1.424c.014-.192.006-.495-.17-.514-.18-.019-.316.297-.258.778.06.48-.112.87-.118 1.192-.006.321.126.454.303.435zm8.249-1.912c.204-.032.225-.329.093-.422-.13-.093-.52-.032-.52-.032-.212.019-.112.21-.033.283.08.072.257.204.462.171h-.002z" fill="#0058A9"/><path d="M27.736 50.768c.137-.26.278-.507.424-.74.004-.066.004-.13.002-.196-.043-1.196-.108-1.48-.412-1.48s-.304.218-.348.632c-.044.412-.196.564-.392.435-.195-.131 0-.631.109-1 .108-.369.674-.24.74-.869a6.734 6.734 0 00-.088-1.739c-.065-.304-.088-.848.283-1.283.369-.435.283-.696.456-.956.173-.26-.26-.564-.695-.152-.436.412-.436.935-.48 1.24-.044.304-.195.391-.24.564-.043.173-.282.217-.172-.348.108-.564 0-.912.152-1.327.152-.412.196-.675.173-.956-.021-.283.131-.543.848-.26.717.283.912.26 1.24.173.327-.088.543-.196 1.108-.088.565.108.869.24 1.26.065.392-.173.639-.196 1.156.087.519.284 1.083.304 1.648.284.564-.021.435-.26.412-.392-.02-.131.044-.173.196.02.152.196.131.392.587.392.456 0 .327-.348.696-.216.368.13.891-.109 1.304-.132.412-.02 1.195 0 1.608.065.412.065.717.044.74-.391.02-.436-.021-.565.348-.304.368.26.435.326.74.368.303.044.216.132.216.544 0 .412.088.675.804 1.196.717.52 1.5 1.412 1.87 2.87.37 1.456.37 1.652 0 2.87-.368 1.217-1.26 3.631-1.108 5.131.152 1.5-.283 1.555-.892 2.257-.608.701-1.087 1.374-.652 1.657.122.08.208.12.278.141a.528.528 0 00.16.013.9.9 0 00.093-.023c.273-.106.336-.522.403-.587.086-.081.293-.053.076.35-.215.405.093.629.093.629.139.09.375.146.81.108.852-.074 1.038-.127 1.105-.234l.002-.01c.095-.193.066-.586.133-.642.066-.053.121-.081.148.109.027.188.156.45.156.45.152.283.304.48 1 .24s1.217-.631 1.217-.913a1.6 1.6 0 00-.008-.15 1.061 1.061 0 00-.076-.3c-.095-.215-.148-.405 0-.35.149.054.056.462.432.44h.032c.212-.02.379-.16.293-.616-.108-.588-1.391-1.936-1.24-4.066.153-2.131 1.327-3.61 1.74-5.523.412-1.912.836-3.537.051-5.91-.274-.69-.312-.675-.192-.8.118-.126.207-.126.334.207.126.334.312.772.348.943.038.171.126.253.29-.008.162-.26 1.1-.92 1.423-1.247.323-.327.72-.872 1.207-.783.485.087.398.589.442.986.043.397-.192 1.325.22 1.81.412.485.648 1.03.94 1.25.296.221.252.428.147.5-.104.073-.22.029-.369-.161-.146-.192-.294-.22-.44-.146-.147.074-.162.338.058.648s1.25 2.312 1.046 3.827c-.206 1.515-.516 2.458-.162 2.811.302.303 1.015.852 1.584.698a.74.74 0 00.248-.126.59.59 0 00.236-.471c.02-.54-.008-.591.154-.62.15-.027.258.711.591.943l.084.046a.34.34 0 01.066.032c.382.184.812.264.979-.18 0 0 .112-.597-.13-.84-.24-.244-.242-.47 0-.332.244.141.37.763.868.835a.853.853 0 00.41-.179c.428-.354.31-1.074-.133-1.428-.441-.353-.838-.602-1.117-1.176-.28-.574-.56-1.633-.662-2.179-.103-.543-.295-.794-.574-.81-.28-.015-.295-.192.028-.485.324-.294.751-1.058 1.046-1.648.295-.589.662-.515.633-1.412-.028-.897.029-1.546-.515-2.899s-.736-1.456-1-2.296c-.264-.839-.515-1.148-.736-1.663-.22-.516-.264-1.34-.368-1.854-.103-.515.44-1.604-.442-2.884-.884-1.28-2.427-2.134-3.311-2.486-.884-.354-.751-.456-1.325-.956a3.888 3.888 0 00-2.694-.956c-1.222.03-1.384.338-1.84.354-.456.015-.779.353-.589.81.192.456.472.912.736 1.015.264.103.75.81.869 1.781.118.971.028 1.633.192 1.928.161.294.294 1.25-.134 2.089-.427.838-.661 1.25-.825 1.059-.161-.192-.353-.162-.471.102-.118.265-.236.382-.398.295-.161-.087-.043-.118.118-.353.162-.236.147-.574.31-.81.162-.236.177-1.31.074-1.59-.102-.28-.28-.368-.146-.676.133-.31 0-.81.177-.826.177-.015.177.472.161.913-.015.44.324.81.162 1.56-.162.751-.118 1.193.31.649s.295-1.222.205-1.546c-.087-.323-.015-.794.074-1.163.088-.369-.146-.53-.369-1.294-.22-.766-.44-1.515-.72-1.84-.28-.323-.31-.118-.485-.059-.177.059-.5-.25-.471-.766.028-.515.133-.736-.147-1s-.5-.28-.559-.869c-.058-.589-.353-.692-.5-1.207-.146-.515-.44-.633-.794-.53-.354.102-.515-.31-.177-.457.339-.146.618.118 1.059-.338.441-.457 1.059-.559 1.692.074s.75.794.912.661c.162-.133-.22-.543-.589-.868-.369-.324-.5-.442-.825-.472-.325-.03-.382-.374-.854-.445-.471-.07-.956-.085-1.486.24-.53.323-.97.543-1.382.264-.412-.28-1.361-.465-2.144-.437 0 0-1.804-.02-2.827.456-1.023.48-.696-.26-2.196-.108-1.5.152-2.087-.02-2.5-.196-.412-.172-1.043-.304-1.651-.152-.609.152-.196.25.368.276.565.028 1.24.289 1.132.616-.109.327-.717.173-1.5 1.087-.784.913-1.784 2.74-1.632 3.37.152.632.76.632 1.284.175.52-.456.868-.587.848-.868-.021-.282-.24-.348-.24-.348s.456.043.52.24c.066.195 1.11.303 1.284-.5.173-.805-.283-.957-.283-.957s.804.021.717 1.044c-.088 1.023.24 1.412.956 1.175.716-.24.956-.457.912-.609-.152-.348.717-.087.827-.652.108-.564.369-.869.5-.891.131-.021 0 .216-.152.5-.152.283.087.804-.044 1.108-.131.304-.175.652.327.979.5.327 1.044.878 1.087 1.31.044.429-.173.303-.369-.058-.195-.361-.608-1.121-1.847-1.1-1.24.02-1.544.695-.565.783.98.087 1.76.01 1.609.646a4.4 4.4 0 00-.101.622s-.112.484-.464.241c-.352-.243.066-.755-.243-.89-.42-.182-.375.485-.323.782.043.249.224.534.786.525 0 0 .21-.006.253.207v.004c.012.076.025.148.042.211.109.392-.087 1 .392 1.108.479.109.412.632 1.043.827.632.196 1.044 1.175 1.24 1.719.196.543-.131 1.13.217 1.564.028.034.053.07.08.106.186.217.717.675 1.722.39 0 0 .339-.088.357.091.02.177-.788.236-.99.205-.148-.02-.468-.04-.762-.144.104.228.167.456.178.679.021.435.24.564.652.76.413.196.196.76.87.48.674-.284.674-.196 1.282-.327.609-.132 1.175-.588 1.284-.784 0 0 .536-.802.308-1.448-.228-.646-.054-1.644.169-1.886.222-.243.203-.188.253 0 .05.188-.314.54-.253 1.025.02.173.091.434.137.734.116-.238.302-.51.574-.609.62-.226.65-2.049.65-2.049s0-.125.116-.123c.116.004.11.123.11.123s.04 1.973-.71 2.234c-.486.169-.742 1.336-.742 1.336a1.756 1.756 0 01-.388.81c-.11.139-.272.303-.422.443-.283.26-.935.59-1.456.599-.52.01-1.023.618-1.456.378-.435-.24-1.412-.108-2.391-.26-.979-.152-1.413-.196-1.892-.175-.479.02-.979-.02-1.675-.173-.695-.152-1.695-.348-2.478-.24-.784.109-1.392-.108-1.804-.76-.413-.652-.76-1.043-1.26-1.217-.5-.172-.957-.804-.849-1.412.109-.608 0-1.327.392-1.912.391-.588.435-.717.217-.848-.217-.132-.457.216-.76.695-.305.479-.784.587-1.48 1.913-.695 1.326-.368 1.108-.087 1.456.283.348.131.978-.044 1.478s-.304 1.588-1.131 2.783c-.827 1.196-1.108 2.675-.652 4.587.456 1.912.456 2.435.652 2.783.196.348.088.695 0 .935-.088.24-.327.74-.108 1.718.216.98.087 1.456.195 1.804.109.348.131.457-.26.76-.392.305-1.109 1.132-1.392 1.61-.283.478-.26.912.348.955a.79.79 0 01.126.02c.264-.242.169-.736.401-.81.338-.109.336.081.066.54-.268.456.36.771.365.775.147.078.323.137.563.15.14.008.255.013.352.015.656.059.686-.886.7-1.102.01-.215.284-.405.31 0 .027.405.56.72.56.722.224.082.48.109.948.017a.84.84 0 00.38-.157c.542-.47-.084-1.228.025-1.418.108-.188.376.27.405.597.026.328.498.184.498.184l-.012.008c.106-.065.171-.175.217-.411-1.407-1.029-2.532-2.494-1.331-4.804l.02-.01zm9.237-26.208c.099 0 .146.104.146.104.052.141-.197.156-.25.061-.052-.095.005-.165.104-.165zm.726-.935c.71-.01 1.238-.11 1.718.173.481.28.554.328.711.355.156.027.371.073.365.251-.006.177-.245.23-.434.11-.188-.12-1.154-.574-1.906-.433-.753.14-1.322.161-1.375-.027-.051-.188.21-.418.92-.428v-.002h.001zm-3.368 1.931c-.194.25-.445.215-.47.131-.027-.083-.01-.319.281-.487 0 0 .344-.266.356-.386.01-.12-.036-.355-.329-.475-.293-.12-.627.114-.81-.083-.182-.198-.48-.147-.544 0-.062.146-.104.391-.427.406-.323.016-.595.027-.565-.178.03-.204.24-.225.365-.46.125-.236.732-.455 1.291-.24a4.86 4.86 0 011.154.664c.135.104.81.176 1.097.12.287-.058.511-.094.589.03.078.125-.167.308-.652.403-.487.093-1.144.302-1.336.553v.002zm-8.868 22.11c-.278-.11-.135-.572-.202-.884-.066-.312-.017-.59-.1-.977-.084-.388-.288-1.147.092-1.584.379-.437.379.54.438 1.011.058.472.042 2.114.042 2.114s.007.43-.27.32zm4.153-6.045c-.072-.053-.201-.08-.308-.103a.993.993 0 00-.154-.207c.033-.091.01-.05.051-.103.067-.127-.022-.036.103-.102.097.11.242.209.36.154.041-.054.019-.016.053-.105-.282-.34-.023-.538.05-.876.474.195.44 1.294-.155 1.34v.002zm17.417 4.338c-.06-.481.08-.797.256-.778.18.02.185.323.172.513l-.1 1.424c-.012.19.033.45-.144.468-.178.02-.31-.112-.302-.435.008-.323.179-.711.118-1.192zm.304-3.927c-.072.323-.217 1.846-.217 1.846-.063.627-.277.31-.264.053.013-.257-.059-.521-.278-.975-.217-.455-.139-.837.086-1.094.224-.256.27-.598.526-.526.257.072.219.376.147.698v-.002zm6.813 3.914c.296.152.39.598.39.598.111.45-.383.033-.58-.178-.198-.212-.105-.574.192-.422l-.002.002zm.89-.724s.389-.06.52.032c.131.093.112.39-.093.422-.204.032-.382-.099-.462-.171-.08-.073-.179-.266.032-.283h.002zm-3.64-6.79c-.2-.6.066-1.603-.052-2.331-.148-.915-.456-2.183-.103-3.082.818.147.791 2.175.67 2.732-.124.581.663 2.534-.514 2.68H51.4zm-3.711-1.495c-.135-.034-.158-.013-.362 0-.09-.593-.09-.811.103-1.34h.105c.12.426.366.808.154 1.34zm-7.526-3.403c-.206.156.028.489 0 .831-.029.342-.206.382-.314.665-.108.284-.02.46-.177.46s-.146-.118-.165-.43c-.02-.313.165-.322.342-.509.177-.186.127-.547-.028-.842-.156-.293-.196-.773-.147-1.116.05-.342.177-1.106-.05-1.477-.224-.372-.528-1.084-.939-1.28-.41-.195-.914-.347-.817-.72.097-.372.247-.465.56-.505.314-.04.379-.228-.045-.356-.424-.127-.635.078-.897.409-.21.262-.538.108-.694-.088-.156-.195-.162-.338-.356-.633-.195-.293-.118-.43-.351-.724-.236-.293-.01-.293.108-.361.118-.069.156-.069.323.136.165.206.255.215.473.168.22-.05.72-.324 1.306-.529.588-.205.753.333 1.076.519.324.186.147.47.196.684.05.215.597.637.597.637.195.162.479.441.41.626-.068.186-.303.177-.518.097-.215-.078-.548.078-.46.323.087.245-.04.557.127.851.165.293.441 1.048.568 1.546.128.498.314.762.46.821.147.059.42-.05.47-.195.05-.146.059-.265.215-.246.156.02.245.236.108.557-.137.323-.519.177-.733.401-.215.225-.442.118-.647.274l-.002.006zm2.524-3.024c-.02-.167.333-.108.382.304.05.41.04 1.33.04 1.33 0 .206-.059.52-.211.43-.152-.087-.063-.304-.053-.578.01-.273-.137-1.32-.156-1.486h-.002zm-1.258 3.288c-.067-.351.125-.46.182-.36.059.096.234.577.245.606.183.473.156.694-.043.616-.2-.078-.32-.51-.386-.862h.002zm.074 4.49c-.41.06-.47-.303-.46-.547.01-.245.186-.372.264-.273.078.096.392.43.392.43.146.155.215.332-.196.39zm-.597-3.18c.01.156-.314.588-.314.588s-.205.254-.333.136c-.127-.118.04-.332.147-.41.108-.078.283-.411.342-.52.059-.107.146.05.156.206h.002zm3.787-3.395c.028.46.127.734-.196.92-.323.187-.41.47-.667 1.135-.257.665-.907.812-1.103.323-.195-.488.02-.773.666-1.095.646-.323.44-1.017.245-1.408-.196-.392-.127-.666 0-.97.127-.304.186-1.008.186-1.008.023-.222-.019-.86-.059-1.184-.04-.323-.311-.382-.38-.568-.068-.187.118-.333.293-.137.177.195.245.743.265 1.144.019.401.04.831.528.823.488-.007.401.362.382.879-.02.519-.186.684-.156 1.144l-.004.002zm5.005 4.606c.311.517 1.44 3.46.361 3.505 0-.526-.836-3.505-.361-3.505zm-8.761 3.7c-.023.505-.132.8-.259 1.184.029.065.116.137.154.207h-.154c-.217-.226-.317-.293-.31-.772.164-.17.327-.435.464-.618h.103l.002-.002zm-10.857-.046c-.076-.278-.3-.445-.258-.67.6.15 1.479.58 1.804 1.031.131.184.173.443.361.566.088.058.232.044.31.103-.175.11-.242.158-.568.154-.114-.116-.318-.173-.413-.308-.33-.48-.498-.952-1.235-.876z" fill="#fff"/><path d="M43.355 46.946c0-.087-.15-.285-.15-.285s-.103-.12-.253-.095c-.15.025-.095.127-.08.245.01.07.015.165.06.23l.202.076c.196-.008.22-.09.22-.173l.001.002zm-.603-.316c-.015-1.228-1.125-2.259-1.967-2.441-.844-.182-1.02.538-.94 1.078.043.289.31.702.55 1.02.944.212 1.76.474 2.355.689.004-.11.004-.225.004-.346h-.002zm-8.215-12.255s-.23-.016-.387-.063c-.158-.048-.5-.103-.936.262-.435.365-.53.3-.68.205-.15-.095-.373-.142-.918.31-.546.453-1.188.618-.87 1.014.316.395.102.808-.016.99-.118.182-.143.713.262 1.046.405.332.738.49.863.31.126-.18-.292-.713.11-1.094.406-.38.809-.594 1.134-.61.325-.016.5-.262.395-.705-.103-.443-.048-.745.262-.768.31-.023.278.285.206.467-.073.183-.158.586.262.928.42.342.405.586.063.61-.34.025-.76.15-1.006.53-.245.381.238.413.443.349.205-.065 1.56.293 1.996.523.435.23 1.108.31 1.355.134.245-.174-.285-.745-.776-.935-.49-.19-.617-.452-.522-.578.095-.127.442-.032.728.238.285.27.585.34.76.19.175-.15-.095-.263-.253-.626-.157-.365-.102-1.6-.387-2.258-.285-.658-.65-.793-1.078-.603-.428.19-1.006.135-1.006.135l-.004-.002zm-.015-1.715c.011-.16-.211-.168-.314-.154-.065.01-.201.148-.163.245a4.82 4.82 0 00-.246-.02.19.19 0 00.086-.146c.012-.16-.211-.167-.314-.152-.076.012-.256.204-.121.295-.099 0-.194.005-.287.015a.188.188 0 00.06-.13c.012-.159-.21-.166-.313-.153-.088.013-.304.257-.05.323-.118.023-.22.053-.296.091-.829.411-.734.932-.38.787.903-.37 1.414-.236 1.414-.236s1.072.337 1.462.164c.22-.097-.194-.621-.642-.77a.19.19 0 00.104-.158v-.002zm-6.107-3.022c.31.198.365.31.23.468-.135.157-.143.672.15.982.293.31.12 1.101-.263 1.671-.38.57-.815 1.751-.848 2.211-.032.46-.325 1.046.103 1.348.428.3 1.093.563 1.569.357.475-.206.467-.785.594-1.268.128-.483.776-1.75 1.268-2.123.49-.373.53-.658.903-.895.373-.238.745-.19.57-.476-.174-.285-.325-.523-.102-.775a.477.477 0 00.065-.094c.064-.093.268-.154.268-.154.053-.017.11-.04.17-.07.324-.162.413-.848.176-.945-.324-.133-.246.164-.36.405-.112.243-.471.042-.471.042s-.53-.412-.318-.833c.213-.42.468-.65.57-.728.103-.08.08-.515-.507-.222-.586.293-.316.665-.546.665-.23 0-.35-.11-.408-.405-.06-.294-.32-.547-.614-.515-.295.033-.215.27 0 .46.214.19.364.713.072.888-.292.174-.673.252-.833-.158-.157-.412-.833-.618-1.277-.483-.443.135-.476.453-.168.65l.006-.003z" fill="#fff"/><path d="M32.557 38.048s.215-.01.262-.105c.048-.094-.059-.212-.222-.214-.164-.002-.308.064-.314.182-.005.116.185.148.274.137z" fill="#fff"/><path d="M51.244 33.022c-.354.899-.046 2.167.102 3.081.118.728-.148 1.732.052 2.33 1.176-.146.39-2.096.513-2.68.121-.557.148-2.585-.67-2.731h.003zm-3.917 3.916c.204-.014.227-.035.361 0 .213-.533-.034-.915-.154-1.34h-.104c-.192.528-.192.747-.103 1.34zm2.371-.62c-.478 0 .36 2.977.36 3.506 1.08-.046-.047-2.989-.36-3.506z" fill="#0058A9"/><path d="M33.528 31.003c-.083-.197-.444.114-.12.426.204.194.5.396.797.422.297.027.511-.161 0-.25-.511-.09-.675-.597-.675-.597h-.002z" fill="#fff"/><path d="M31.316 40.848c.093.135.296.192.412.308.327.004.394-.043.569-.154-.078-.059-.22-.045-.31-.102-.188-.124-.228-.384-.361-.567-.326-.45-1.204-.882-1.804-1.03-.042.224.182.393.258.669.738-.076.905.395 1.236.876zm-1.546-.565c-.074.337-.333.534-.051.877-.035.089-.012.05-.053.104-.119.055-.263-.044-.36-.154-.125.066-.036-.025-.103.103-.041.053-.019.011-.05.103.06.058.11.129.153.207.107.023.236.05.308.103.593-.046.627-1.145.156-1.34v-.002zm10.6.355c-.008.48.09.547.31.771h.154c-.039-.07-.126-.14-.155-.207.126-.384.234-.679.259-1.184h-.103c-.137.184-.3.446-.464.618l-.002.002z" fill="#0058A9"/><path d="M38.97 48.322c-.318-1.116-1.955-1.053-2.913-1.07-1.118 0-2.418.45-2.899 1.466 2.217 1.157 4.108 1.094 5.811-.396zm-1.78-.874l.387.05c-.382.486.004 1.473.03 1.553.028.074-.345.114-.345.114-.485-1.053-.074-1.715-.074-1.715l.002-.002zm-.741-.07l.386.028c-.474.557.02 1.743.053 1.83.03.082-.409.102-.409.102-.496-1.291-.03-1.96-.03-1.96zm-.854.016l.318-.034.16.006c-.4.566-.01 1.887.022 1.982.03.088-.443.042-.443.042-.443-.891-.057-1.996-.057-1.996zm-.726.147l.38-.093c-.443.733-.027 1.788.004 1.878.028.081-.394-.096-.394-.096-.409-.844.012-1.69.012-1.69h-.002z" fill="#E3173E"/><path d="M30.452 49.75a10.276 10.276 0 012.602-1.081c.394-1.175 1.84-1.656 2.988-1.719 1.067-.015 2.808-.026 3.167 1.217 1.513-.173 3.566.812 4.036 1.057.059.03.127-.008.139-.072l.197-1.223a.102.102 0 00-.065-.112c-5.054-2.02-8.828-1.237-10.592-.614-.654.47-1.722 1.352-2.473 2.55v-.003z" fill="#E3173E"/><path d="M39.146 48.53a1.827 1.827 0 01-.16.226c.002 0 .004-.004.004-.004-.175.521-1.284 1.35-3.034 1.219a5.459 5.459 0 01-2.774-1.008.244.244 0 00-.222-.032 18.607 18.607 0 00-2.722 1.177c-.489.903-.772 1.958-.572 3.133-1.219-1.601-.37-3.42-.154-3.825.005-.012-.014-.02-.021-.01-1.903 2.099-1.846 3.65-1.354 4.657.384.544.996 1.069 1.855 1.603 1.87 1.165 8.09 1.8 12.334-.64.042-.562.255-3.062.867-4.805.06-.174.114-.346.161-.513-2.256-1.177-3.77-1.203-4.209-1.18v.002zm2.461 5.009c-.144.496-.589 1.378-1.95 2.138-1.304.73-2.838.609-3.762.43-.18-.035-.179-.287.002-.323.452-.091.92-.228 1.384-.394.458-.44 1.233-1.095 1.861-1.173.848-.106 1.317-1.055 2.144-.817l.076-.048c.13-.081.288.04.244.188l.002-.002zm2.069-5.588c.003-.053.01-.103.011-.144l-.011.144z" fill="#E3173E"/><path d="M29.492 49.408s.027 0 .02.01c-.216.404-1.064 2.223.155 3.824-.584-.931-1.152-2.817 1.224-5.267-1.37.785-2.125 1.752-2.767 2.99-.622 1.193-.635 2.176.015 3.098-.493-1.008-.55-2.559 1.353-4.657v.002zm9.648 4.81c-.627.078-1.402.734-1.86 1.173 1.669-.593 3.286-1.543 4.005-1.992-.83-.237-1.297.713-2.145.818v.002zm.062-5.78a1.428 1.428 0 01-.055.093c.439-.023 1.952.003 4.208 1.18 0 0 .02-.055.046-.156-1.289-.675-2.74-1.116-4.2-1.117z" fill="#fff"/><path d="M43.607 47.785c-.045-.02-4.704-2.135-8.708-1.226a23.03 23.03 0 00-1.696.45c-.08.053-.172.118-.275.19 1.764-.623 5.535-1.407 10.592.614a.106.106 0 01.064.112l-.197 1.223c-.012.064-.08.102-.139.072-.47-.245-2.522-1.23-4.035-1.057.005.023.015.042.02.065 1.478.029 2.913.483 4.207 1.178.076-.3.183-.813.236-1.46l.011-.144a.194.194 0 01-.08-.02v.003zM32.96 48.934a.238.238 0 01.223.033 5.513 5.513 0 002.773 1.007c1.751.132 2.861-.697 3.034-1.218 0 0-.002 0-.003.004-.285.342-.696.606-1.074.779-1.593.743-3.414.172-4.81-.732-.994.258-1.952.682-2.827 1.23-.013.025-.024.05-.038.074a18.5 18.5 0 012.722-1.177z" fill="#fff"/><path d="M42.748 55.035a.219.219 0 00-.299-.076c-.04.025-.083.046-.123.07-4.243 2.44-10.463 1.804-12.334.64-.859-.535-1.47-1.06-1.855-1.603-.65-.924-.637-1.905-.015-3.099.645-1.24 1.4-2.207 2.768-2.99.125-.129.25-.258.393-.39l2.23-.773s-.121.073-.311.198a22.32 22.32 0 011.695-.45c4.004-.907 8.663 1.205 8.709 1.225a.22.22 0 00.29-.106.22.22 0 00-.108-.289c-.04-.019-.275-.125-.653-.272-.063-.025-.132-.05-.202-.076-.059-.02-.12-.043-.182-.066a19.713 19.713 0 00-2.356-.688c-.359-.08-.735-.154-1.127-.215-1.397-.219-2.964-.278-4.465.06-3.114.706-4.88 1.582-6.144 3.185-.175.22-.34.456-.498.707-.146.234-.287.48-.424.741-1.202 2.31-.076 3.773 1.33 4.804.164.12.331.234.499.342l.197.125c.981.61 3.1 1.086 5.524 1.086s4.914-.435 7.055-1.602c.11-.061.222-.122.33-.187a.218.218 0 00.077-.298v-.002l-.001-.001z" fill="#0459A8"/><path d="M41.361 53.353l-.076.048c-.718.448-2.336 1.399-4.005 1.992a9.934 9.934 0 01-1.384.393c-.18.036-.182.29-.002.323.924.18 2.458.3 3.762-.43 1.36-.76 1.804-1.642 1.95-2.138a.164.164 0 00-.243-.188h-.002zm-11.696-.11c-.2-1.175.084-2.231.572-3.133l.038-.074c-.192.12-.384.24-.566.373l-.086-.116c.268-.194.546-.374.829-.542.753-1.197 1.819-2.081 2.473-2.549a8.887 8.887 0 01.587-.387l-2.23.773c-.14.131-.268.26-.393.39-2.376 2.45-1.808 4.336-1.225 5.267v-.002h.001z" fill="#0058A9"/><path d="M39.23 48.232c-.005-.023-.015-.044-.02-.065-.36-1.243-2.101-1.23-3.167-1.217-1.148.06-2.595.544-2.989 1.718a10.276 10.276 0 00-3.431 1.624l.086.116c.182-.134.374-.251.566-.373a10.143 10.143 0 012.827-1.23c1.395.903 3.216 1.473 4.81.73.378-.173.788-.437 1.073-.779a1.93 1.93 0 00.215-.32c1.458.002 2.91.443 4.2 1.118.032.017.066.032.098.05.082.05.156-.08.074-.126-.043-.025-.089-.046-.133-.07-1.296-.694-2.73-1.148-4.207-1.179l-.002.002zm-3.173-.98c.956.018 2.595-.045 2.913 1.071-1.703 1.49-3.593 1.553-5.811.395.48-1.013 1.78-1.463 2.898-1.465z" fill="#0459A8"/><path d="M36.095 49.348c-.032-.095-.424-1.417-.023-1.983l-.16-.006-.317.035s-.386 1.104.057 1.996c0 0 .474.043.443-.042zm-.842-.023c-.03-.089-.444-1.144-.003-1.878l-.38.093s-.42.846-.012 1.69c0 0 .422.18.394.096h.002zm1.637-.089c-.033-.089-.527-1.273-.054-1.83l-.386-.029s-.465.67.03 1.96c0 0 .44-.02.41-.1zm.72-.188c-.029-.08-.413-1.066-.03-1.553l-.388-.05s-.411.662.074 1.715c0 0 .37-.04.346-.114l-.002.002zM11.594 73.446a48.76 48.76 0 00-.527.099l-.096-.514c-.717-3.815-1.436-7.63-2.152-11.445-2.424.456-4.838.964-7.245 1.526a205.559 205.559 0 014.813 5.964c-.61 2.469-1.17 4.942-1.686 7.413a155.282 155.282 0 0115.55-2.81c-.226-.498-.46-.992-.688-1.488-2.663.35-5.32.768-7.969 1.257v-.002zM78.42 63.11a169.888 169.888 0 00-7.244-1.526L69.024 73.03l-.097.513-.526-.099a157.798 157.798 0 00-7.969-1.256c-.23.496-.462.992-.688 1.488 5.216.67 10.406 1.606 15.55 2.81a204.15 204.15 0 00-1.686-7.414c1.56-2.01 3.165-3.998 4.813-5.963v.002z" fill="#0058A9"/><path d="M79.527 62.778c-.325-.078-.65-.156-.975-.232a168.554 168.554 0 00-7.27-1.53l.28-1.487.097-.513c-.192-.036-.384-.073-.576-.107a171.375 171.375 0 00-62.17 0c-.192.036-.384.07-.576.107l.097.513.28 1.486c-2.432.457-4.856.966-7.27 1.53l-.975.233c.2.234.397.467.595.701a202.296 202.296 0 014.664 5.737 208.904 208.904 0 00-1.602 7.161l-.179.886.89-.211a154.641 154.641 0 0115.49-2.798c.26-.034.521-.066.784-.099l-.321-.715c-.2-.444-.407-.887-.61-1.332a156.667 156.667 0 0139.64 0c-.204.445-.411.888-.61 1.332-.107.238-.216.476-.322.715.26.033.523.065.783.099a154.754 154.754 0 0116.38 3.01c-.058-.296-.12-.592-.178-.887a200.7 200.7 0 00-1.603-7.16 203.521 203.521 0 015.26-6.44h-.004.001zM59.744 73.68c.226-.498.46-.993.688-1.489 2.663.35 5.32.768 7.969 1.257.175.032.351.064.526.098l.097-.513 2.152-11.445c2.424.456 4.838.963 7.244 1.526a205.559 205.559 0 00-4.813 5.963c.61 2.47 1.17 4.943 1.686 7.414a155.282 155.282 0 00-15.55-2.81v-.002zM4.702 76.488a204.15 204.15 0 011.686-7.414 205.559 205.559 0 00-4.814-5.963 171.1 171.1 0 017.245-1.527L10.97 73.03l.097.513.526-.099c2.648-.488 5.306-.904 7.969-1.256.23.496.462.992.688 1.488a154.676 154.676 0 00-15.55 2.81v.002zm6.798-3.555l-2.492-13.51a170.834 170.834 0 0161.98 0l-2.492 13.51a157.12 157.12 0 00-56.996 0z" fill="#fff"/><path d="M50.339 60.943c-.208.434-.411.865-.614 1.299.357.02.714.043 1.072.066-.15-.456-.304-.91-.457-1.365h-.002z" fill="#0058A9"/><path d="M68.496 72.932l2.492-13.51a170.834 170.834 0 00-61.98 0l2.492 13.51a157.12 157.12 0 0156.996 0zm-33.335-5.897l.604-.017.008.287-.603.018.023.733-.338.012-.063-1.931c.391-.013.785-.025 1.177-.035l.007.293-.833.023.02.618h-.002zm1.973.974l-.034-1.933.342-.006.027 1.64.8-.011c0 .097.002.195.004.293-.379.003-.759.01-1.137.017h-.002zm2.393.287h-.288c.188-.787.378-1.574.57-2.36h.296c-.195.786-.387 1.571-.578 2.358v.002zm5.515-1.875c-.277-.01-.555-.017-.833-.024l-.017.618.605.017-.01.287-.603-.017c-.005.245-.013.49-.019.733l-.338-.007.045-1.933c.392.01.785.02 1.177.032l-.01.293.002.002h.001zm17.215-2.716c-.732-.277-1.374-.783-1.258-1.71.146-1.246 1.444-1.61 2.676-1.432.787.112 1.448.42 1.846.652-.152.437-.302.872-.452 1.31a3.708 3.708 0 00-1.342-.497c-.375-.053-.728-.028-.746.162-.024.234.525.25 1.158.464.726.247 1.517.743 1.357 1.756-.186 1.171-1.4 1.614-2.767 1.422-.989-.138-1.795-.578-2.179-.811.196-.436.392-.871.59-1.306.325.212.925.566 1.657.661.409.057.713.004.736-.156.034-.241-.605-.266-1.278-.513l.002-.002zm-7.378-4.06c.746.043 1.489.093 2.255.178 1.75.187 2.754 1.02 2.606 2.238-.074.614-.416 1.063-.897 1.35.236.635.47 1.271.698 1.906-.698-.083-1.396-.163-2.093-.237-.135-.416-.27-.834-.407-1.25a3.14 3.14 0 01-.574-.06l-.12 1.196c-.64-.065-1.28-.126-1.923-.182l.456-5.137v-.002zm-5.417-.392c.654.036 1.31.078 1.963.122a220.07 220.07 0 011.99 5.32c-.628-.05-1.256-.1-1.885-.144-.085-.264-.173-.528-.26-.794-.73-.05-1.458-.096-2.188-.137l-.348.756c-.63-.034-1.259-.065-1.89-.089.848-1.684 1.72-3.363 2.618-5.036v.003zm-3.28 6.916c.115.003.229.01.343.013l-.067 1.639.799.034-.014.293c-.378-.017-.756-.032-1.136-.048l.074-1.93h.002v-.001zm-4.68-7.176c1.525.013 3.048.047 4.572.102l-.051 1.443a165.54 165.54 0 00-2.559-.072l-.011.553c.638.013 1.279.03 1.918.051l-.036 1.14c-.635-.02-1.27-.037-1.905-.05l-.012.566c.897.02 1.793.044 2.69.078l-.053 1.45a167.816 167.816 0 00-4.596-.106l.045-5.157-.002.002zm.265 7.067c.11 0 .22.002.33.004.232.648.46 1.294.687 1.945l-.371-.006-.124-.41-.75-.01-.134.407c-.123 0-.249-.002-.372-.004.242-.642.487-1.285.734-1.928v.002zm-5.749-7.028c.394.561.783 1.124 1.17 1.686.36-.576.725-1.15 1.094-1.724.745-.007 1.489-.01 2.234-.007a173.651 173.651 0 00-2.247 3.294l.02 1.87c-.72.008-1.44.02-2.158.037l-.046-1.922A172.1 172.1 0 0033.76 59.1c.753-.028 1.506-.05 2.257-.068h.002zm-3.701 7.201c.211.515.42 1.03.627 1.547.158-.532.318-1.064.48-1.597l.363-.015c-.215.654-.428 1.306-.637 1.96l-.367.017c-.274-.633-.551-1.263-.83-1.895l.364-.017zm-5.077-6.866c1.587-.121 2.943.71 3.043 2.475.101 1.795-1.108 2.742-2.638 2.858-1.515.114-2.86-.637-3.032-2.428-.17-1.76 1.064-2.789 2.627-2.907v.002zm-6.745.648c1.584-.184 2.973.591 3.142 2.352.173 1.79-.998 2.783-2.522 2.961-1.51.175-2.886-.523-3.129-2.304-.24-1.752.953-2.828 2.511-3.009h-.002zm-5.319 6.026l-.551-3.583-.508.4a108.49 108.49 0 00-.792-.88c.426-.358.853-.714 1.283-1.067.585-.09 1.17-.175 1.758-.259l.725 5.106c-.64.092-1.276.185-1.915.284z" fill="#0058A9"/><path d="M57.782 61.9c.039-.352-.32-.538-.638-.6a2.752 2.752 0 00-.422-.052l-.11 1.093c.142.015.302.03.47.027.404-.017.67-.18.703-.468h-.002zm-36.836 1.98c.44-.051.838-.488.745-1.323-.091-.835-.59-1.158-1.029-1.107-.439.052-.834.478-.732 1.304.103.84.576 1.177 1.016 1.126zm20.98 2.524l-.291.884c.188.002.376.004.564.008-.091-.297-.182-.593-.275-.89l.002-.002zm-14.392-3.158c.44-.034.855-.454.798-1.293-.059-.838-.541-1.18-.983-1.146-.44.034-.851.445-.783 1.274.069.844.527 1.2.968 1.165z" fill="#0058A9"/><path d="M16.366 60.653c-.586.083-1.173.169-1.759.258-.43.354-.857.71-1.283 1.066.266.293.53.588.793.88l.508-.399.55 3.584c.638-.1 1.276-.192 1.915-.284l-.724-5.106zm4.749 4.675c1.525-.179 2.696-1.17 2.523-2.962-.17-1.76-1.56-2.536-3.143-2.351-1.559.18-2.75 1.258-2.511 3.009.243 1.781 1.62 2.479 3.129 2.304h.002zm-.452-3.88c.439-.05.937.272 1.028 1.107.091.834-.306 1.271-.745 1.323-.441.051-.913-.285-1.015-1.125-.101-.827.293-1.253.732-1.304zm6.981 3.253c1.53-.115 2.739-1.062 2.638-2.857-.099-1.766-1.456-2.596-3.044-2.475-1.562.118-2.796 1.147-2.627 2.907.171 1.79 1.517 2.541 3.032 2.427v-.002zm-.295-3.895c.441-.034.924.31.983 1.147.058.838-.356 1.258-.799 1.292-.441.035-.899-.32-.967-1.165-.069-.828.342-1.24.783-1.273zm8.784 3.384a161.15 161.15 0 012.157-.036c-.005-.624-.013-1.247-.02-1.87a174.943 174.943 0 012.248-3.295c-.745-.002-1.489 0-2.234.008a185.67 185.67 0 00-1.095 1.724 190.01 190.01 0 00-1.169-1.686c-.753.017-1.506.04-2.256.068.788 1.05 1.564 2.104 2.325 3.165l.045 1.922h-.002zm9.973-1.383c-.897-.032-1.792-.059-2.69-.078l.012-.566c.635.013 1.27.03 1.905.051l.036-1.14c-.64-.021-1.28-.038-1.918-.051l.011-.554c.854.017 1.705.042 2.56.073l.05-1.443a165.87 165.87 0 00-4.571-.103l-.046 5.157c1.532.013 3.065.05 4.596.107l.054-1.45.002-.003zm2.975.816c.73.04 1.458.085 2.188.137.088.264.173.528.26.794.63.043 1.26.093 1.886.144a219.646 219.646 0 00-1.99-5.32c-.654-.044-1.31-.086-1.964-.122-.897 1.67-1.77 3.35-2.617 5.035.629.027 1.26.058 1.89.09l.347-.757v-.002zm1.257-2.68c.154.455.306.911.457 1.366a192.67 192.67 0 00-1.073-.067c.204-.433.41-.866.615-1.298h.002zm6.128 2.827c.194.042.384.053.574.059.137.416.272.834.407 1.25.697.075 1.395.155 2.092.238-.23-.636-.462-1.271-.697-1.906.48-.286.823-.734.897-1.35.149-1.22-.855-2.051-2.606-2.238a42.81 42.81 0 00-2.255-.178l-.456 5.136c.64.057 1.283.118 1.924.182l.12-1.195v.002zm.255-2.522c.12.005.28.02.422.05.317.064.676.25.639.602-.03.285-.299.449-.702.467-.17.006-.327-.011-.472-.026l.11-1.094h.003zm6.079 3.126c-.73-.095-1.333-.448-1.658-.661-.198.435-.394.87-.59 1.306.385.234 1.19.673 2.18.811 1.366.192 2.58-.249 2.767-1.422.16-1.01-.631-1.507-1.358-1.756-.634-.213-1.182-.228-1.157-.464.02-.19.37-.217.745-.162.51.073.968.276 1.342.496.15-.437.303-.872.453-1.31a5.236 5.236 0 00-1.846-.651c-1.232-.175-2.53.188-2.677 1.431-.116.928.527 1.434 1.259 1.711.672.247 1.311.274 1.277.513-.023.16-.327.213-.736.156l-.002.002zM33.147 68.13c.209-.654.422-1.308.637-1.96-.122.004-.242.01-.364.015-.161.532-.32 1.064-.479 1.597-.207-.515-.416-1.032-.627-1.547l-.365.017c.28.631.557 1.262.831 1.895l.367-.017zm2.821-2.03c-.392.01-.785.02-1.177.034.02.645.042 1.29.063 1.932l.338-.012-.023-.734.603-.017-.007-.287-.605.017c-.005-.205-.013-.412-.019-.618l.833-.023-.008-.292h.002zm1.5 1.61c-.01-.547-.017-1.092-.026-1.64-.114 0-.228.004-.342.006l.034 1.933c.378-.008.758-.011 1.137-.017 0-.097-.002-.196-.004-.293-.266.004-.532.006-.8.012h.002zm1.77.589h.29c.19-.787.381-1.574.577-2.36h-.296a538.21 538.21 0 00-.57 2.361v-.002zm2.302-.716c.252.002.5.005.752.01.042.136.081.273.123.41.124 0 .247.004.371.006a266.23 266.23 0 00-.686-1.945l-.331-.003c-.247.642-.493 1.283-.734 1.927.124 0 .25 0 .373.004.043-.135.089-.272.133-.407v-.002zm.387-1.178l.275.89c-.188-.003-.376-.007-.564-.008l.29-.885-.001.002zm1.903 1.625c.112.001.227.005.339.007.005-.245.013-.49.019-.734l.602.017.01-.287-.604-.017.017-.618c.277.008.555.015.833.025.003-.097.005-.196.01-.293-.392-.011-.786-.023-1.177-.032l-.046 1.933-.002-.002zm3.425-.174l-.798-.034c.023-.546.044-1.093.066-1.639-.114-.004-.228-.01-.342-.013l-.074 1.931c.379.015.759.03 1.137.048.004-.097.01-.196.013-.293h-.002z" fill="#fff"/></svg>