<svg xmlns="http://www.w3.org/2000/svg" xmlns:xlink="http://www.w3.org/1999/xlink" width="80" height="80"><defs><path id="a" d="M10.815.07v12.416H.007V.07z"/><path id="c" d="M.15 12.792h11.19V.229H.15z"/></defs><g fill="none" fill-rule="evenodd"><path fill="#003087" d="M54.891 25.393s1.284-.027 1.654.118c0 0 .334-.4 1.052-.755 0 0-1.37-.232-2.706.637"/><path fill="#003087" d="M59.382 35.271c1.143-3.241-3.054-3.558-3.054-3.558-2.14-2.733-16.267-1.727-16.267-1.727 5.102-2.691 14.477-5.741 14.477-5.741-.643-.706-2.335-1.49-2.335-1.49.485-.17.939-.322 1.351-.456 0 0-2.36-1.481-6.105-2.514 0 0 1.007.52 3.082 2.275 0 0-4.455-2.07-12.841-1.654 0 0 1.876.718 4.961 2.544 0 0 .474-.435 1.356-.645-.08 1.116 1.405 2.133 3.319 2.271a5.33 5.33 0 001.991-.215s-.953 1.091-3.144 1.074c-2.644-.008-3.417-1.41-3.417-1.41s-3.686 1.117-5.952 2.334c0 0 2.376-.185 5.247-.05 0 0-8.265 3.102-20.073 14.176 0 0-1.872-5.818 1.967-10.296 0 0 1.33-1.056 6.884-2.92 0 0-8.094 1.67-12.867 3.262 0 0 1.161-4.634 7.053-7.434 0 0 1.85-.556 7.09-1.15 0 0-5.227-.376-11.857.204 0 0 3.463-4.125 8.903-5.233 0 0 .598-.082 4.01-.063 0 0-3.112-1.042-7.681-2.066 0 0 18.729-1.51 30.463 6.791 0 0-.584.196-1.251.441 0 0 5.364 1.933 7.466 4.758 2.922 3.778-2.776 8.492-2.776 8.492m-13.17-1.995c1.754-.978 3.586-2.061 3.586-2.061 3.76-.139 5.305.691 5.305.691-4.673.243-8.891 1.37-8.891 1.37m-7.746 10.092c-2.922-1.478-3.627-3.56-3.627-3.56 3.963-5.709 9.974-6.078 9.974-6.078-4.534 4.298-6.347 9.638-6.347 9.638m-8.933 1.612s-2.922-2.788-3.526-6.163c0 0 5.843-7.32 15.716-6.531 0 0-7.556 3.694-12.19 12.694m28.096-23.438s.645-.219 1.198-.369c0 0-13.328-11.124-39.8-7.87 0 0 3.376 1.396 6.301 2.954 0 0-4.628 1.36-9.334 7.714 0 0 .634-.024 4.243-.129 0 0-3.807 2.742-5.18 9.566 0 0 2.14-.766 5.444-1.585 0 0-2.537 4.44.804 12.451 0 0 1.409-1.712 3.317-3.464 0 0 1.183 4.371 5.65 7.393 0 0 1.646-3.837 3.45-6.347 0 0 1.471 2.65 5.805 3.972 4.149-12.63 15.062-12.102 15.062-12.102 5.524-.134 2.112 4.336 2.112 4.336s6.855-1.992 8.098-8.339c0 0 1.014-4.466-7.17-8.18m-31.814 41.71l-.443-1.894-.21-1.178-.508 1.178-.954 1.895h2.115zm4.396 4.507c-.734.129-1.5.221-2.2.221-.405 0-.786-.037-1.128-.092l-.444-1.895H22.3l-.954 1.895c-.504.055-1.022.073-1.518.073-.644 0-1.244-.054-1.702-.202l6.007-11.68c.565-.092 1.156-.11 1.708-.11.57 0 1.064.018 1.604.11l2.766 11.68zm20.792-1.324a6.92 6.92 0 01-.343 1.453h-7.928l1.592-11.81a10.422 10.422 0 011.675-.147 9.72 9.72 0 011.636.148l-1.19 8.829h4.617c.04.515.01 1.012-.059 1.527"/><g transform="translate(61.771 55.697)"><mask id="b" fill="#fff"><use xlink:href="#a"/></mask><path fill="#003087" d="M.007 11.07C.234 9.93.927 8.88 1.8 8.402c.714.57 1.993 1.049 3.409 1.049 1.085 0 1.48-.203 1.533-.589.062-.46-.135-.644-2.07-1.158-1.99-.516-3.634-1.288-3.325-3.716C1.659 1.54 3.808.07 6.714.07c2.134 0 3.51.699 4.101 1.232-.212 1.03-.84 2.133-1.852 2.686-.582-.46-1.61-.883-2.916-.883-.92 0-1.41.22-1.459.588-.057.423.073.552 2.227 1.086 2.064.514 3.425 1.47 3.203 3.531-.294 2.723-2.329 4.176-5.29 4.176-2.521 0-4.001-.754-4.721-1.416" mask="url(#b)"/></g><path fill="#003087" d="M60.724 64.964H55.83l.219-1.618h4.194c.174-.479.276-.957.34-1.435a6.3 6.3 0 00.049-1.454h-4.194l.196-1.453h4.727c.178-.496.279-.975.346-1.471.064-.478.094-.975.048-1.454h-9.5l1.265 1.463-1.395 10.347h8.204a7.12 7.12 0 00.346-1.472c.064-.477.095-.974.049-1.453m-43.53 0H12.3l.218-1.618h4.194a6.81 6.81 0 00.341-1.435 6.3 6.3 0 00.049-1.454h-4.194l.196-1.453h4.727c.177-.496.279-.975.346-1.471a6.41 6.41 0 00.048-1.454h-9.5l1.265 1.463L8.595 67.89h8.204c.177-.496.279-.975.346-1.472.064-.477.094-.975.048-1.453"/><g transform="translate(30.668 55.446)"><mask id="d" fill="#fff"><use xlink:href="#c"/></mask><path fill="#003087" d="M6.18 5.39c-.422.728-.553 1.616-.545 2.42h1.854l-.296 1.818a8.33 8.33 0 01-1.02.055c-1.692 0-2.595-1.214-2.335-3.145.266-1.969 1.454-3.146 3.238-3.146.81 0 1.537.203 2.09.608 1.046-.534 1.867-1.711 2.174-2.76C10.516.67 9.25.229 7.558.229 3.603.229.724 2.896.225 6.593c-.5 3.716 1.501 6.2 5.53 6.2 2.225 0 3.467-.48 4.449-.94l.867-6.464H6.179z" mask="url(#d)"/></g><path fill="#003087" d="M23.924 49.872c-.11 0-.206.007-.287.015l-.053.004-.01.052a17.515 17.515 0 01-1.112 3.478c-.145-.881-.258-1.97-.343-3.316l-.003-.055-.054-.01a2.738 2.738 0 00-.55-.052c-.207 0-.395.016-.575.051l-.049.01-.008.048c-.155.928-.562 2.157-1.099 3.328a22.68 22.68 0 01-.237-3.466v-.062l-.061-.01a2.313 2.313 0 00-.344-.022c-.274 0-.607.034-.87.088l-.059.012.003.06c.065 1.779.285 3.284.674 4.6l.013.045.046.006c.203.028.39.052.625.052.176 0 .392-.02.594-.052l.031-.005.018-.027c.283-.44.784-1.306 1.07-2.324.05.697.132 1.457.344 2.303l.012.045.045.008c.204.036.383.052.6.052.218 0 .419-.018.596-.052l.03-.006.016-.026c.902-1.394 1.439-3.036 1.884-4.601l.018-.062-.06-.024c-.122-.049-.547-.085-.845-.085zm4.898.043h-3.06l-.646 4.776h3.121l.02-.039c.146-.291.187-.581.141-1l-.007-.063h-1.902l.108-.81h1.635l.02-.04c.124-.255.166-.565.128-.948l-.007-.064h-1.636l.091-.709h1.844l.02-.04c.158-.329.198-.61.14-1.002l-.01-.06zm2.799-.122c-.633 0-1.17.196-1.514.554-.278.29-.416.668-.398 1.093.039.96.795 1.217 1.348 1.404.4.135.645.229.654.444.005.11-.02.19-.076.249-.09.093-.264.138-.533.138-.451 0-.92-.157-1.197-.4l-.038-.034-.044.025c-.312.175-.555.522-.635.907l-.008.039.029.027c.227.212.762.568 1.796.568.648 0 1.172-.19 1.516-.548.286-.298.427-.698.408-1.157-.041-1.004-.827-1.266-1.401-1.457-.336-.112-.6-.2-.608-.384a.228.228 0 01.063-.176c.092-.096.277-.146.534-.146.538 0 .902.222 1.033.318l.036.026.04-.02c.3-.161.544-.518.622-.909l.007-.038-.029-.028c-.125-.116-.61-.495-1.605-.495zm6.191.122h-3.659l-.018.046c-.109.274-.154.598-.138.989l.002.068h1.228l-.497 3.659.066.013c.17.035.348.052.544.052a2.9 2.9 0 00.56-.052l.05-.01.497-3.662h1.22l.018-.045c.112-.29.155-.614.132-.99l-.005-.068zm5.057-.165c-.734 0-1.402.275-1.881.774-.532.555-.805 1.351-.768 2.244.051 1.258.879 2.039 2.158 2.039.627 0 1.145-.16 1.542-.477l.028-.023-.002-.037c-.025-.413-.203-.719-.532-.91l-.042-.024-.038.03c-.218.168-.404.288-.817.288-.585 0-.95-.39-.977-1.043-.024-.563.127-1.042.422-1.35a1.09 1.09 0 01.805-.344c.315 0 .522.07.737.25l.037.03.042-.02a1.58 1.58 0 00.73-.888l.012-.043-.033-.03c-.233-.213-.67-.466-1.423-.466zm4.388.014c-.712 0-1.328.25-1.782.723-.519.54-.783 1.345-.746 2.267.052 1.275.872 2.067 2.138 2.067.718 0 1.338-.25 1.793-.724.517-.539.78-1.343.742-2.266-.052-1.275-.874-2.067-2.145-2.067zm.43 3.6a.973.973 0 01-.732.297c-.552 0-.885-.377-.912-1.036-.025-.614.116-1.113.396-1.404a.973.973 0 01.73-.297c.719 0 .893.563.913 1.036.025.614-.116 1.114-.395 1.405zm5.284-3.447a2.635 2.635 0 00-.542-.045c-.16 0-.371.005-.575.045l-.035.006-2.316 4.686.074.027c.149.056.345.084.584.084.187 0 .357-.01.506-.03l.039-.004.436-.91h1.484l.18.906.048.008c.14.025.273.038.396.038.214 0 .445-.028.726-.089l.07-.015-1.03-4.698-.045-.01zm-1.35 2.856l.478-1.004.09-.204.034.19.202 1.018h-.803zm5.502-2.98c-.632 0-1.17.196-1.513.554-.278.29-.416.668-.399 1.093.04.96.796 1.217 1.348 1.404.4.135.646.229.655.444.004.11-.02.19-.076.249-.09.093-.264.138-.534.138-.45 0-.92-.157-1.196-.4l-.039-.034-.044.025c-.31.175-.554.522-.635.906l-.008.04.03.027c.226.212.762.568 1.795.568.648 0 1.173-.19 1.517-.548.286-.298.427-.698.408-1.157-.041-1.004-.828-1.266-1.402-1.457-.335-.112-.6-.2-.608-.384a.229.229 0 01.064-.176c.092-.096.277-.146.534-.146.537 0 .901.222 1.033.318l.036.026.04-.02c.3-.161.544-.518.621-.909l.008-.038-.029-.028c-.125-.116-.61-.495-1.606-.495zm6.196.19l-.004-.068h-3.659l-.018.046c-.11.274-.155.598-.139.989l.003.068h1.228l-.497 3.659.066.013c.17.035.347.052.544.052a2.9 2.9 0 00.56-.052l.05-.01.497-3.662h1.22l.018-.045c.112-.29.155-.614.131-.99z"/><path fill="#FFF" d="M46.068 22.87c-.674-.202-.74-.763-.74-.763s.948-.079 2.308.141c0 0-.977.269-1.568.621"/><path fill="#F2A900" d="M62.158 26.779c2.922 3.778-2.776 8.492-2.776 8.492 1.143-3.241-3.054-3.558-3.054-3.558-2.14-2.733-16.267-1.727-16.267-1.727 5.102-2.691 14.477-5.74 14.477-5.74-.643-.707-2.335-1.49-2.335-1.49.486-.17.939-.323 1.351-.457 0 0-2.36-1.481-6.105-2.514 0 0 1.008.52 3.082 2.275 0 0-4.455-2.07-12.842-1.654 0 0 1.877.718 4.962 2.544 0 0 .474-.435 1.356-.645-.08 1.116 1.405 2.133 3.319 2.271.73.053 1.416-.03 1.991-.215 0 0-.953 1.091-3.144 1.075-2.644-.009-3.417-1.411-3.417-1.411s-3.685 1.117-5.952 2.334c0 0 2.376-.185 5.247-.05 0 0-8.265 3.102-20.073 14.176 0 0-1.872-5.817 1.967-10.296 0 0 1.33-1.056 6.884-2.92 0 0-8.094 1.67-12.867 3.262 0 0 1.16-4.634 7.053-7.433 0 0 1.85-.557 7.091-1.15 0 0-5.228-.377-11.858.203 0 0 3.463-4.125 8.903-5.233 0 0 .598-.082 4.009-.063 0 0-3.111-1.042-7.68-2.066 0 0 18.728-1.51 30.463 6.792 0 0-.584.195-1.252.44 0 0 5.364 1.933 7.467 4.758m-5.613-1.268s.334-.4 1.052-.755c0 0-1.37-.232-2.706.637 0 0 1.284-.027 1.654.118m-10.333 7.765s4.218-1.127 8.89-1.37c0 0-1.545-.83-5.304-.691 0 0-1.832 1.083-3.586 2.061m-7.746 10.092s1.813-5.34 6.347-9.639c0 0-6.012.37-9.974 6.079 0 0 .705 2.082 3.627 3.56m-12.46-4.55s5.844-7.321 15.717-6.532c0 0-7.556 3.694-12.19 12.694 0 0-2.922-2.788-3.526-6.163"/><path d="M0 0h80v80H0z"/></g></svg>