<svg width="80" height="80" fill="none" xmlns="http://www.w3.org/2000/svg"><path d="M60.619 16.454V14.33l-3.114-4.124h2.02l1.815 2.536c.145.186.186.268.206.35h.021c.02-.082.062-.164.206-.35l1.877-2.536h1.917l-3.134 4.124v2.124h-1.814zm-34.805 0V14.33l-3.134-4.124h2.042l1.814 2.536c.144.186.186.268.206.35h.02c.021-.082.063-.164.207-.35l1.876-2.536h1.918l-3.134 4.124v2.124h-1.815zm-5.299-1.774c0-.391-.268-.536-1.01-.618l-1.917-.206c-1.526-.165-2.268-.722-2.268-1.877 0-1.237 1.216-1.979 3.36-1.979 1.567 0 2.805.412 3.588 1.299l-1.134.948c-.454-.66-1.34-1.03-2.536-1.03-.97 0-1.505.226-1.505.66 0 .37.247.535 1.051.597l1.712.186c1.732.185 2.433.68 2.433 1.835 0 1.381-1.279 2.165-3.547 2.165-1.855 0-3.299-.619-3.938-1.608l1.278-.887c.516.722 1.485 1.237 2.763 1.237 1.134 0 1.67-.227 1.67-.722zm22.083 1.774H40.99v-6.248h1.897l3.257 3.547c.206.247.372.453.495.7h.041v-4.247h1.609v6.248h-1.773l-3.382-3.588c-.165-.186-.412-.515-.495-.722h-.041v4.31zm14.041 0h-6.37v-6.248h6.308v1.258h-5.01v.02c.144.062.35.227.474.33v.887h4.392v1.155h-4.866v.02c.144.062.35.227.474.33v.97h4.598v1.278zm-23.072-1.217v-3.464a3.292 3.292 0 00-.474-.33v-.04h2.391c1.279 0 2.166.618 2.166 1.855 0 1.258-.805 2-2.145 2h-1.938v-.02zm5.959-2.02c0-1.96-1.464-3.01-3.773-3.01h-3.98v6.247h3.938c2.248 0 3.815-1.279 3.815-3.238zm3.051 39.505v1.402h-.556c.04-.083.082-.145.123-.268l.289-.742a1.01 1.01 0 00.144-.392zm-3.711 1.567v.309c0 .247-.103.371-.289.371-.206 0-.309-.124-.309-.371v-.33c0-.206.062-.33.206-.412l.062.02c.247.103.33.186.33.413zm-.577-1.279v-.268c0-.226.082-.35.268-.35.185 0 .268.103.268.35v.289c0 .186-.062.289-.186.371l-.062-.02c-.185-.083-.288-.186-.288-.372zm5.257 1.63h-.35v.742h-.64v-.743h-1.05v-.474l.906-2.124h.763v2.103h.35v.495h.021zm-2.68.742h-.66v-.186c0-.99.289-1.876.742-2.619h-1.113v-.536h1.753v.433c-.475.701-.68 1.588-.701 2.495v.413h-.021zm-1.36-.825c0 .536-.372.886-.95.886-.597 0-.948-.33-.948-.886v-.227c0-.289.165-.515.454-.64-.268-.144-.412-.37-.412-.72v-.186c0-.495.35-.825.907-.825.556 0 .886.288.886.804v.206c0 .289-.123.474-.37.619.308.144.432.37.432.763v.206zm-2.434.825h-.639V52.99c-.103.082-.289.123-.454.123h-.062v-.618h.062a.596.596 0 00.598-.454h.516v3.34h-.02zM31.01 33.464a.533.533 0 01-.495-.371c0-.02-.02-.041-.02-.083v-.061a.51.51 0 01.515-.516.51.51 0 01.516.516.524.524 0 01-.516.515zm-6.515 4.474c-.103.31-.289.516-.495.619-.103.041-.206.062-.31.02-.309-.103-.432-.536-.288-.99.02-.04.041-.082.041-.123.165-.371.474-.598.743-.515.33.082.453.536.309.99zm22.474 17.67c3.588-7.154 3.567-11.897 2.66-14.68-.887-3.278-2.763-4.392-4.103-4.701a1.832 1.832 0 00-.516-.062c-.288-.02-.68 0-1.03.124-.166.062-.31.123-.434.247a2.997 2.997 0 00-.7.784c-.042.062-.083.123-.124.165-.021.04-.062.061-.083.103-1.175 1.381-2.948 2.268-2.948 2.268-1.608.866-3.3.783-4.371.577-.371-.082-1.258-.35-2.165-1.072-.124-.103-.227-.186-.33-.289l-.186-.185c-.02-.042-.062-.062-.082-.103-.949-1.155-1.093-2.619-.99-3.835 0-.042.02-.248.165-.392l.082-.083.021-.02.02-.021c.228-.165.351-.124.64-.268.35-.165.66-.454.845-.845l.062-.124a2.29 2.29 0 00.144-.598v-.123c0-.557-.288-1.073-.742-1.34a7.881 7.881 0 011.608-2.166c.062-.041.104-.103.165-.144l.02-.02.022-.021c.762-.66 1.649-1.155 2.061-1.361.062-.041.124-.062.186-.103-.062 0-.144.02-.206.02-.846.124-4.516.784-6.31 3.835-.02.02-.04.062-.061.103v.021a3.03 3.03 0 01-.186.31 5.87 5.87 0 00-.268.515c-.082.165-.165.33-.268.495-.082.165-.165.309-.227.453a24.45 24.45 0 01-.515.866c-.578.804-1.34 1.567-2.206 1.773a1.72 1.72 0 01-.454.062c-.33 0-.619-.062-.825-.144-.02-.02-.041-.02-.082-.041-1.114-.619-.598-2.206-.35-2.784v-.02c1.649-3.609 5.69-7.485 10.102-9.691 1.856-.928 3.794-1.567 5.65-1.753a16.748 16.748 0 011.835-.123h.577c.103 0 .227 0 .33.02h.186c-1.774-.453-5.072-.68-8.949 1.134l-.041-.062-.907-1.835-.97-1.917L14 18.537l9.237 18.494c-.783 1.526-.804 2.907-.392 3.753l.062.123c.145.268.598.887 1.444.701.061-.02.144-.04.206-.062l.123-.061c.268-.124.433-.33.516-.516a1.48 1.48 0 00.144-.536c.206.536.35 1.155.454 1.773.165.866.227 1.753.165 2.516 0 0 .845-1.402 1.03-3.031v-.02c.186-1.423.042-2.743 0-3.3v-.35c0-.042 0-.206.042-.392 0 0 .02-.103.062-.247.062-.145.165-.33.33-.454 0 0 .515-.268.763-.103.04.02.103.082.165.123l.02.021.02.02c.021.021.042.063.063.083.082.124.185.268.288.474.516.949 1.464 1.753 1.608 1.856a12.7 12.7 0 002.908 1.65c-.887 1.835-2.784 3.979-4.825 5.979-.062.041-.103.103-.165.144l-.02.02c-1.877 1.815-3.815 3.527-5.238 4.62a5.56 5.56 0 00-.866.804 2.756 2.756 0 01-.144-.371c-.124-.392-.103-.805 0-1.217l.062-.247c.557-1.918 2.618-4.31 2.536-8.227-.495 3.794-3.856 7.526-4.186 9.546-.103.68-.082 1.258.062 1.732v.02c.041.124.083.248.145.372 0 0 0 .02.02.02 0 0 0 .021.02.021.104.206.248.371.393.495a2 2 0 00.515.371c.082.041.165.083.247.103.083.02.145.041.186.062h.041c0-.041.103-.804.784-1.67a4.65 4.65 0 01.907-.887c.31-.247 1.485-1.154 2.948-2.453a57.776 57.776 0 002.165-1.98l.062.124L39.691 70l7.278-14.392zm4.887-22.185c2.804 3.093 1.711 6.886 1.711 6.886.041-4.309-2.35-6.35-3.258-7.36 1.67-.475 2.825-.062 3.031-.021h.02c-.72-2.083-2.72-3.65-4.494-4.598.825-.495 2.041-.515 2.041-.515s-.907-.928-2.824-1.588a10.565 10.565 0 00-1.403-.371 13.736 13.736 0 00-3.443-.207c-.68.042-1.402.145-2.165.29 0 0 .928-.372 2.33-.599 2.371-.37 6.103-.309 9.031 2.97-.35.02-1.258-.042-2 .185 1.567.845 3.67 3.505 3.856 5.402-1.423-.66-2.433-.474-2.433-.474zm7.958-3.526l-1.072 2.247-.123.289a16.304 16.304 0 00-2.64-4.907c-3.979-5.072-9.814-6-10.536-6.103h-.082l.433-.887.948-1.98h18.804l-5.732 11.341z" fill="#E41E31"/></svg>