<svg xmlns="http://www.w3.org/2000/svg" width="80" height="80"><g fill="none" fill-rule="evenodd"><path fill="#8B0042" d="M15.159 27.159V18.62c0-.954 0-1.634-.759-2.314h5.213c-.74.68-.758 1.36-.758 2.314v8.636c.719.233 1.4.35 2.12.35.971 0 1.789-.292 2.664-.894l-.7 2.78H14.4c.74-.7.759-1.4.759-2.333m13.71 2.333h-5.213c.739-.7.759-1.4.759-2.333V18.62c0-.953 0-1.634-.76-2.314h5.213c-.738.68-.758 1.36-.758 2.314v8.539c0 .933.02 1.634.758 2.333m7.7-1.613c2.043 0 3.423-1.557 3.423-4.377 0-3.346-1.516-5.407-3.656-5.407-2.003 0-3.405 1.556-3.405 4.356 0 3.365 1.518 5.428 3.639 5.428m-7.567-5c0-1.808.836-3.656 2.354-5.017 1.361-1.206 3.15-1.869 5.095-1.869 4.416 0 7.47 2.86 7.47 6.906 0 1.809-.837 3.695-2.354 5.037-1.362 1.226-3.151 1.868-5.116 1.868-4.376 0-7.449-2.898-7.449-6.925"/><path fill="#8B0042" d="M44.788 26.186v-7.08c0-.933-.02-1.692-1.05-2.8h4.064l5.99 8.071v-5.212c0-.895-.077-1.751-.933-2.86h3.773c-.718 1.187-.778 2.062-.778 2.918v10.601c-2.86-.332-3.811-1.693-5.018-3.268l-3.987-5.193v5.601c0 1.011.078 1.75.875 2.528h-3.851c.915-.992.915-1.925.915-3.306m15.948 1.478c1.245 0 2.003-.641 2.004-1.459 0-1.244-1.362-1.594-3.21-2.547-1.828-.934-2.78-2.276-2.78-3.832 0-2.237 1.808-3.832 4.842-3.832 1.128 0 2.18.214 3.307.622v2.218c-1.109-.564-2.004-.895-2.743-.895-1.05 0-1.73.584-1.73 1.284 0 1.09 1.4 1.478 3.676 2.724 1.517.835 2.216 1.983 2.216 3.577 0 2.471-2.042 4.182-5.192 4.182-1.304 0-2.568-.253-3.91-.7l-.681-2.8c1.536.933 2.84 1.458 4.201 1.458"/><path fill="#0055A3" d="M25.49 14.078c.392 0 .659-.306.659-.723 0-.469-.267-.762-.665-.762-.059 0-.143.014-.254.026v1.433c.124.02.209.026.26.026m-.084-2.09c.28 0 .456-.195.456-.527 0-.28-.176-.496-.443-.496-.033 0-.097.007-.189.02v.99c.078.013.137.013.176.013m-1.426 1.947v-2.86c0-.319-.007-.546-.254-.774h1.641c1.107 0 1.667.39 1.667 1.042 0 .385-.228.69-.664.879.592.176.905.567.905 1.153 0 .345-.124.664-.351.911-.34.359-.73.43-1.297.43h-1.9c.246-.234.253-.468.253-.781m6.423-2.312c0-.404-.235-.658-.626-.658-.032 0-.064 0-.097.007v1.504c.475-.124.723-.423.723-.853zm-2.214 3.093c.247-.234.254-.468.254-.781v-2.86c0-.318 0-.546-.254-.774h1.719c1.14 0 1.713.384 1.713 1.179 0 .475-.261.814-.808 1.074l.8 1.368c.125.208.313.456.587.736l-.736.071c-.058.007-.117.007-.176.007-.488 0-.749-.241-1.035-.795l-.573-1.12v1.114c0 .313.006.547.254.781h-1.745zm6.251 0h-1.745c.248-.234.254-.468.254-.782v-2.858c0-.32 0-.547-.254-.775h1.745c-.247.228-.253.455-.253.775v2.858c0 .314.006.548.253.782m2.293-.612c.417 0 .67-.215.67-.488 0-.417-.455-.534-1.074-.853-.612-.313-.932-.762-.932-1.283 0-.749.607-1.283 1.622-1.283.377 0 .73.071 1.107.208v.742c-.37-.188-.67-.299-.918-.299-.351 0-.58.195-.58.43 0 .365.47.495 1.23.911.509.28.744.665.744 1.198 0 .827-.684 1.4-1.739 1.4-.437 0-.86-.084-1.309-.234l-.228-.937c.514.312.95.488 1.407.488m4.423-.026c.391 0 .658-.306.658-.723 0-.469-.267-.762-.664-.762-.059 0-.143.014-.254.026v1.433c.124.02.208.026.26.026m-.085-2.09c.28 0 .457-.195.457-.527 0-.28-.176-.496-.443-.496a1.58 1.58 0 00-.189.02v.99a.997.997 0 00.175.013m-1.426 1.947v-2.86c0-.319-.006-.546-.254-.774h1.642c1.106 0 1.667.39 1.667 1.042 0 .385-.228.69-.664.879.592.176.905.567.905 1.153 0 .345-.124.664-.352.911-.339.359-.729.43-1.296.43h-1.902c.248-.234.254-.469.254-.781m6.156-1.146l-.449-1.361-.456 1.36h.905zm-2.077 1.27l1.036-2.963c.038-.118.097-.228.097-.371 0-.15-.078-.267-.215-.424h1.563l1.25 3.621c.112.313.28.592.489.794H46.03c.149-.17.234-.28.234-.455a.661.661 0 00-.033-.222l-.222-.632h-1.328l-.208.606a.935.935 0 00-.059.267c0 .156.072.3.209.436h-1.296c.176-.208.312-.416.397-.658zm4.884-.45v-2.37c0-.312-.006-.567-.352-.938h1.362l2.005 2.702v-1.745c0-.299-.025-.586-.312-.957h1.263c-.24.397-.26.69-.26.977v3.549c-.958-.11-1.277-.567-1.68-1.094l-1.336-1.739v1.875c0 .34.027.587.294.847h-1.29c.306-.332.306-.644.306-1.107m5.151.326v-2.86c0-.318 0-.546-.253-.774h2.585v.918c-.221-.208-.385-.254-.632-.254h-.45v1.1h.847v.848c-.103-.144-.267-.222-.475-.222h-.371v1.328c.162.033.326.06.488.06.443 0 .782-.079 1.108-.327l-.235.964h-2.865c.247-.234.253-.468.253-.781"/><path fill="#EDC157" d="M39.198 25.5s-3.456-.444-7.018.985c0 0 .474.526.414.877 0 0-4.935 1.087-6.728 4.16 0 0 .71.06.887.527 0 0-3.784 2.455-3.902 4.967 0 0 1.419.41.65 1.053s-3.252 1.694-3.37 3.156c0 0 1.53-.091 1.124 1.344-.14.495-.442 1.742-.442 3.446 0 14.252 19.593 24.169 19.593 24.169s19.613-9.917 19.613-24.169c-.004-.343-.094-3.383-1.044-5.025 0 0 .316-.215.65-.175 0 0-.14-1.496-1.82-3.347-.751-.828-.981-2.276.046-2.38 0 0-.117-.894-2.108-1.219-.482-.078-.54-.058-.824-.526-.26-.428-.445-1.413-.117-2.037 0 0-.771-.316-1.344.009 0 0-1.637-3.591-3.647-4.117 0 0-.03.34-.34.537 0 0-2.543-2.896-5.02-2.987 0 0 .021.455-.21.779 0 0-2.736-.83-5.1-.742 0 0 .216.418.057.714"/><path fill="#8B0042" d="M26.462 38.29s-.806.402-2.062.488c0 0 .796.624 2.225.604 0 0-.125-.556-.163-1.093"/><path fill="#8B0042" d="M59.361 46.908c-.685-6.23-3.7-8.784-3.7-8.784 1.327-.103 2.365.973 2.365.973-2.136-4.147-4.34-5.046-5.287-5.238 1.356.842 2.298 2.992 1.075 6.886-1.26-2.175-2.518-2.755-2.518-2.755.68-.386 1.748.207 1.748.207-.83-2.015-2.875-1.956-2.875-1.956.86-.77 2.282-.237 2.282-.237-1.676-1.633-4.325-.946-4.325-.946s1.343-1.725 3.294-1.619c.294.016.593.08.883.198.32-1.134 1.451-1.47 1.451-1.47-1.897-.562-4.132.89-4.132.89.902-2.075.666-4.09.666-4.09-1.48 3.952-3.463 5.688-3.463 5.688 1.81-3.549-.31-8.095-.31-8.095.73 4.747-1.62 7.289-1.62 7.289.412-5.716-2.081-7.49-2.081-7.49 1.879 2.896.316 7.059.316 7.059-1.113-5.784-5.898-6.925-5.898-6.925 4.7 2.867 3.999 8.603 3.999 8.603-.882-4.68-4.594-6.58-4.594-6.58 2.244 2.13 2.58 5.735 2.58 5.735-3.423-6.914-9.504-5.178-9.504-5.178 5.783.527 7.125 5.227 7.125 5.227-3.558-4.67-8.43-3.242-8.43-3.242 3.693.23 5.112 3.012 5.112 3.012-4.728-3.626-8.909 1.016-8.909 1.016 1.338-.444 1.85.298 1.85.298-1.447.67-2.06 1.793-2.06 1.793 1.342-.403 2.032-.135 2.032-.135.01-.354.23-2.876 2.302-3.48 2.285-.667 3.932 1.505 3.932 1.505-2.973-.633-4.296.94-4.296.94 1.592-.527 2.253.25 2.253.25-2.273.086-2.865 1.94-2.865 1.94 1.218-.605 1.753-.196 1.753-.196-3.15 3.165-6.912 2.077-6.912 2.077 2.879 1.88 6.426.868 6.426.868-3 2.21-6.855 1.517-6.855 1.517 3.859 2.209 6.036 1.296 6.036 1.296-1.553 2.232-6.29 2.097-6.29 2.097 2.934 1.9 6.29.844 6.29.844-.887 1.348-2.762 1.535-2.762 1.535 1.928.877 3.223.46 3.223.46-1.515 1.49-4.868.85-4.868.85 2.594 2.113 6.019 1.336 6.019 1.336-3.477 2.432-7.174.234-7.174.234 2.628 2.806 7.407 2.548 7.407 2.548-1.83 1.266-4.074.77-4.074.77 1.86 1.546 3.329 1.474 3.329 1.474-2.072.895-4.618-.185-4.618-.185 2.171 2.668 6.178 2.533 6.178 2.533-1.298.864-3.645.4-3.645.4 3.35 2.253 6.267 1.734 6.267 1.734-2.64 1.047-4.667.4-4.667.4 3.39 1.816 5.437 1.644 5.437 1.644-1.185.887-2.297.575-2.297.575s2.364 1.904 3.998 3.116c2.845 1.943 4.447 2.774 4.447 2.774 8.95-5.063 8.31-7.8 8.31-7.8.666.589.848 1.424.848 1.424 3.117-2.587 3.462-6.136 3.462-6.136.748 1.41-.063 3.503-.063 3.503 3.602-3.934 2.332-7.835 2.332-7.835 1.074.384 1.228 2.91 1.228 2.91 3.702-6.397.234-11.395.234-11.395 1.247.388 2.603 3.339 2.603 3.339"/><path fill="#69003D" d="M59.361 46.908c-.685-6.23-3.7-8.784-3.7-8.784 1.327-.103 2.365.973 2.365.973-2.136-4.147-4.34-5.046-5.287-5.238 1.356.842 2.298 2.992 1.075 6.886-1.26-2.175-2.518-2.755-2.518-2.755.68-.386 1.748.207 1.748.207-.83-2.015-2.875-1.956-2.875-1.956.86-.77 2.282-.237 2.282-.237-1.676-1.633-4.325-.946-4.325-.946a10.24 10.24 0 00-.563.114s-2.13-.297-4.277.432c-2.536.86-2.726 3.654-2.883 3.654-.156 0-.355-2.794-2.89-3.654-2.149-.729-4.278-.432-4.278-.432s1.308.291 1.284.734c-.015.28-.468.36-.958.465-.246.053-1.237.297-1.733.812 0 0 1.128-.177 1.275.14.181.388-1.123 1.065-2.67 1.628 0 0 .692-.041.863.345.225.508-.321 1.167-.54 1.477-2.344 3.318-1.474 6.055-.373 7.974.746 1.3 3.024 4.94 3.024 4.94s-.438.87-.34 2.054c.127 1.56.127 2.288.837 3.12.25.293.863 1.112.787 1.918-.101 1.056.23 2.09 1.361 2.876 0 0 .153-.383.442-.46 0 0 .31.512 1.477 1.132 1.466.78 2.318 1.57 2.411 4.559a.629.629 0 01.025.012c8.95-5.063 8.31-7.8 8.31-7.8.666.589.848 1.424.848 1.424 3.117-2.587 3.462-6.136 3.462-6.136.748 1.41-.063 3.503-.063 3.503 3.602-3.934 2.332-7.835 2.332-7.835 1.074.384 1.228 2.91 1.228 2.91 3.702-6.397.234-11.395.234-11.395 1.247.388 2.603 3.339 2.603 3.339"/><path fill="#EDC157" d="M51.414 46.115c.27-1.46.06-3.54-1.358-5.342-.15-.19-1.071-1.31-1.682-2.037-.35-.418-.913-.949-.806-1.263.181-.523 1.402-.29 1.402-.29-.44-.505-1.34-.696-1.733-.812-.425-.124-.943-.185-.958-.465-.024-.443 1.283-.734 1.283-.734s-2.128-.297-4.277.432c-2.535.86-2.725 3.654-2.882 3.654-.156 0-.355-2.794-2.89-3.654-2.149-.729-4.278-.432-4.278-.432s1.308.291 1.284.734c-.015.28-.468.36-.958.465-.246.053-1.237.297-1.733.812 0 0 1.127-.177 1.275.14.18.388-1.124 1.066-2.67 1.628 0 0 .691-.041.862.345.226.508-.32 1.167-.54 1.477-2.343 3.318-1.473 6.055-.372 7.974.746 1.3 3.024 4.94 3.024 4.94.49-1.007 1.372-1.204 1.372-1.204-.589.357-.903.928-1.068 1.5a10.185 10.185 0 013.847.337.26.26 0 01.172.33c-.057.19-.249.192-.328.166a10.02 10.02 0 00-3.13-.498c-1.477 0-2.88.32-4.142.891l.032.092a9.704 9.704 0 013.435-.789 5.172 5.172 0 00-.053.633 9.07 9.07 0 013.61.241c.092.026.23.14.182.32-.049.186-.247.21-.321.186a8.878 8.878 0 00-2.743-.433c-1.346 0-2.622.3-3.767.837l.03.09a8.577 8.577 0 013.02-.73c.009.13.05.462.075.622l-.004.002a7.877 7.877 0 013.12.172c.095.025.238.132.19.312-.054.208-.25.212-.328.188a7.773 7.773 0 00-5.726.436l.03.087a7.433 7.433 0 012.807-.682c.045.245.087.465.107.588.194 1.14 1.348 1.521 2.142 1.144.058-.027 2.882-1.374 2.974-1.416a2.536 2.536 0 001.464-1.988c.113.886.68 1.632 1.464 1.988.092.042 2.917 1.389 2.974 1.416.795.377 1.949-.003 2.142-1.144.025-.153.065-.36.105-.588 1 .044 1.948.283 2.808.682l.031-.087a7.763 7.763 0 00-5.733-.434.26.26 0 01-.319-.172c-.058-.175.086-.303.177-.327a7.858 7.858 0 013.122-.177c.006-.038.062-.38.082-.622a8.565 8.565 0 013.017.73l.03-.09a8.853 8.853 0 00-3.767-.837 8.87 8.87 0 00-2.74.432c-.076.025-.266.006-.32-.175a.263.263 0 01.175-.329 9.002 9.002 0 013.624-.24 4.47 4.47 0 00-.054-.635 9.712 9.712 0 013.426.79l.032-.093a10.015 10.015 0 00-4.143-.89c-1.095 0-2.15.175-3.137.5-.076.025-.277.005-.325-.18a.263.263 0 01.168-.317 10.158 10.158 0 013.865-.338h-.004a4.196 4.196 0 00-.102-.305c-.472-1.231-1.67-1.504-1.67-1.504s.611-.725.134-1.89l-.638-1.51s1.075.853 2.584.883c2.598.053 3.741-2.14 4-3.543"/><path fill="#EDC157" d="M39.56 62.007s-.447.232-.655.777c0 0-.577-.38-.637-1.035 0 0-.601.23-.837.797 0 0-.629-.252-.625-.987 0 0-.418.246-.63.75 0 0-.723-.888-.643-1.77.106-1.165 1.026-1.545 1.16-1.611A285.61 285.61 0 0139.06 57.8a3.44 3.44 0 011.333-.282c.491 0 .942.117 1.333.282.106.044 2.234 1.06 2.368 1.128.134.066 1.06.446 1.16 1.611.075.863-.584 1.698-.642 1.77 0 0-.168-.449-.63-.75 0 0-.076.686-.626.987 0 0-.183-.518-.837-.797 0 0-.011.576-.637 1.035 0 0-.153-.493-.763-.777 0 0-.047.728-.847 1.198 0 0-.198-.968-.712-1.198"/><path fill="#F8E3A2" d="M49.23 43.025a.133.133 0 00-.11-.09l-.047-.122h-.001c.032-.023.097-.086.082-.218-.019-.172-.152-.237-.265-.259-.739-.147-1.13-.435-1.373-.607-.242-.172-.413-.256-.713-.256-.927 0-2.672 1.359-3.2 1.359a.346.346 0 01-.29-.164l-.005-.01c-.627.878-.256 1.733 0 2.357.059.143 1.077 2.63 1.12 2.739l.003.007s.252-.154.265-.498c.016-.407.429-1.328 1.455-1.327 1.108.002 2.014-.435 2.341-1.669.05-.186.202-.757.666-1.05.06-.037.106-.106.073-.192M30.515 44.12c.27-1.283 1.125-1.178 1.178-1.184l.046-.123h.001c-.032-.023-.097-.087-.083-.218.02-.172.153-.236.266-.259.738-.147 1.131-.435 1.373-.607s.412-.256.713-.256c.927 0 2.672 1.359 3.2 1.359.177 0 .269-.13.29-.164l.004-.011c.628.878.256 1.734 0 2.358-.057.144-1.076 2.63-1.12 2.739l-.002.007-1.038 2.524c-.473 1.095.134 1.89.134 1.89-1.108 0-2.351-1.03-4.055-3.814-1.022-1.67-1.092-3.362-.907-4.24"/><path fill="#69003D" d="M43.308 42.657c.19.53.67.537.963.45a33.565 33.565 0 001.947-.663c.578-.23.73-.124 1.029.01.876.389 1.826.36 1.826.36l.046.122c-.73.305-.948.622-1.315 1.217a2.215 2.215 0 01-1.87 1.025c-.643 0-.86-.268-1.178-.16-.176.06-.36.214-.422.582-.146.854.484 1.81.097 2.16 0 0-1.064-2.598-1.123-2.745-.255-.624-.627-1.48 0-2.358m-.208 10.06a.748.748 0 00-1.25.788l-1.445.912-1.446-.913a.748.748 0 00-1.25-.788l-.652-.41s-.859-.562-.898-1.088c-.016-.21.126-.386.376-.036.105.145.225.329.56.329.23 0 .609-.355 1.36-.355 1.11 0 1.21.501 1.949.501.738 0 .84-.501 1.949-.501.75 0 1.13.355 1.36.355.335 0 .455-.184.56-.33.25-.349.392-.173.376.037-.039.526-.898 1.087-.898 1.087l-.651.413zm-5.597-10.06c-.189.53-.67.537-.963.45a33.376 33.376 0 01-1.946-.663c-.579-.23-.73-.124-1.029.01-.877.389-1.826.36-1.826.36l-.046.122c.73.305.948.622 1.314 1.217a2.215 2.215 0 001.872 1.025c.642 0 .86-.268 1.177-.16.176.06.36.214.422.582.145.854-.917 2.608-.461 3.047l1.487-3.632c.255-.624.627-1.48 0-2.358"/><path fill="#FFF" d="M46.017 43.21a.188.188 0 11-.375 0 .188.188 0 01.375 0"/><path fill="#FFF" d="M45.938 44.572c.848 0 1.542-.653 1.607-1.485a3.474 3.474 0 01-.355-.134 1.44 1.44 0 00-.734-.105.68.68 0 11-1.248.41 6.046 6.046 0 01-.782.258 1.61 1.61 0 001.512 1.056M34.795 43.21a.188.188 0 10.375 0 .188.188 0 00-.375 0"/><path fill="#FFF" d="M34.874 44.572a1.612 1.612 0 01-1.608-1.485 3.42 3.42 0 00.355-.134c.214-.095.482-.135.735-.105a.68.68 0 101.248.41c.312.122.506.188.782.258a1.61 1.61 0 01-1.512 1.056"/><path d="M0 0h80v80H0z"/></g></svg>