<svg xmlns="http://www.w3.org/2000/svg" width="80" height="80"><g fill="none" fill-rule="evenodd"><path fill="#FFF" d="M63.086 38.672a1.36 1.36 0 00-.837-.439 6.97 6.97 0 00.638-2.036 1.36 1.36 0 00-.55-1.325c-.07-.05-.146-.09-.222-.126.098-.391.162-.808.19-1.253a1.362 1.362 0 00-.683-1.263c-.014-.008-.029-.014-.043-.02.077-.374.117-.77.114-1.195a1.361 1.361 0 00-1.112-1.33 5.642 5.642 0 00-.072-.65 1.36 1.36 0 00-1.166-1.123 4.878 4.878 0 00-.248-1.243 1.359 1.359 0 00-1.027-.904v-.682c-.783-.703-7.66-6.598-18.033-6.598-10.447 0-17.199 5.835-18.035 6.597v.67a1.36 1.36 0 00-1.094.917 4.9 4.9 0 00-.248 1.243 1.36 1.36 0 00-1.166 1.123 5.567 5.567 0 00-.072.65 1.36 1.36 0 00-1.112 1.33c-.002.424.037.821.114 1.194l-.043.02a1.364 1.364 0 00-.682 1.264c.027.445.091.862.19 1.253a1.344 1.344 0 00-.222.126 1.36 1.36 0 00-.55 1.325 6.97 6.97 0 00.637 2.036 1.36 1.36 0 00-1.09 1.852c.217.544.463 1.011.728 1.414a1.36 1.36 0 00-.537 1.802 8.43 8.43 0 001.096 1.654 1.352 1.352 0 00-.296.318 1.36 1.36 0 00-.038 1.435 8.647 8.647 0 001.383 1.812c-.099.102-.185.22-.249.352A1.362 1.362 0 0018.9 50.3c.716.92 1.454 1.577 2.176 2.04a1.357 1.357 0 00-.01 2.09c.788.661 1.55 1.124 2.272 1.441a1.36 1.36 0 00.17 2.248c1.193.681 2.28 1.04 3.259 1.19a1.36 1.36 0 00.608 2.138c1.204.422 2.268.59 3.202.59.753 0 1.419-.112 2.008-.284.109.15.228.268.361.34l.003.002c2.109 1.086 4.359 1.592 7.087 1.592 2.723 0 4.973-.506 7.085-1.594.128-.07.244-.18.35-.323a7.126 7.126 0 001.954.267c.933 0 1.998-.168 3.201-.59a1.361 1.361 0 00.608-2.137c.978-.152 2.067-.51 3.26-1.191a1.36 1.36 0 00.17-2.248c.722-.318 1.483-.78 2.27-1.44a1.357 1.357 0 00-.01-2.09c.723-.464 1.46-1.12 2.177-2.041.317-.409.376-.962.151-1.428a1.355 1.355 0 00-.25-.352 8.644 8.644 0 001.384-1.812 1.361 1.361 0 00-.038-1.435 1.353 1.353 0 00-.296-.318 8.34 8.34 0 001.096-1.654 1.36 1.36 0 00-.537-1.802c.265-.403.51-.87.727-1.414a1.36 1.36 0 00-.252-1.413"/><path fill="#FFF" d="M47.651 61.473l.002-.003-.002.003m.31-4.851l-.026-.103.026.104m-15.828-.107l-.026.106.026-.106m-.055.24"/><path fill="#000" d="M31.884 58.588c0-.033.009-.736.135-1.516.055-.337.125-.63.205-.886C27.341 52.735 22 47.452 22 40.846V26.077a1.04 1.04 0 00-.79.691c-.17.512-.246.998-.235 1.46a1.04 1.04 0 00-1.167.858 5.007 5.007 0 00-.072.899 1.038 1.038 0 00-1.108 1.03c-.003.53.06.989.167 1.388a1.04 1.04 0 00-.778 1.07c.034.563.128 1.051.261 1.48a1.037 1.037 0 00-.848 1.192c.174 1.064.517 1.871.93 2.487a1.042 1.042 0 00-1.4 1.334c.271.681.59 1.235.935 1.69a1.039 1.039 0 00-.757 1.498 7.72 7.72 0 001.32 1.881 1.038 1.038 0 00-.567 1.51c.502.86 1.05 1.506 1.606 1.996a1.04 1.04 0 00-.344 1.561c.787 1.012 1.662 1.764 2.609 2.26-.017.004-.033.005-.05.01a1.04 1.04 0 00-.44 1.812c.959.804 1.945 1.364 2.947 1.677a1.827 1.827 0 00-.443.117 1.041 1.041 0 00-.11 1.862c1.547.883 2.912 1.206 4.075 1.231-.175.058-.334.12-.488.221a1.04 1.04 0 00.228 1.852c1.16.407 2.185.568 3.084.568.689 0 1.302-.096 1.847-.247-.168-.34-.3-.793-.393-1.365a11.2 11.2 0 01-.135-1.513m30.964-19.702a1.041 1.041 0 00-1.207-.254c.414-.615.756-1.422.93-2.486a1.041 1.041 0 00-.848-1.191c.133-.43.227-.918.261-1.481a1.041 1.041 0 00-.778-1.07c.107-.4.17-.858.167-1.387a1.041 1.041 0 00-1.108-1.031 5.007 5.007 0 00-.071-.899 1.04 1.04 0 00-1.168-.858 4.297 4.297 0 00-.235-1.46 1.04 1.04 0 00-.723-.677v14.754c0 6.613-5.34 11.896-10.223 15.345.08.256.149.546.203.88.127.781.135 1.484.136 1.514 0 .032-.009.736-.136 1.516-.094.582-.23 1.04-.402 1.382.53.142 1.126.23 1.79.23.9 0 1.924-.162 3.085-.569a1.041 1.041 0 00.227-1.851 1.998 1.998 0 00-.488-.221c1.163-.025 2.528-.348 4.075-1.231a1.04 1.04 0 00-.11-1.862 1.846 1.846 0 00-.452-.119c.915-.282 1.911-.799 2.956-1.675a1.04 1.04 0 00-.44-1.813c-.017-.004-.032-.005-.049-.008.854-.446 1.747-1.153 2.608-2.26a1.04 1.04 0 00-.344-1.561c.557-.49 1.104-1.138 1.606-1.997a1.04 1.04 0 00-.567-1.51c.467-.48.917-1.094 1.32-1.88a1.039 1.039 0 00-.756-1.499 7.158 7.158 0 00.934-1.69 1.04 1.04 0 00-.193-1.081"/><path fill="#AB9767" d="M28.692 54.493c.404-.17.751-.224 1.015-.235a33.127 33.127 0 01-1.633-1.455c-1.17-.268-2.322.168-3.404.387-1.744.353-2.454.136-2.728.197 3.283 2.755 5.854 1.485 6.75 1.106m-2.64-2.643c.448-.085.81-.056 1.063-.005a24.78 24.78 0 01-1.573-1.807c-.966-.345-2.02-.2-2.982-.21-1.698-.02-2.317-.366-2.585-.364 2.51 3.23 5.164 2.56 6.077 2.386m-1.987-2.903c.282-.016.518.012.713.055-.415-.6-.795-1.22-1.132-1.86-.802-.35-1.712-.354-2.533-.473-1.552-.226-2.077-.618-2.323-.648 1.907 3.264 4.419 2.974 5.275 2.926m-1.193-3.24c.038 0 .071.004.108.006a13.85 13.85 0 01-.594-1.808c-.692-.296-1.469-.352-2.17-.494-1.448-.293-1.921-.69-2.151-.73 1.622 3.168 3.999 3.026 4.807 3.026m-.9-3.01c.063.006.118.016.175.026a12.326 12.326 0 01-.138-1.478c-.655-.485-1.49-.607-2.22-.828-1.27-.385-1.66-.78-1.862-.835 1.183 2.972 3.322 3.047 4.046 3.115m-.456-3.066a2.1 2.1 0 01.483.225V38.52c-.49-.716-1.323-1.017-2.013-1.404-1.08-.607-1.357-1.045-1.53-1.137.48 2.947 2.415 3.445 3.06 3.653m-.068-2.692c.257.112.433.25.55.367v-1.271c-.364-.71-1.094-1.06-1.685-1.475-.907-.637-1.113-1.051-1.258-1.149.16 2.666 1.837 3.284 2.393 3.528m-.022-2.92c.434.225.57.529.573.535v-1.02c-.2-.743-.857-1.097-1.37-1.51-.703-.566-.848-.915-.961-1.002-.012 2.177 1.319 2.77 1.758 2.997m.515-1.9c.021.016.038.032.058.048v-1.402c-.155-.172-.322-.332-.47-.497-.532-.593-.61-.917-.696-1.009-.318 1.895.758 2.6 1.108 2.86m33.39 21.071c-1.053-.213-2.173-.632-3.31-.406a33.07 33.07 0 01-1.658 1.478c.255.017.576.075.945.231.896.379 3.467 1.65 6.75-1.106-.274-.061-.984.156-2.727-.197m-.776-3.184a24.677 24.677 0 01-1.583 1.825c.247-.04.575-.057.977.019.912.173 3.565.843 6.076-2.386-.268-.002-.887.343-2.584.363-.93.012-1.947-.124-2.886.179m1.888-2.9a18.178 18.178 0 01-1.139 1.88 2.68 2.68 0 01.63-.04c.857.049 3.37.339 5.276-2.925-.246.03-.771.422-2.323.648-.79.115-1.663.122-2.444.436m1.246-3.23a13.847 13.847 0 01-.599 1.834l.039-.002c.808 0 3.185.142 4.806-3.026-.23.04-.703.437-2.15.73-.677.137-1.423.195-2.096.464m4.384-4.293c-.202.056-.592.45-1.863.835-.704.214-1.507.334-2.15.779a12.36 12.36 0 01-.138 1.517c.035-.005.068-.012.106-.016.723-.068 2.862-.143 4.045-3.115m-.53-3.604c-.173.092-.45.53-1.53 1.137-.66.37-1.449.661-1.946 1.312v1.387c.115-.066.253-.13.416-.183.645-.208 2.58-.706 3.06-3.653m-.598-2.567c-.146.097-.352.512-1.259 1.15-.556.39-1.236.722-1.619 1.352v1.33c.115-.102.273-.212.484-.304.556-.244 2.232-.862 2.394-3.528m-2.371.608c.438-.228 1.769-.82 1.757-2.997-.113.087-.258.436-.962 1.002-.464.374-1.048.701-1.302 1.314v1.106c.078-.11.234-.284.507-.425m.592-4.76c-.086.092-.164.416-.696 1.01-.127.14-.268.278-.403.423v1.42c.358-.264 1.415-.971 1.1-2.853m-9.635 29.682c-.456-.286-.905-.63-1.377-.936.025.335.027.563.028.58 0 .032-.009.736-.136 1.516a7.967 7.967 0 01-.073.392c1.072.274 2.45.283 4.2-.33-.249-.165-1.038-.216-2.642-1.222M53 56.213c-1.177-.47-2.392-1.218-3.795-1.022-.455.35-.909.68-1.36.998.031.099.06.203.087.312.188.073.391.171.608.313.867.566 3.318 2.385 7.28.123-.276-.117-1.061-.024-2.82-.724M32.02 60.1a11.2 11.2 0 01-.135-1.513c0-.02.003-.269.031-.628-.498.318-.969.681-1.447.981-1.603 1.006-2.393 1.057-2.643 1.221 1.786.627 3.183.603 4.264.314a7.866 7.866 0 01-.07-.375m.206-3.916c-.443-.313-.89-.638-1.336-.981-1.442-.242-2.684.53-3.887 1.009-1.759.7-2.544.607-2.82.724 3.962 2.262 6.413.443 7.28-.123.246-.16.474-.266.681-.34.026-.101.053-.198.082-.29"/><path fill="#000" d="M37.842 53.612V23.066a21.99 21.99 0 00-4.367.898v28.381a36.328 36.328 0 002.427 1.622 15.048 15.048 0 011.94-.355m13.135-5.236c2.154-2.52 3.244-5.128 3.244-7.79v-12.47c-.337-.297-1.467-1.24-3.244-2.24v22.5zm-25.13-20.26v12.47c0 2.659 1.09 5.266 3.244 7.785v-22.51c-1.784 1.005-2.91 1.956-3.244 2.255m18.322 25.852a36.289 36.289 0 002.423-1.618V23.974a21.94 21.94 0 00-4.366-.906v30.544c.674.08 1.32.198 1.943.356"/><path fill="#000" d="M40.035 18.899c-10.242 0-16.861 5.72-17.681 6.467V40.82c0 6.464 5.216 11.637 9.996 15.021.162-.375.36-.633.596-.763a13.85 13.85 0 012.53-1.002 34.923 34.923 0 01-3.126-2.187c-4.526-3.57-6.821-7.373-6.821-11.305v-12.61l.052-.048c.594-.541 6.053-5.289 14.454-5.289 8.321 0 13.849 4.748 14.451 5.29l.053.047v12.61c0 3.935-2.293 7.738-6.815 11.306a35.119 35.119 0 01-3.123 2.189c.873.25 1.706.58 2.517.998.24.13.439.39.6.768 4.78-3.382 9.996-8.554 9.996-15.025V25.368c-.768-.69-7.51-6.469-17.679-6.469"/><path fill="#FFF" d="M59.91 57.063c-.11-.75-.427-1.51-.724-2.153l-.033-.06-.262-.398c-.34-.534-.731-1.124-1.35-1.422l-.512-.967a.284.284 0 00-.031-.048c-.666-.833-1.433-1.595-2.176-2.332l-.296-.296c-.084-.474-.366-.819-.626-1.121-.17-.197-.33-.382-.435-.596a.301.301 0 00-.126-.131c-.495-.275-1.056-1.067-1.354-1.707l-.49-.833c.153.066.307.14.454.212l.325.157c1.314.54 2.435 1.135 3.732 1.823l.392.208.365.23c.219.15.425.29.752.373.26.075.74-.005.907-.427l.018-.069c.081-.568-.32-1.16-.642-1.635l-.1-.147-.382-.55c-.767-1.106-1.56-2.25-2.652-3.172l-.627-.635a.326.326 0 00-.04-.034c-1.727-1.245-2.954-2.8-4.252-4.446-1.098-1.391-2.233-2.83-3.694-4.052a4.716 4.716 0 01-.023-.018c-1.79-1.226-3.37-2.903-4.897-4.525l-1.856-1.93c-.833-.717-1.58-1.336-2.417-1.803l-.61-.58c-1.03-.96-2.013-1.876-2.013-3.093 0-.242.039-.496.124-.764l.033-.102c.372-1.15.757-2.34 1.81-3.076a.311.311 0 00.064-.06l1.076-1.346c1.316-.972 3.084-2.147 5.137-2.66a.036.036 0 00.018-.012l.236-.262c.05-.175-.037-.314-.08-.38l-.016-.025a.422.422 0 00-.091-.106c-.702-.51-1.55-.645-2.29-.73a18.233 18.233 0 00-4.445-.006c-1.019-.306-4.249-1.107-6.723.16-.88.467-1.189 1.304-1.438 1.976-.13.352-.253.685-.428.88-1.983 1.867-2.81 4.015-3.684 6.289l-.392 1.007-.16.353c-.494 1.094-1.154 2.582-1.912 3.53-.017.02-.08.134-.09.158-.117.274-.416 1.093-.456 1.453-.088.794.062 1.575.306 2.096.28.598.777 1.1 1.045 1.49.732 1.147 1.353 1.927 2.023 3.098 1.298 2.272 2.58 4.58 4.354 6.71l.022.023a11.59 11.59 0 005.676 3.111c.88.927 1.486 2.359 2.165 3.405 0 0 .726 1.244.757 1.29.083.144.069.285.069.44 0 .197.056.416-.018.688-.075.278-.153.564-.153.874v.017c.006.11.01.218.01.325 0 .67.252 1.282-.038 2.042-.121.32-.29.701-.48 1.101.576-.129 1.17-.225 1.787-.289l.51-.985c.236-.473.58-.86.884-1.2.374-.42.697-.78.743-1.21.031-.691.102-1.557.357-2.35.118-.078.246-.168.379-.344a.665.665 0 00.13-.412c0-.152-.038-.303-.071-.437a1.402 1.402 0 01-.054-.286c0-.05.018-.064.043-.076.419-.135.913-.08 1.251.136.198.212.324.464.454.733.118.246.248.498.434.735.089.344.116.719.142 1.117.049.74.111 1.503.595 2.124.046.14.068.282.068.426 0 .473-.212.959-.39 1.369l-.103.239a9.395 9.395 0 01-.272.586c.516.091 1.018.203 1.504.345a20.66 20.66 0 00.896-1.728c.15-.388.191-.79.22-1.185.094.154.187.308.281.47.326.558.667 1.133 1.129 1.658.415.713.948 1.765 1.2 2.586a.285.285 0 00.067.116c.44.459 1.127.675 1.934.608 1.262-.184 1.524.046 1.697.198a.73.73 0 00.38.206l2.89.04c.869-.047 1.767-.094 2.683.004l1.501.342a.31.31 0 00.374-.346"/><path fill="#000" d="M53.602 50.065c-.542-.122-.895-.697-1.346-1.041-.238-.276-.422-.574-.644-.857-.125-.06-.21.003-.214.153-.23.786 1.285 2.197 1.837 3.336.107.3.307.636.185.95-.3.176-1.21-.035-1.443-.12-.532-.319-.84-1.656-1.528-2.513-.138-.069-.13-.275-.306-.245-.222.2.023.429.03.644.193.48.62.902.582 1.438l-.275-.03c-.583-.796-1.088-1.654-1.749-2.389-.276.207 0 .49 0 .735.239.613.683 1.133.768 1.807 0 .214-.284.106-.399.091-1.103-1.025-1.44-2.48-2.358-3.643-.138-.008-.185.123-.245.215.183 1.033.895 1.852.796 3-.054.03-.077.122-.154.092-.688-1.003-1.768-2.12-1.072-3.43.353-1.117-.565-2.166-.03-3.245.345-.36.85-.306 1.317-.245.237-.321.115-.811.582-1.01.398-.269 1.019-.153 1.41.061 1.508 1.868 2.756 3.842 4.226 5.726.008.176.252.39.03.52m-8.33-10.502c-.315-.26-.596-.605-.98-.704-.164.019-.143.142-.143.21.19.276.915.383.694.709-.498.306-.933-.26-1.377-.46-1.371-1.056-2.687-2.297-3.98-3.46-.334-.319-.59-.744-.491-.826.074-.103.582.21.752.295.17.085.167-.112.167-.112-1.15-1.255-3.338-2.136-3.216-4.102a.635.635 0 01.307-.399c.446-.342 4.104.785 5.634 1.684 1.653.888 3.123 2.366 4.194 3.95.016.076.039.153.031.245-.1.159-.333.01-.55-.153-.268-.184-.507-.43-.797-.551l-.092.091c.62.812 1.942 1.325 1.935 2.473l-.191.02c-.548-.361-1.078-.854-1.652-1.053-.146.068 0 .183.06.245.57.405 1.167.809 1.716 1.286a.717.717 0 01.091.612h-.183c-.459-.329-.84-.621-1.44-.857-.12.245.153.364.43.55.425.239 1.381.515.979 1.011-.75.59-1.383-.305-1.898-.704m-8.366-13.08l-.092-.337a10.033 10.033 0 012.512 1.929c.804.724 1.719 1.915 1.715 2.051-.145.119-.759-.558-1.257-.55-.313.073.092.52-.153.611-.33.121-1.921-.62-2.51-1.439.084-.038.266-.034.244-.153.08-.134-.615-.37-.52-.612 0 0 .16.135.276.092.29-.276-.526-.57-.062-.796.024-.276-.289-.48-.395-.67.067-.042.174-.058.242-.127M32.78 13.047c-.25.027-.774-.375-.98.062-.092.253.091.704-.276.765-.214.023-.51.01-.52-.214-.054-.298-.068-.636.122-.888.19-.406.72-.683 1.303-.582.252.05.505.227.626.551.053.191-.095.257-.275.306m-5.052 3.828c.298.444-1.034.666-.122.857.17.69-1.065.88-1.532 1.378.016.084-.02.227.154.184.427-.039 1.06-.766 1.163-.398.091.497-.482.55-.766.734-.353.169-.773.368-.948.766-.07.195.237.13.336.092.367-.108.87-.726 1.01-.521.061.191-.084.375-.214.52-.505.383-1.324.307-1.562 1.011-.022.178.299.276.49.184.322-.146.742-.814.918-.551.077.23-.107.459-.305.581-.873.781-1.792 1.447-2.847 1.776-.132-.184-.024-.428.03-.612.773-2.304 1.791-4.509 3.122-6.583.284-.33.896-.559 1.195-.153-.016.444-.643.337-.705.735.177.137.392 0 .583 0m6.337-1.195c.664-1.443.79-1.215 1.776-1.102.43-.063.681-.337.919-.642l-.062-.093c-.558.13-1.109.56-1.713.306-.238-.176-.292-.466-.215-.734.52-.628 1.708-.078 2.335-.568.203-.253-.315-.35-.437-.443-.114-.06-.336.016-.336-.183.229-.176.58-.087.85-.107.438-.005 1.035-.228 1.048.137 0 .65-1.1.874-.98 1.316.16.299.462.165.704.062.596-.26 1.086-.78 1.715-.98.13-.03.207.039.214.154v.091c-1.69.88-3.253 2.098-4.837 3.246-.292.17-.575.344-.92.245-.251-.153-.037-.467-.061-.705m.123-3.183c.198-.207.513-.238.766-.215v.153c-.125.16-.399.375-.674.244-.047-.053-.122-.099-.092-.182M58.9 55.027c-.422-.596-.829-1.479-1.594-1.777l-.55-1.042c-.76-.949-1.638-1.791-2.51-2.663-.063-.735-.745-1.101-1.057-1.737-.575-.318-1.17-1.169-1.485-1.846-.245-.436-.6-1.024-.856-1.45.49 0 1.086.362 1.553.575 1.447.595 2.658 1.255 4.14 2.039.433.237.62.469 1.048.576.148.043.448 0 .545-.24.072-.504-.397-1.12-.694-1.567-.91-1.294-1.743-2.615-2.977-3.657l-.646-.654c-3.284-2.366-4.863-5.917-7.965-8.512-2.525-1.73-4.562-4.264-6.796-6.492-.766-.658-1.54-1.308-2.389-1.776-1.347-1.339-3.276-2.655-2.603-4.776.386-1.19.788-2.518 1.96-3.337l1.102-1.378c1.623-1.202 3.315-2.235 5.237-2.725.144-.069.045-.16 0-.245-.62-.451-1.365-.583-2.144-.673a17.896 17.896 0 00-4.44 0c-1.998-.613-4.639-.857-6.552.122-1.224.65-1.198 2.142-1.776 2.786-2.243 2.114-2.986 4.603-4.019 7.205-.495 1.084-1.26 2.877-2.135 3.971-.36.856-.827 1.875-.052 3.505.232.488.532.773.776 1.128 2.661 3.679 3.8 6.765 6.472 9.972a11.279 11.279 0 005.633 3.062c1.714 1.382 1.923 3.207 3.078 4.807.42.727-.13 1.431-.122 2.174.053.933.257 1.68-.048 2.48-.103.269-.24.585-.394.92.34-.068.688-.124 1.043-.17.266-.513.489-.945.602-1.171.533-1.066 1.53-1.672 1.597-2.304.038-.873.13-1.73.398-2.51.138-.093.265-.16.398-.337.267-.356-.382-1.065.184-1.317.505-.168 1.133-.107 1.562.183.466.475.558 1.102.979 1.593.29 1.064-.015 2.373.736 3.245.282.819-.196 1.7-.43 2.266-.067.164-.15.343-.241.53.298.06.59.127.879.204.328-.572.644-1.155.924-1.775.23-.598.183-1.31.275-1.96.682.911 1.102 1.979 1.898 2.867.446.765.978 1.828 1.233 2.657.453.468 1.13.553 1.68.508 1.875-.274 1.816.354 2.15.407 1.813.266 3.615-.17 5.572.042l1.524.347c-.105-.719-.42-1.467-.703-2.08"/><path fill="#FFF" d="M48.048 57.072c-.175-1.081-.487-1.751-.93-1.994-2.108-1.086-4.358-1.592-7.087-1.593-2.724.001-4.974.507-7.085 1.594-.44.242-.751.912-.927 1.993-.126.78-.134 1.483-.135 1.516 0 .03.009.733.135 1.513.176 1.08.488 1.751.927 1.992l.004.002c2.108 1.086 4.358 1.592 7.086 1.592 2.723 0 4.973-.506 7.086-1.594.439-.241.75-.911.926-1.992.127-.78.135-1.484.136-1.516 0-.03-.009-.733-.136-1.513"/><path fill="#000" d="M38.923 58.78h-.106c-.127 0-.266.095-.266.355v.549c0 .26.139.355.266.355h.106c.127 0 .266-.095.266-.355v-.549c0-.26-.139-.355-.266-.355m0-1.646h-.106c-.127 0-.266.094-.266.355v.416c0 .26.139.354.266.354h.106c.127 0 .266-.094.266-.354v-.416c0-.26-.139-.355-.266-.355m2.261 0c-.188 0-.3.066-.3.333v.743c0 .266.112.332.3.332.166 0 .3-.078.3-.332v-.743c0-.267-.111-.333-.3-.333"/><path fill="#000" d="M46.31 61.18l-.025.018c-1.863.956-3.844 1.397-6.249 1.397-2.413 0-4.396-.442-6.247-1.392l-.025-.016c-.365-.297-.57-1.698-.58-2.598.01-.895.216-2.293.574-2.597l.027-.019c1.86-.953 3.84-1.395 6.246-1.396 2.411.001 4.396.444 6.247 1.392l.026.017c.367.298.571 1.699.58 2.598-.01.895-.216 2.292-.575 2.597m.666-5.835c-2.06-1.06-4.266-1.556-6.939-1.557-2.678.001-4.884.497-6.947 1.559-.716.393-.893 2.472-.9 3.24.007.764.184 2.84.902 3.238 2.063 1.062 4.268 1.557 6.94 1.557 2.678 0 4.884-.496 6.948-1.558.715-.393.893-2.472.9-3.24-.007-.765-.185-2.844-.904-3.239"/><path fill="#000" d="M44.41 57.855c0 .488-.321.698-.687 1.053-.322.31-.532.521-.532.732v.354h1.22v.533H42.57v-.898c0-.494.405-.81.793-1.181.293-.283.426-.4.426-.604v-.377c0-.267-.127-.333-.305-.333-.177 0-.293.066-.293.333v.565h-.61V57.4c0-.576.321-.798.91-.798h.01c.588 0 .91.222.91.798v.455zm-2.306 1.918c0 .576-.31.798-.898.798h-.01c-.588 0-.899-.222-.899-.798v-.366h.621v.3c0 .265.094.332.283.332.188 0 .282-.067.282-.333v-.798c-.088.094-.194.172-.454.172-.443 0-.765-.222-.765-.799v-.88c0-.577.327-.8.915-.8h.01c.588 0 .915.223.915.8v2.372zm-2.295-1.874c0 .244-.055.56-.377.61.339.066.377.46.377.67v.571c0 .544-.288.82-.853.82h-.172c-.566 0-.854-.276-.854-.82v-.57c0-.211.04-.605.377-.671-.321-.05-.377-.366-.377-.61v-.477c0-.543.288-.82.854-.82h.172c.565 0 .853.277.853.82v.477zm-2.322 2.628h-1.83v-.544h.633v-2.677l-.632.194v-.577l.798-.277h.454v3.337h.577v.544zm8.537-4.272c-1.773-.908-3.677-1.33-5.993-1.331-2.31 0-4.21.422-5.98 1.327-.2.187-.451 1.26-.464 2.336.013 1.055.26 2.155.457 2.33 1.772.908 3.675 1.331 5.987 1.332h.005c2.31 0 4.21-.422 5.98-1.327.201-.187.452-1.26.465-2.337-.011-1.054-.26-2.154-.457-2.33z"/><path fill="#AB9767" d="M20.73 60.886l-1.776-1.492a.114.114 0 01-.014-.16l.022-.026a.114.114 0 01.16-.013l1.775 1.492c.048.04.055.112.014.16l-.021.026a.114.114 0 01-.16.013"/><path fill="#000" d="M23.206 63.89c-.329.514-.785.492-1.29.17l-.01-.006c-.506-.323-.721-.722-.39-1.242l1.278-2.004c.316-.496.784-.493 1.29-.17l.01.005c.506.323.706.746.39 1.242l-.39.61-.554-.352.335-.525c.149-.234.08-.379-.097-.491-.176-.113-.336-.114-.485.12l-1.168 1.832c-.15.234-.08.379.096.491.177.113.337.114.486-.12l.386-.606.554.353-.441.692zm2.377 1.546c.194.093.361.085.483-.17l.938-1.96c.122-.256.024-.39-.17-.484-.194-.093-.361-.085-.483.17l-.938 1.96c-.122.256-.024.391.17.484m1.48-3.144l.04.02c.542.258.796.644.538 1.185l-1.026 2.144c-.26.54-.72.584-1.26.325l-.041-.02c-.541-.258-.796-.643-.537-1.184l1.026-2.145c.261-.546.719-.584 1.26-.325m2.568 5.327l-1.577-.548 1.301-3.742.62.215-1.107 3.187.956.332zm3.271.85l-1.625-.383.911-3.855.638.151-.775 3.282.986.233zm1.675.291l.568-3.921.65.094-.569 3.921zm2.57.313l.196-3.957.655.033.711 2.488.12-2.447.599.029-.195 3.957-.622-.03-.737-2.615-.127 2.572zm5.986-.819c.036.61-.346.86-.945.895l-.046.003c-.598.035-1.007-.162-1.043-.778l-.14-2.373c-.035-.587.346-.86.945-.895l.045-.002c.6-.036 1.01.19 1.044.777l.033.565-.655.039-.027-.463c-.017-.283-.169-.353-.384-.34-.214.012-.356.1-.34.382l.128 2.17c.017.282.169.353.383.34.215-.012.357-.1.34-.383l-.034-.587-.384.022-.033-.553 1.04-.062.073 1.243zm4.604.093l-.606.114-1.005-2.575.004 2.764-.629.119-1.347-3.777.634-.12.848 2.72-.025-2.876.579-.109 1.026 2.686-.203-2.841.6-.114zm3.049-1.413c.204-.068.319-.19.23-.458l-.682-2.063c-.09-.27-.254-.298-.458-.23-.204.067-.319.188-.23.457l.682 2.064c.089.268.254.297.458.23m-1.112-3.293l.042-.014c.57-.188 1.02-.087 1.21.483l.745 2.257c.189.57-.113.92-.683 1.108l-.043.014c-.569.188-1.02.087-1.208-.483l-.747-2.257c-.19-.575.114-.92.684-1.108m4.717 1.857c.194-.091.294-.225.174-.481l-.923-1.968c-.12-.257-.287-.266-.482-.175-.194.092-.294.226-.174.482l.923 1.968c.12.256.287.266.482.174m-1.497-3.136l.042-.02c.543-.254 1.002-.208 1.257.336l1.01 2.152c.254.543-.004.927-.547 1.181l-.04.02c-.544.254-1.004.207-1.258-.336l-1.01-2.152c-.257-.548.003-.927.546-1.181m3.39-1.136l-.283.177 1.489 2.38.283-.178c.182-.114.265-.26.115-.5l-1.105-1.764c-.15-.24-.317-.23-.5-.115m1.002-.32l1.213 1.938c.318.508.109.92-.4 1.238l-.858.538-2.102-3.358.858-.537c.509-.319.97-.327 1.289.181"/><path fill="#AB9767" d="M61.113 59.484l-1.787 1.477a.115.115 0 01-.161-.015l-.02-.024a.115.115 0 01.015-.162l1.787-1.477a.114.114 0 01.16.015l.021.024c.04.05.034.121-.015.162"/><path d="M0 0h80v80H0z"/></g></svg>