<svg xmlns="http://www.w3.org/2000/svg" width="80" height="80"><g fill="none" fill-rule="evenodd"><path fill="#000" d="M58.36 28.226s.643-1.777.643-3.699-.684-3.521-.684-3.521h-1.076s-.683 1.486-.683 3.41c0 1.921.643 3.648.643 3.648l1.156.162zm-8.849-7.221v6.856h.693s.88-2.55 1.13-4.306c.252-1.757.19-2.55.19-2.55h-2.013z"/><path fill="#000" d="M62.394 30.816V19.02h1.694l2.26 6.961v-6.904h1.633v12.599l-2.01-.31-1.946-7.585v7.258l-1.631-.224zm-7.72-6.411c0-3.004 1.068-5.327 1.068-5.327h4.079s1.067 2.66 1.067 5.664c0 3.004-1.253 5.707-1.253 5.707l-3.92-.622s-1.04-2.419-1.04-5.422zm-6.981 5.383v-10.71h5.838s.064 2.323-.501 5.214c-.632 3.229-1.757 5.496-1.757 5.496h-3.58zm-7.58-2.52V19.02h1.57l2.435 5.95v-5.893h1.632v10.767h-2.134l-1.997-6.063v4.494l-1.506-1.008zm-2.076-3.94v1.926H35.09v2.667l3.312-.003-2.549 1.903h-2.582V19.078h4.954v1.87H35.09v2.38h2.947zm-8.474 5.048v-1.988l-3.202-2.776v-4.534h4.834v4.25l-1.632-1.36v-.963H27.93v1.587l3.202 2.776v4.481h-4.771v-3.971l1.506 1.36v1.122l1.696.016zm-6.907-.14V26.67l-3.58-3.116v-4.477h5.213v4.534l-1.633-1.36v-1.247H20.71v1.643l3.641 3.003v4.115l-5.337.85v-4.681l1.696 1.416v1.338l1.946-.454zm1.622 3.431h11.849l.003-.002-.001-.002 3.777-2.766 3.903 2.77h11.794L68.189 33.6 39.942 63.89 11.873 33.71l12.405-2.043zm-7.556-8.282v1.927H13.9v4.284l3.137-.396v1.757l-4.96.85V19.078h5.022v1.927H13.9v2.38h2.822zm-6.584-6.304v17.398L39.96 66.532l1.305-1.438 28.48-30.849.14-.151V17.08H10.138z"/><path fill="#C90527" d="M39.906 60.446s-2.02-3.197-3.45-5.89c-1.43-2.693-2.44-4.713-2.44-4.713l-1.936-.757-2.02.59-1.178-1.095.337-1.43-1.346.252-11.24-12.05 4.965-.918 11.828 5.816 1.01-.758 1.936.842.84-1.6-10.265-4.459h11.024l1.935-1.599h.017l1.935 1.6h11.024l-10.267 4.459.842 1.599 1.936-.842 1.01.758L57.8 34.419l5.306.877-11.15 12.107-1.347-.253.336 1.43-1.178 1.095-2.02-.589-1.935.757s-1.01 2.02-2.44 4.713c-1.431 2.693-3.45 5.89-3.45 5.89h-.017zm25.607-26.014l-9.994-1.5v.002l-.023-.004h-12.71l-2.88-2.02-2.88 2.02H24.402l-.124.022v.004L14.51 34.68l25.396 27.317.024.027 25.583-27.592z"/><path fill="#9C9E9F" d="M24.402 32.93h12.624l2.88-2.02-2.855 1.952-.921-1.197-.003.003H24.278v1.284zm18.384 0l-.053-.147.933-1.167.019.052h.124l-3.903-2.77v2.012z"/><path fill="#9C9E9F" d="M65.513 34.432L39.93 62.023l-.024-.026v1.853L11.873 33.71l28.069 30.179L68.19 33.6l-12.587-1.933h-.084v1.266z"/><path fill="#000" d="M41.577 56.574a2.629 2.629 0 00-1.671-.587c-.79 0-1.388.3-1.698.5-.478-.943-.967-2.004-1.332-3.025-1.262-3.534-1.43-5.89-1.43-5.89l-.841 1.093-2.61-.672-1.345.336-.674-.59s.59-2.019 1.852-3.786 2.692-3.282 2.692-3.282l2.44 1.263s.506-1.094 1.01-2.02c.505-.925.926-1.767.926-1.767l-7.826-2.99h6.648l.505.802 1.683-1.613h.017l1.682 1.61v.002l.506-.8h6.647l-7.825 2.989s.42.842.925 1.767c.505.926 1.01 2.02 1.01 2.02l2.44-1.263s1.43 1.515 2.693 3.282c1.23 1.721 1.82 3.68 1.85 3.782a.146.146 0 00.001.005l-.673.589-1.346-.336-2.61.672-.84-1.093s-.168 2.356-1.43 5.89c-.377 1.052-.884 2.147-1.376 3.112zm-1.671 2.947s-.637-1.013-1.376-2.41c.225-.166.644-.362 1.376-.362.665 0 1.12.173 1.405.338a41.739 41.739 0 01-1.388 2.434h-.017zm-8.33-16.865l-.059.076.059-.076zm-3.03 3.4L18.448 35.792l1.378-.234-.004-.003 1.824-.305 11.356 5.669-.193.223c-.04.048-.084.1-.128.15l-.08.094a24.79 24.79 0 00-.16.19l-.06.074c-.059.07-.12.143-.18.217l-.05.063-.194.24c-.015.018-.03.036-.044.056l-.04.05-10.746-5.85-.018-.01 10.097 6.73-.22.303a13.16 13.16 0 00-1.313 2.359l-1.127.25zm29.5-10.79l3.336.525-10.098 10.266-1.127-.25a13.847 13.847 0 00-1.137-2.102 11.118 11.118 0 00-.176-.257l-.22-.303 10.095-6.73-10.762 5.859c-.42-.528-.816-.997-1.13-1.356l11.22-5.651zM45.813 49.845l1.935-.758 2.02.59 1.178-1.095-.336-1.43 1.346.252 11.152-12.107-5.307-.877-11.399 5.832-1.01-.758-1.935.842-.842-1.6 10.267-4.459H41.858l-1.935-1.598h-.017l-1.936 1.598H26.947l10.266 4.46-.842 1.599-1.935-.842-1.01.758-11.828-5.817-4.965.919 11.24 12.05 1.346-.252-.336 1.43 1.177 1.095 2.02-.59 1.935.758s1.01 2.019 2.44 4.712c1.431 2.693 3.45 5.89 3.45 5.89h.018s2.019-3.197 3.45-5.89c1.43-2.693 2.44-4.712 2.44-4.712z"/><path fill="#D1D1D1" d="M39.66 51.508c-1.277-.185-1.955-1.766-2.085-2.102l.2-.863c.307.46.929 1.168 1.885 1.275v1.69zm.505-1.691c.851-.097 1.537-.649 1.962-1.092l.236 1.017c-.372.584-1.163 1.61-2.198 1.763v-1.688zm1.677 1.542c.672-.758 1.177-1.768 1.177-1.768l-.505-2.272 1.094.421.169-2.104 1.43 1.851 2.356-.589 1.263.421.658-.604c.232.574.352.972.367 1.02-.03-.1-.62-2.061-1.85-3.782-1.262-1.767-2.692-3.282-2.692-3.282s.25.267.634.704l-3.314 1.741-.956-1.435-1.767 2.46v-9.795l-1.683 1.613-.505-.801h-6.647l7.825 2.989s-.42.841-.925 1.767c-.506.925-1.01 2.02-1.01 2.02l-2.44-1.263s-1.431 1.515-2.693 3.282c-1.263 1.767-1.851 3.787-1.851 3.787l.673.589 1.346-.337 2.608.674.842-1.094s.168 2.356 1.43 5.89c.365 1.02.854 2.082 1.332 3.025.31-.2.909-.5 1.698-.5v-3.575c.544-.176 1.475-.536 1.936-1.053zm-1.936 7.572l-.021-1.871.02-.002v-.309c-.731 0-1.15.196-1.375.361a41.026 41.026 0 001.376 2.41v-.589z"/><path fill="#D1D1D1" d="M48.758 35.158h-6.647l-.505.801-.002-.001-.671 2.189z"/><path fill="#000" d="M37.776 48.543l-.201.863c.13.336.807 1.917 2.085 2.102v-1.69c-.957-.107-1.578-.816-1.884-1.275m4.587 1.2l-.236-1.018c-.424.443-1.111.995-1.962 1.092v1.688c1.035-.152 1.826-1.179 2.198-1.763"/><path fill="#9C9E9F" d="M41.673 41.68l.957 1.436 3.313-1.74c-.383-.437-.635-.704-.635-.704l-2.44 1.262s-.505-1.094-1.01-2.02a62.164 62.164 0 01-.926-1.767l.672-2.19v-.001l-1.681-1.61h-.017v9.794l1.767-2.46zm-1.767 15.07v.308c.05-.003.2-.002.484.065.363.085.484.189.484.189s-.106.21-.253.484c-.147.272-.714 1.133-.715 1.135v.59h.017s.644-1.024 1.388-2.434c-.285-.165-.74-.338-1.405-.338m5.318-8.083l2.609-.674 1.346.337.673-.589-.001-.005a12.424 12.424 0 00-.366-1.02l-.66.604-1.261-.42-2.357.588-1.43-1.85-.168 2.103-1.094-.42.505 2.271s-.505 1.01-1.179 1.768c-.46.517-1.391.877-1.935 1.053v3.574c.803 0 1.366.34 1.67.588.493-.965 1-2.06 1.376-3.112 1.262-3.534 1.43-5.89 1.43-5.89l.842 1.094z"/><path fill="#000" d="M39.906 58.931c.001-.002.568-.863.715-1.135.147-.274.253-.485.253-.485s-.121-.103-.484-.188a1.823 1.823 0 00-.484-.065c-.013 0-.021.002-.021.002l.02 1.871z"/><path fill="#D1D1D1" d="M32.442 41.576l-.062.073.062-.074m.24-.284l-.081.095.08-.095m-.724.877l-.044.056a5.2 5.2 0 01.044-.056m1.045-1.25c-.061.07-.126.144-.193.223l.193-.223m-1.796 2.228L21.11 36.415l.017.01-1.3-.868-1.38.234 10.099 10.266 1.126-.25a13.235 13.235 0 011.534-2.66m27.513-6.732l-9.542 7.531-.002-.003c.413.652.74 1.309.982 1.863l1.127.251 10.098-10.266-3.336-.524-11.219 5.65c.314.36.71.829 1.13 1.357l10.762-5.859zm-9.699 7.29"/><path fill="#9C9E9F" d="M31.517 42.732l.059-.076-.059.076m.356-.457l.04-.05.044-.057c.066-.08.13-.16.193-.239.018-.02.034-.041.052-.063l.179-.217.06-.074.16-.19.08-.094c.044-.05.087-.102.128-.15l.193-.224-11.357-5.668-1.824.305.005.003 1.3.868 10.747 5.85zm26.846-5.86l-10.096 6.73c.074.1.147.202.22.303a9.672 9.672 0 01.332.495l.002.003 9.542-7.53z"/><path fill="#D1D1D1" d="M39.906 30.91v-2.012l-3.777 2.765.002.002.92 1.197zm3.76.706l-.933 1.168.053.146h12.71l.023.003v-1.266H43.685zm-3.76 32.234v-1.853L14.51 34.68l9.768-1.724v-1.289L11.873 33.71z"/><path fill="#C90527" d="M17.099 21.005v-1.927h-5.023v12.728l4.96-.849V29.2l-3.136.396v-4.284h2.823v-1.927H13.9v-2.38zm1.915 4.93v4.68l5.337-.85v-4.114l-3.642-3.003v-1.643h1.947v1.247l1.633 1.36v-4.534h-5.212v4.477l3.579 3.116v1.564l-1.947.454v-1.338zm7.347-.057v3.971h4.771v-4.481l-3.202-2.777v-1.586h1.633v.963l1.632 1.36v-4.25h-4.834v4.534l3.202 2.776v1.988l-1.696-.016v-1.122zm11.864-4.93v-1.87h-4.954v10.743h2.582l2.549-1.903-3.312.003v-2.667h2.947v-1.926H35.09v-2.38zm5.391 8.897h2.135V19.078h-1.633v5.892l-2.436-5.949h-1.57v8.247l1.507 1.008v-4.494zm22.356 1.522l2.009.309V19.078h-1.633v6.904l-2.26-6.961h-1.694v11.795l1.631.224v-7.258zm-14.638-7.812c-.25 1.757-1.13 4.306-1.13 4.306h-.693v-6.856h2.013s.061.793-.19 2.55m2.197-4.477h-5.838v10.71h3.58s1.125-2.267 1.757-5.496c.565-2.89.5-5.214.5-5.214m3.713 1.928h1.076s.684 1.6.684 3.521c0 1.922-.644 3.699-.644 3.699l-1.156-.162s-.643-1.727-.643-3.65c0-1.921.683-3.408.683-3.408zm2.392 9.443s1.253-2.704 1.253-5.707c0-3.003-1.067-5.664-1.067-5.664h-4.08s-1.067 2.323-1.067 5.327c0 3.003 1.041 5.422 1.041 5.422l3.92.622z"/><path d="M0 0h80v80H0z"/></g></svg>