<svg xmlns="http://www.w3.org/2000/svg" width="80" height="80"><g fill="none" fill-rule="evenodd"><path fill="#A5ACAF" d="M40.018 10.366c-9.34 0-15.568 1.557-15.568 1.557v27.169c0 2.435.296 4.332 3.114 6.174l12.454 8.13s11.036-7.202 12.455-8.13c2.818-1.842 3.113-3.74 3.113-6.175V11.923s-6.227-1.557-15.568-1.557"/><path fill="#331C54" d="M54.652 39.091c0 1.163-.072 2.11-.426 2.947-.385.911-1.104 1.688-2.264 2.446-1.228.803-9.754 6.368-11.944 7.797-2.19-1.429-10.716-6.994-11.943-7.797-1.16-.758-1.88-1.535-2.264-2.446-.355-.838-.427-1.784-.427-2.947V16.894c2.067-.406 7.423-1.297 14.634-1.297 7.212 0 12.567.89 14.634 1.297v22.197z"/><path fill="#FFF" d="M34.102 38.469v1.868h9.064l2.768-2.373v-6.775l-2.768-2.372h-1.591v1.868h.9l1.591 1.364v5.056l-1.591 1.364h-4.948v-7.784h.934v-1.868h-4.359v1.868h1.557v7.784z"/><path fill="#FFF" d="M40.018 20.676a1.15 1.15 0 011.148 1.148 1.15 1.15 0 01-2.296 0 1.15 1.15 0 011.148-1.148zm-.934 17.17h1.868V27.26h6.85v-1.868h-6.85v-.732a2.987 2.987 0 00-.934-5.821 2.985 2.985 0 00-.934 5.82v.733h-6.85v1.868h6.85v10.586z"/><path fill="#FFF" d="M48.736 35.96v2.553c0 .89-.23 1.281-1.06 1.821-.542.354-4.803 3.1-6.724 4.339V40.96h-1.868v3.713a5169.492 5169.492 0 01-6.724-4.339c-.83-.54-1.06-.93-1.06-1.82V35.96h-1.868v3.144c0 .854.141 1.65 1.348 2.43 1.208.778 9.238 5.964 9.238 5.964s8.031-5.186 9.238-5.964c1.207-.78 1.348-1.576 1.348-2.43V35.96h-1.868z"/><path fill="#331C54" d="M30.057 14.506V12.66c.555-.07 1.11-.135 1.666-.193v.399a70.96 70.96 0 00-1.13.127v.346a70.9 70.9 0 01.806-.092v.31c-.269.03-.538.06-.807.092v.37c.377-.046.754-.088 1.13-.128v.422a80.57 80.57 0 00-1.665.192m3.774-.324a1.791 1.791 0 01-1.009-.207c.072-.114.145-.228.216-.343.258.132.546.203.804.183.277-.022.388-.124.388-.232 0-.31-1.316-.02-1.316-.691 0-.333.37-.635.919-.678.397-.031.688.076.917.235l-.246.305a1.185 1.185 0 00-.684-.174c-.247.02-.391.115-.391.226 0 .296 1.327.039 1.327.696 0 .36-.4.638-.925.68m3.086-1.675v1.432c-.18.007-.361.015-.541.024V12.53c-.228.01-.455.022-.683.034v-.413a76.205 76.205 0 011.904-.08v.412a72.81 72.81 0 00-.68.024m1.315 1.392v-.397l.394-.007v.396l-.394.008m2.838-.014v-1.618c.17.002.247-.102.247-.224l.25.004v1.846a77.72 77.72 0 00-.497-.008m2.972-1.078c0-.19-.144-.36-.41-.372-.24-.01-.379.093-.379.258v.034c0 .164.125.279.366.29a.59.59 0 00.423-.135v-.075zm-.433 1.213a1.365 1.365 0 01-.813-.29l.216-.286c.167.122.372.2.566.208.322.015.466-.166.466-.432v-.105a.732.732 0 01-.53.174c-.452-.02-.718-.255-.718-.574v-.036c0-.357.33-.649.84-.626.533.024.891.384.891.902v.213c0 .521-.352.877-.918.852zm3.302-1.016c0-.192-.144-.365-.41-.387-.238-.02-.376.078-.376.245v.033c0 .164.124.284.365.303a.57.57 0 00.421-.12v-.074zM46.48 14.2a1.41 1.41 0 01-.812-.32l.217-.278c.166.129.37.213.564.229.321.026.465-.15.465-.415v-.105a.708.708 0 01-.528.155c-.452-.036-.718-.281-.718-.6v-.037c0-.357.33-.636.84-.595.532.043.889.416.889.934v.214c0 .52-.352.864-.917.818zm2.76-1.138l-.522.511.523.06v-.571zm.481.98v.427l-.48-.058v-.426a70.914 70.914 0 00-.998-.11v-.319c.342-.331.684-.66 1.026-.988l.452.055v1.067l.293.036v.352l-.293-.036z"/><path fill="#000" d="M24.452 57.441h2.032v.668H25.19v.392h1.259v.656H25.19v.927h-.738zm4.689 1.239c.286 0 .386-.057.386-.3 0-.253-.093-.31-.389-.31h-.592v.61h.595zm-.117.612h-.478v.792h-.72v-2.643h1.34c.946 0 1.106.414 1.106.91 0 .328-.082.678-.51.846l.482.887h-.792l-.428-.792zm2.536-1.851h2.105v.668h-1.367v.32h1.331v.646h-1.331v.371h1.38v.638H31.56zm3.599 0h.967l.591 1.574.596-1.574h.964v2.643h-.721v-1.533l-.592 1.533h-.553l-.585-1.522v1.522h-.667zm5.953 1.695l-.328-.842-.328.842h.656zm-.685-1.712h.753l1.066 2.66h-.766l-.133-.341H40.22l-.132.342h-.72l1.059-2.661zm2.836.017h.792l1.03 1.399v-1.399h.707v2.643h-.682l-1.141-1.544v1.544h-.706zm4.497.668h-.877v-.668h2.497v.668h-.878v1.975h-.742zm2.708-.668h.738v2.005h1.245v.638h-1.983zm2.999 0h2.105v.668h-1.366v.32h1.33v.646h-1.33v.371h1.381v.638h-2.12z"/><path fill="#331C54" d="M57.116 64.056l.274.274v1.27l-.372.31H54.61v-1.854h2.506zm.44 3.129l1.158-.965v-2.438l-1.05-1.05H52.36v1.324h.927v3.972h-.927v1.323h2.251v-2.117h1.372l1.457 2.117h1.672v-1.323h-.975l-.58-.843zm-38.084.039l-.803.804h-2.242v-3.972h2.242l.803.804v2.364zm-5.295-4.492v1.324h.926v3.972h-.926v1.324h5.04l1.579-1.58v-3.46l-1.578-1.58h-5.041zm12.816 4.493l-.804.803h-1.836l-.803-.803v-2.366l.803-.803h1.836l.804.804v2.365zm-3.19-4.493l-1.577 1.58v3.46l1.578 1.58h2.933l1.58-1.58v-3.46l-1.58-1.58h-2.933zm42.06 2.118v-1.068l-1.05-1.05h-3.46l-1.05 1.05v1.873l1.05 1.049h2.913l.273.274v.776l-.273.274h-2.365l-.274-.274v-.52h-1.324v1.068l1.05 1.049h3.46l1.05-1.049V66.43l-1.05-1.05h-2.912l-.274-.274v-.775l.274-.275h2.365l.273.275v.519zm-34.619-2.118l-1.578 1.58v3.461l1.578 1.578h2.934l1.579-1.578v-.937h-1.324v.388l-.804.804h-1.835l-.804-.804V64.86l.804-.804h1.835l.804.804v.388h1.324v-.937l-1.579-1.579zm12.377 1.324v-1.324h-1.314l-3.054 2.75v-2.75h-2.251v1.324h.927v3.972h-.902v1.323h2.226v-2.088l.861-.774 2.112 2.862h1.395v-1.323h-.727l-1.792-2.43 1.713-1.542zm1.324 0h1.06v3.972h-1.06v1.323h5.958v-1.985H49.58v.662h-2.252v-1.324h2.119V65.38h-2.119v-1.324h2.252v.662h1.323v-1.986h-5.958z"/><path d="M0 0h80v80H0z"/></g></svg>