<svg xmlns="http://www.w3.org/2000/svg" width="80" height="80"><g fill="none" fill-rule="evenodd"><path fill="#024" d="M32.677 60.214H29.22V58.11c0-.611-.038-.993-.112-1.144-.074-.152-.236-.228-.488-.228-.284 0-.465.093-.541.277-.076.185-.115.582-.115 1.195v5.62c0 .588.039.972.115 1.151.076.18.249.27.517.27.257 0 .425-.09.504-.27.08-.18.12-.603.12-1.267v-1.523h3.456v.472c0 1.252-.098 2.14-.292 2.663-.194.524-.624.982-1.29 1.376-.663.394-1.484.59-2.457.59-1.012 0-1.846-.166-2.504-.5-.656-.333-1.09-.795-1.305-1.384-.214-.59-.32-1.477-.32-2.663v-3.532c0-.87.032-1.523.099-1.96.064-.435.26-.854.586-1.258.325-.403.777-.72 1.355-.952.577-.23 1.24-.347 1.99-.347 1.018 0 1.858.18 2.52.537.662.358 1.098.804 1.305 1.338.209.534.313 1.365.313 2.492v1.15zm5.22 2.51c-.172-1.369-.347-3.06-.525-5.076-.348 2.315-.568 4.006-.658 5.075h1.183zm1.828-7.77l1.983 12.083h-3.533l-.186-2.174H36.75l-.198 2.174H32.97l1.757-12.083h4.998zm8.467 0v2.659h-2.06v9.424h-3.456v-9.424h-2.042v-2.659z"/><path fill="#024" d="M55.32 58.613h-3.207v-.9c0-.419-.042-.686-.123-.801-.082-.115-.22-.173-.412-.173a.537.537 0 00-.472.232c-.107.155-.16.39-.16.705 0 .405.06.709.179.915.112.204.437.45.974.738 1.54.828 2.507 1.508 2.907 2.04.4.534.598 1.393.598 2.578 0 .861-.11 1.497-.332 1.905-.222.41-.65.751-1.285 1.027-.633.276-1.373.415-2.215.415-.925 0-1.714-.159-2.367-.479-.654-.318-1.082-.725-1.285-1.217-.203-.494-.303-1.193-.303-2.1v-.792h3.208v1.475c0 .455.046.745.136.876.09.131.25.195.481.195.23 0 .402-.082.514-.247.112-.165.169-.41.169-.733 0-.714-.107-1.18-.32-1.4-.217-.22-.757-.585-1.617-1.096-.86-.517-1.43-.891-1.709-1.126-.279-.234-.51-.558-.694-.97-.183-.413-.275-.942-.275-1.584 0-.927.13-1.603.39-2.032.26-.428.68-.763 1.26-1.005.58-.241 1.282-.363 2.103-.363.897 0 1.662.132 2.294.397.633.264 1.051.596 1.257.997.205.402.307 1.083.307 2.046v.477z"/><path fill="#FFF" d="M15.718 27.209c2.928 13.15 12.102 23.948 24.25 29.114 12.15-5.166 21.324-15.963 24.252-29.114a7.314 7.314 0 01-1.916-11.17 65.627 65.627 0 00-22.337-3.893 65.634 65.634 0 00-22.334 3.892 7.285 7.285 0 011.8 4.803c0 2.73-1.497 5.11-3.714 6.368"/><path fill="#024" d="M61.377 20.84c0-1.738.69-3.315 1.81-4.475-.294-.11-.589-.219-.884-.325a7.313 7.313 0 001.916 11.169c-2.929 13.15-12.103 23.948-24.25 29.114C27.82 51.157 18.647 40.36 15.718 27.209a7.313 7.313 0 001.915-11.171c-.296.106-.59.214-.883.325a6.448 6.448 0 01-2.084 10.399c2.89 14.145 12.476 25.853 25.303 31.668 12.826-5.815 22.412-17.523 25.303-31.668a6.447 6.447 0 01-3.895-5.921"/><path fill="#024" d="M22.798 24.405c-.259-.178-.71-.401-.667-.545.102-.338 2.516-.347 2.964 1.408.367 1.443.75 3.275 1.579 3.573.872.314 1.393 0 1.77-.261 0 0 1.345-1.13 2.487-1.152 1.006-.019 1.723.29 2.594.755 0 0 1.678 1.045 2.859 1.007 1.18-.04 1.857-.716 2.419-1.084.56-.368 2.092-1.305 3.077-.832.483.232.096.948-.098 1.296-.13.236-.643 1.309.233 1.684 1.192.51 4.47-2.826 7.18-2.826 1.142 0 2.486 1.152 2.486 1.152.377.261.9.58 1.77.261.826-.303 1.268-2.186 1.569-3.526.406-1.812 2.797-1.772 2.823-1.452.013.156-.346.347-.613.507-.285.17-.302.245.258.422 1.253.398 2.472.845 3.615 1.302a8.489 8.489 0 01-1.816-5.253c0-1.97.673-3.783 1.797-5.23a65.663 65.663 0 00-21.118-3.465 65.683 65.683 0 00-21.114 3.463 8.492 8.492 0 011.798 5.232 8.488 8.488 0 01-1.807 5.242 43.922 43.922 0 013.619-1.291c.585-.177.524-.257.336-.387m22.82 20.205c-.405.467-1.92 2.792-2.59 3.588-.68.807-1.76 1.587-3.064 1.587-1.306 0-2.385-.78-3.066-1.587-.67-.796-2.184-3.121-2.59-3.588-.81-.935-2.042-.901-4.186-.377a27.98 27.98 0 00-3.593 1.16 40.37 40.37 0 0013.442 9.634 40.355 40.355 0 0013.438-9.63 28.054 28.054 0 00-3.605-1.164c-2.143-.524-3.376-.558-4.186.377"/><path fill="#024" d="M41.142 38.305c-.38.3-.822.676-1.2.676-.375 0-.818-.376-1.197-.676-.14-.115-.113-.275.231-.328.235-.036.542-.06.967-.06.426 0 .732.024.967.06.344.053.37.213.232.328zm.012 7.372l.401.406s.305-.489.32-1.287c0 0 .339.712.251 1.33-.014.102-.048.353-.3.432-.25.079-.86.302-1.848.302-.987 0-1.597-.223-1.848-.302-.252-.08-.285-.33-.3-.432-.088-.618.252-1.33.252-1.33.014.798.32 1.287.32 1.287l.4-.406.353.513.465-.445.358.5.358-.5.465.445.353-.513zM53.39 30.75c-1.063-.298-1.719-.489-2.517-.62a1.142 1.142 0 00-1.33.881c-.206.862-.8 2.123-2.372 2.385-2.239.373-2.781-1.479-3.34-1.3 0 0 .8-.742 2.048-1.472-.076.193-.13.408-.13.636 0 .823.69 1.49.69 1.49s.691-.667.691-1.49c0-.438-.195-.831-.379-1.104 1.357-.742 2.703-.9 2.703-.9s-1.479-.824-4.043.545c-.696.372-1.53.84-2.64 1.814-.264.232-1.186.936-1.048 1.943.08.584.77.99.421 1.422-.304.378-.876-.216-2.182-.216-1.305 0-1.877.594-2.182.216-.348-.432.342-.838.422-1.422.138-1.007-.784-1.711-1.048-1.943a12.83 12.83 0 00-2.64-1.814c-2.565-1.37-4.043-.544-4.043-.544s1.345.157 2.703.899c-.184.273-.38.666-.38 1.104 0 .823.691 1.49.691 1.49s.69-.667.69-1.49c0-.228-.053-.443-.13-.636a12.828 12.828 0 012.049 1.471c-.56-.178-1.101 1.674-3.34 1.301-1.574-.262-2.166-1.523-2.372-2.385a1.142 1.142 0 00-1.33-.88c-.798.13-1.455.321-2.517.62a54.522 54.522 0 00-7.584 2.764 40.133 40.133 0 003.51 6.652c.556-.26 1.079-.486 1.508-.644 1.258-.463 2.707-1.117 5.074-.023 2.51 1.16 4.518 3.415 4.518 3.415.142-.089.099-.41-.038-.674-.243-.468-.789-1.006-1.089-1.307-1.535-1.535-.128-1.7.428-1.695.973.008 1.979.363 1.979.363-1.501-1.503-5.878-1.568-5.878-1.568 3.11-.851 6.931.98 6.931.98-3.082-2.74-9.818-2.083-9.818-2.083 5.022-1.385 9.577.935 9.577.935-2.349-2.085-6.362-2.226-6.362-2.226 4.313-.481 7.358 1.649 8.31 2.88.75.975.942 1.304 1.007 1.429.073.137.386.716.038 1.122-.348.406-1.122.329-1.122.329s-.232.948-.174 1.316c0 0-.446-.29-.523-1.316 0 0-.619-.097-1.122-.406-.503-.31-1.296-.813-1.684-.445-.387.367.059.948.252 1.238.194.29 2.67 4.563 3.067 5.139.47.681 1.277 1.43 2.622 1.43 1.346 0 2.153-.749 2.623-1.43.397-.576 2.873-4.849 3.066-5.139.194-.29.64-.871.253-1.238-.388-.368-1.181.136-1.685.445-.502.31-1.122.406-1.122.406-.077 1.025-.522 1.316-.522 1.316.058-.368-.174-1.316-.174-1.316s-.774.077-1.123-.33c-.348-.405-.035-.984.04-1.121.065-.125.255-.454 1.006-1.428.951-1.232 3.997-3.362 8.31-2.881 0 0-4.014.14-6.362 2.226 0 0 4.555-2.32 9.577-.935 0 0-6.736-.657-9.818 2.083 0 0 3.821-1.831 6.931-.98 0 0-4.377.065-5.878 1.568 0 0 1.006-.355 1.98-.363.555-.005 1.962.16.426 1.695-.3.301-.845.84-1.088 1.307-.138.264-.18.585-.039.674 0 0 2.01-2.254 4.519-3.415 2.367-1.094 3.815-.44 5.074.023.432.159.959.388 1.519.649a40.088 40.088 0 003.511-6.65 54.55 54.55 0 00-7.596-2.772z"/><path fill="#FFF" d="M26.81 20.715c-.325.083-.862.547-1.826.794-1.644.42-2.75-.195-3.12-1.636-.362-1.418.37-2.625 2.18-3.088.638-.163 1.132-.163 1.415-.235a3.33 3.33 0 00.416-.154l-.014 1.213a3.104 3.104 0 00-1.648-.048c-1.05.27-1.493 1.011-1.224 2.064.249.97.864 1.354 1.791 1.116.804-.205 1.157-.606 1.023-1.129l-.103-.403-.985.252a.86.86 0 00-.512.322l.005-.614c.007-.335.073-.408.435-.5l2.013-.516c-.09.158-.06.277-.016.449l.534 2.083a2.092 2.092 0 00-.363.03m1.166-.836l-.481-2.975c-.067-.411-.217-.636-.495-.716l4.605-.746a.317.317 0 00-.044.194c.015.092.183.384.432.937-.545-.231-1.074-.224-1.672-.127l-1.749.283.172 1.058 1.933-.314c.258-.04.433-.132.57-.217l-.265.7a.513.513 0 01-.415.332l-1.698.275.185 1.14 1.845-.298c.73-.118 1.283-.403 1.625-.817-.14.686-.25 1.07-.232 1.185.01.061.049.117.113.185l-4.672.756c.24-.155.31-.425.243-.835m5.27-.805l-.222-3.005c-.031-.416-.16-.653-.43-.757l4.652-.344a.311.311 0 00-.061.19c.007.092.15.398.349.97-.523-.277-1.05-.316-1.655-.27l-1.767.13.08 1.068 1.953-.144c.26-.02.443-.095.587-.167l-.324.673a.512.512 0 01-.443.296l-1.715.126.085 1.153 1.864-.138c.738-.054 1.313-.29 1.69-.673-.198.671-.343 1.045-.334 1.16.004.062.038.121.096.194l-4.72.35c.253-.135.346-.397.316-.812m4.937-4.159l1.861.03c-.263.112-.402.38-.408.78l-.05 3.013 1.264.021c.71.011 1.265-.126 1.75-.52-.257.652-.442 1.012-.444 1.127-.001.062.036.124.086.202l-4.133-.067c.263-.12.38-.372.386-.78l.05-3.014c.006-.416-.102-.664-.362-.792"/><path fill="#FFF" d="M46.132 17.46c.071-.954-.403-1.53-1.283-1.595-.97-.072-1.557.479-1.635 1.524-.07.938.404 1.514 1.284 1.58.962.07 1.557-.48 1.634-1.51m-1.637 2.36c-1.663-.124-2.534-1.109-2.428-2.539.108-1.452 1.167-2.378 2.785-2.258 1.662.124 2.543 1.086 2.43 2.592-.102 1.384-1.17 2.325-2.787 2.205m4.215-.478c-.061.42-.019.669.246.853l-1.733-.284c.285-.078.43-.312.498-.73l.481-2.944c.069-.418.006-.687-.24-.852l2.148.351a.293.293 0 00-.063.107.526.526 0 00.032.177l1.153 3.696.46-2.909c.069-.418-.015-.697-.254-.853l1.69.276c-.376.118-.426.375-.482.718a.28.28 0 01-.006.038l-.543 3.324c-.026.16-.032.284.04.404l-1.764-.288a.296.296 0 00.074-.128.466.466 0 00-.034-.162L49.13 16.31l-.42 3.032zm8.26 2.365c-.327-.083-1.02.066-1.984-.179-1.645-.418-2.321-1.49-1.954-2.93.361-1.42 1.582-2.127 3.394-1.666.637.162 1.07.4 1.353.471.087.022.236.045.438.064l-.592 1.058a3.098 3.098 0 00-1.424-.831c-1.051-.268-1.795.171-2.063 1.224-.247.971.11 1.603 1.036 1.84.805.203 1.306.021 1.44-.502l.102-.403-.985-.251a.862.862 0 00-.604.037l.298-.536c.167-.292.26-.324.622-.231l2.015.512c-.156.096-.186.215-.23.387l-.53 2.084a2.098 2.098 0 00-.333-.148"/><path d="M0 0h80v80H0z"/></g></svg>