<svg xmlns="http://www.w3.org/2000/svg" width="80" height="80"><g fill="none" fill-rule="evenodd"><path fill="#562500" d="M27.4 23.366l.899-3.57a10.4 10.4 0 00.272-1.612h.04s.059.8.235 1.632l.79 3.55h-2.235zm3.835-9.122h-4.992L23.23 24.355v-10.11h-4.673v5.08H16.75v-5.08h-4.672v13.14h4.672V22.21h1.806v5.177h7.866l.403-1.616h3.355l.216.999a65.688 65.688 0 014.407-.558l-3.568-11.967zm35.675 4.91c-1.103-.535-1.464-.86-1.464-1.414 0-.497.381-.726 1.062-.726.763 0 1.465.267 1.946.535l.943-2.694c-.742-.42-1.925-.802-3.63-.802-2.988 0-4.873 1.987-4.873 4.413 0 1.28.561 2.77 2.567 3.744 1.082.515 1.423.859 1.423 1.355 0 .42-.38.707-1.082.707-.803 0-1.665-.363-2.026-.63l-.488 1.484-2.32-4.903 3.089-5.979h-4.714l-2.486 5.769h-.04v-5.769h-8.53l-1.157 6.03c-.14.746-.179 1.465-.179 1.465h-.039s-.022-.719-.162-1.465l-1.213-6.03h-3.748l-1.271 6.03a12.927 12.927 0 00-.184 1.465h-.04s-.038-.719-.175-1.465l-1.101-6.03h-4.745l3.366 11.896a66.656 66.656 0 015.073-.21l.721-2.888c.156-.632.195-1.27.195-1.27h.04s.06.658.216 1.27l.765 2.909c1.67.041 3.331.146 4.981.312l2.514-8.929v9.23a65.21 65.21 0 014.647.822h.025v-6.227h.04l2.327 6.227h5.174l-.012-.026c.67.142 1.472.217 2.419.217 3.028 0 5.094-1.91 5.094-4.355 0-1.528-.36-2.827-2.948-4.069"/><path fill="#FFC400" d="M19.489 30.58c.36 16.342 8.182 26.423 21.462 37.036C54.23 57.003 62.053 46.922 62.414 30.582c-6.855-2.421-14.077-3.649-21.465-3.649-7.386 0-14.606 1.228-21.46 3.648"/><path fill="#562500" d="M64.352 36.968c.407-2.38.39-3.801.39-3.801C39.06 23.162 32.73 34.602 32.73 34.602c-5.751 1.232-10.332 4.787-8.591 10.344.525 1.678 1.734 3.233 3.352 4.424a2.852 2.852 0 01-.335-2.164c.44-1.895 2.984-3.16 6.804-2.993 5.946.26 7.7 1.333 7.7 1.333s-9.945-2.2-12.69.077a8.808 8.808 0 012.107-.255c5.96 0 10.791 4.018 10.791 13.413 0 3.415-.639 6.116-1.736 8.175-12.33-10.009-19.753-19.668-20.58-34.705a61.94 61.94 0 00-2.265.864c.387 20.943 23.657 36.312 23.657 36.312s1.856-1.22 3-2.062c2.017-6.147 1.456-12.99-1.751-18.79 3.825 5.164 4.909 11.684 3.325 17.61a60.418 60.418 0 004.139-3.51 23.721 23.721 0 00-4.76-15.541c3.894 3.842 5.987 9.05 6.009 14.345a53.77 53.77 0 003.252-3.51 24.178 24.178 0 00-7.018-13.075 20.679 20.679 0 017.986 11.897 49.525 49.525 0 002.679-3.695c-2-4.35-5.124-8.066-9.116-10.81a22.74 22.74 0 019.873 9.617 46.701 46.701 0 001.992-3.584 29.056 29.056 0 00-11.11-9.067 24.882 24.882 0 0111.672 7.902 43.9 43.9 0 001.572-3.861c-3.891-3.533-8.522-6.035-13.56-7.32 5.154.654 9.963 2.756 13.976 6.075.444-1.4.768-2.68 1.004-3.806a33.595 33.595 0 00-15.892-5.287 30.018 30.018 0 0116.136 4.013"/><path fill="#FFC400" d="M57.815 52.728v.001zM28.393 38.782c-.118.852.042 2.225 2.145 3.465 1.666.983 4.268 1.139 6.001 1.375 2.12.28 4.405.831 5.122 1.924-.717-1.929-4.624-2.124-7.118-2.877-2.732-.825-2.612-3.493-2.158-4.908.255-.795.752-1.69.285-2.196-.381-.414-1.135-.146-1.135-.146-1.395.404-2.638.944-3.683 1.595.526.26.647.999.54 1.768"/><path fill="#562500" d="M31.576 38.493c-.043-.27-.337-.454-.654-.397-.827.148-1.459.79-1.459.79-.103.097-.139.231-.078.32.065.096.218.106.352.028v.002s.22-.127.454-.19c.306-.08.63.02.63.02v-.002c.08.019.168.025.257.01.318-.05.541-.31.498-.58"/><path fill="#212121" d="M40.567 35.909c-.518.205-1.236.388-1.972.488a3.717 3.717 0 106.673-2.607c-1.507.327-3.008 1.269-3.008 1.269a10.23 10.23 0 01-1.693.85"/><path fill="#FFC400" d="M44.398 34.04c-.761.267-1.438.618-1.818.831a1.499 1.499 0 11-1.673.896 8.65 8.65 0 01-.34.142 7.823 7.823 0 01-1.154.342 2.888 2.888 0 104.985-2.21"/><path fill="#FFF" d="M42.492 35.008a.648.648 0 10.946-.575c-.4.186-.73.365-.939.484a.633.633 0 00-.007.09"/><path fill="#212121" d="M40.567 35.909a10.23 10.23 0 001.693-.85s1.658-1.041 3.239-1.314c1.33-.23 1.79-.572 1.945-.755a30.103 30.103 0 00-11.683 3.094c.94.718 3.502.34 4.806-.175"/><path fill="#000" d="M36.54 43.622c2.119.28 4.404.83 5.12 1.924 0 0-1.754-1.077-7.7-1.333-3.82-.164-6.364 1.098-6.804 2.993a2.852 2.852 0 00.335 2.164c-1.618-1.19-2.827-2.746-3.352-4.424-.989-3.156.061-5.665 2.206-7.471 0 0 .84-.72 1.431-.497.59.225.728.999.617 1.804-.118.852.042 2.225 2.145 3.465 1.666.983 4.268 1.14 6.001 1.375"/><path fill="#FFF" d="M29.712 36.505c-2.039.88-3.763 2.78-3.65 2.918.085.101.946-1.167 3.908-2.322a.321.321 0 00.17-.427.326.326 0 00-.428-.169"/></g></svg>