<svg width="80" height="80" fill="none" xmlns="http://www.w3.org/2000/svg"><path d="M67.106 17.217a78.157 78.157 0 00-2.301-.765v-2.266l-.591-.275c-.085-.04-2.193-1.008-6.265-1.977C51.22 10.34 44.416 10 39.896 10c-8.19 0-14.338 1.053-18.055 1.936-4.07.968-6.176 1.936-6.263 1.975l-.595.275v2.265c-.782.247-1.556.505-2.303.765l-.68.238v17.133l3.637 4.016c.785 5.155 2.294 9.912 4.483 14.13a38.095 38.095 0 007 9.566c4.98 4.931 10.024 7.094 11.996 7.548.264.06.595.12.595.12l.181.033.18-.032s.34-.06.602-.122c1.965-.453 6.995-2.607 11.965-7.518a38.073 38.073 0 006.99-9.522c2.19-4.203 3.703-8.935 4.499-14.066l3.656-4.166v-17.12l-.678-.237z" fill="#DE0316"/><path d="M61.013 32.844l-.035-.009c-.894 24.556-17.063 32.495-20.552 33.32-.211.05-.488.102-.488.102s-.276-.052-.486-.1c-3.486-.824-19.664-8.764-20.554-33.334l-.034.008c.311 25.677 17.037 33.897 20.588 34.736.21.05.486.1.486.1s.277-.05.488-.1c3.554-.841 20.27-9.065 20.587-34.723z" fill="#DE0316"/><path d="M66.812 18.094a80.699 80.699 0 00-2.986-.979v-2.362s-8.225-3.818-23.888-3.818c-15.662 0-23.89 3.818-23.89 3.818v2.363a84.83 84.83 0 00-2.984.978V34.11l3.58 3.953C19.918 60.43 35.75 67.931 39.388 68.767c.238.056.55.112.55.112s.313-.056.553-.112C44.124 67.93 59.89 60.46 63.21 38.21l3.602-4.101V18.094z" fill="#061A33"/><path d="M61.013 32.844l-.035-.009c-.894 24.556-17.063 32.495-20.552 33.32-.211.05-.488.102-.488.102s-.276-.052-.486-.1c-3.486-.824-19.664-8.764-20.554-33.334l-.034.008c.311 25.677 17.037 33.897 20.588 34.736.21.05.486.1.486.1s.277-.05.488-.1c3.554-.841 20.27-9.065 20.587-34.723zM15.289 19.9a69.098 69.098 0 012.495-.766l.567 5.21.096 1.321.11-1.381.6-5.537c.841-.227 1.686-.44 2.537-.638v11.884c-.758.178-1.135.271-1.89.468v-7.33l-.11 1.871-.617 5.65c-.538.145-.806.22-1.342.376l-.614-5.289-.11-1.827v7.329c-.69.207-1.036.315-1.724.54l.002-11.882zm7.193-1.97a77.837 77.837 0 013.969-.786v1.94c-.797.137-1.19.21-1.989.367v2.967a66.052 66.052 0 011.94-.358v1.908c-.777.134-1.166.205-1.94.36v3.222c.794-.157 1.19-.23 1.989-.367v1.844a80 80 0 00-3.97.785V17.929zm4.762-.918a66.448 66.448 0 011.996-.295v10.038a67.623 67.623 0 011.792-.222v1.845c-1.266.151-2.53.323-3.788.517V17.012zm4.482-.592c.878-.093 1.76-.17 2.636-.229 1.946-.208 2.238 1.31 2.255 2.874.008.815.122 2.173-.765 2.65 1.09.35.842 2.172.843 3.007 0 1.643-.383 3.272-2.32 3.351a70.43 70.43 0 00-2.655.23l.006-11.883zm2.428 4.725c.52-.037.552-.278.552-1.56 0-1.283-.017-1.557-.552-1.518l-.453.034v3.079l.453-.035zm.033 5.146c.552-.04.584-.409.584-1.676s-.032-1.587-.584-1.547c-.194.013-.292.021-.486.036v3.22l.486-.033zm9.103-1.707v-8.515c.803.034 1.207.056 2.01.11v8.564c0 1.267.032 1.556.6 1.598.567.043.599-.241.599-1.508V16.27a63.07 63.07 0 011.955.186v8.515c.041 1.947-.417 3.365-2.606 3.227-2.149-.136-2.569-1.704-2.559-3.614zm5.882-8.048c.889.102 1.776.22 2.661.356 2.118.34 2.302 2.367 2.296 4.15 0 1.084.11 2.727-.947 3.427.295 1.558.589 3.117.882 4.676a65.846 65.846 0 00-1.944-.325l-.772-4.157-.243-.035v4.041c-.773-.11-1.16-.16-1.936-.25l.003-11.883zm2.404 6.315c.563.085.555-.466.58-1.997.008-.573.197-1.917-.58-2.126l-.468-.068v4.122l.468.07zm3.168-5.464c.846.16 1.268.246 2.11.43.278 1.333.554 2.667.83 4.001l.334 1.777v-5.518c.745.17 1.117.265 1.858.457v11.884a68.834 68.834 0 00-1.87-.46l-1.068-4.827c-.135-.659-.2-.988-.335-1.645v6.158a70.713 70.713 0 00-1.855-.374l-.004-11.883zm5.913 1.354c1.31.355 2.612.737 3.9 1.158v1.94a58.877 58.877 0 00-1.944-.604v2.964c.765.226 1.141.34 1.898.589v1.908a68.283 68.283 0 00-1.898-.59v3.228c.78.231 1.17.352 1.945.605v1.844a75.216 75.216 0 00-3.9-1.158V18.74zm-22.619 8.626c-.673-.801-.705-2.325-.705-5.436 0-2.982.032-4.506.657-5.34.385-.481 1.026-.69 1.988-.69.963 0 1.62.209 1.973.658.657.817.673 2.341.673 5.372 0 3.316-.016 4.761-.69 5.501-.352.4-.993.545-1.955.545-.947 0-1.588-.177-1.94-.61zm2.582-5.387c0-3.882 0-4.106-.642-4.106-.625 0-.625.224-.625 4.106 0 3.91 0 4.12.625 4.12.642 0 .642-.208.642-4.12z" fill="#DE0316"/><path d="M34.971 36.236h-3.088l1.179 1.232v19.408l-1.126 1.22h4.166l-1.118-1.22V42.129l3.586 10.205v-5.519l-3.6-10.579z" fill="#DE0316"/><path d="M32.605 39.106c-.11.065-.222.129-.331.19-.11.061-.211.12-.316.181-.193.117-.38.245-.56.384-.334.256-.652.53-.954.824a9.746 9.746 0 00-1.483 1.849 10.624 10.624 0 00-.986 2.049c-.085.241-.17.489-.255.727-.042.121-.085.242-.124.363a46.576 46.576 0 01-.332.93.17.17 0 00-.02.07.19.19 0 00.024.076.2.2 0 01.008.02l.12.327c.027.073.053.147.078.222l.459 1.329c.2.578.448 1.14.74 1.676.377.69.834 1.333 1.361 1.915.276.301.57.585.88.85a7.5 7.5 0 001.057.785c.1.059.202.117.301.17.1.054.222.125.33.19l.053.031v-2.587a8.525 8.525 0 01-.903-.805 6.954 6.954 0 01-1.157-1.57 5.626 5.626 0 01-.626-1.915 5.51 5.51 0 01.26-2.515 6.31 6.31 0 01.902-1.673 7.953 7.953 0 011.414-1.445l.111-.085v-2.591l-.05.028zm10.326 14.595c-.906.198-1.83.304-2.757.317h-.22c-.794 0-1.587-.067-2.37-.2a12.864 12.864 0 01-2.197-.58v2.186c.87.247 1.76.42 2.658.52a17.176 17.176 0 003.183.058 16.564 16.564 0 003.268-.57v-2.184c-.511.184-1.034.336-1.565.453zM38.57 39.395v-2.04l-.164.014c-.838.075-1.668.213-2.485.414l.668 1.955c.65-.163 1.313-.278 1.98-.343z" fill="#DE0316"/><path d="M46.82 42.14l-.002-4.672 1.18-1.232h-3.09l-3.603 10.596v5.502l.005.001 3.586-10.206.001 13.741v1.006l-1.118 1.22h4.165l-1.125-1.22V42.14z" fill="#DE0316"/><path d="M48.633 42.823c.291.334.548.697.765 1.084l.027.05 1.997-1.837-.04-.033a59.35 59.35 0 01-.832-.709c-.192-.166-.391-.34-.588-.504l-.192-.164c-.205-.175-.417-.356-.635-.524-.28-.214-.575-.425-.88-.615a18.01 18.01 0 00-.533-.324 4.996 4.996 0 00-.459-.248h-.007l-.033-.017v2.551c.518.375.99.807 1.41 1.29zm.762 6.614c-.425.776-1.059 1.5-1.878 2.155-.094.076-.193.15-.294.224v2.547l.03-.016h.008c.278-.134.547-.286.806-.454l.065-.041c.307-.19.605-.394.887-.605.235-.176.462-.369.68-.554l.156-.132c.255-.216.51-.434.792-.68l.128-.109c.197-.17.402-.347.605-.516l.039-.032-1.996-1.837-.028.05zm-8.493.085v-10.13a13.76 13.76 0 012.38.366l.68-1.986a16.41 16.41 0 00-2.373-.395c-.225-.021-.459-.04-.692-.052l.004-2.267c.25 0 1.484.017 1.978.071.547.06 1.461.366 1.47.37l.057.018.046-2.35h-6.56l1 1.226.085.68v18.506h.04c.325.023.596.032.882.032.287 0 .58-.01.965-.024h.041v-.455l-.003-3.61zm-.969 8.571l1.522-1.644h-3.042l1.52 1.644z" fill="#DE0316"/></svg>